<ttFont>
          <CharString index="0">
            403 rmoveto
            3 16 1 16 15 vvcurveto
            69 -23 58 -46 47 vhcurveto
            -49 50 -67 26 -84 3 -111 4 -90 -27 -71 -58 -67 -54 -40 -73 -13 -92 rrcurveto
            -3 -16 -1 -16 -15 vvcurveto
            -75 20 -58 41 -41 vhcurveto
            41 -41 38 -28 35 -15 -7 -15 rcurveline
            -149 hlineto
            -29 -15 9 19 hvcurveto
            7 3 21 8 vvcurveto
            -27 hlineto
            -31 -147 rlineto
            264 hlineto
            23 107 rlineto
            -72 29 -36 64 101 vvcurveto
            31 4 34 7 37 vhcurveto
            14 75 28 61 41 48 51 60 66 28 79 -3 55 -2 42 -22 29 -42 rrcurveto
            25 -37 13 -46 -55 vvcurveto
            -22 -2 -22 -4 -21 vhcurveto
            -15 -77 -32 -67 -49 -57 -33 -39 -40 -32 -48 -25 -22 -106 rcurveline
            267 hlineto
            31 147 rlineto
            -26 hlineto
            -15 -42 rlineto
            -15 -8 -17 -7 -26 hhcurveto
            -156 hlineto
            4 14 81 31 51 24 21 16 rlinecurve
            82 61 49 79 15 95 rrcurveto
            return
          </CharString>
          <CharString index="1">
            rmoveto
            5 20 3 20 19 vvcurveto
            33 -11 39 -22 43 vhcurveto
            50 -25 -28 25 -31 hhcurveto
            -12 -6 -5 -9 -3 1 -3 3 -3 hvcurveto
            28 -32 14 -42 -53 vvcurveto
            -46 -11 -47 -23 -49 vhcurveto
            -101 -48 -78 -62 -61 hhcurveto
            -29 -24 12 25 -19 hvcurveto
            -17 22 -8 26 31 vvcurveto
            37 11 43 22 47 vhcurveto
            33 71 16 51 31 vvcurveto
            35 -14 18 -28 -13 -17 -5 -10 -20 vhcurveto
            -20 -9 -11 -8 -2 -6 -2 -12 4 -9 10 -7 10 -7 5 -7 1 -9 1 -19 -6 -25 -15 -30 -19 -39 -12 -35 -7 -33 rrcurveto
            -3 -13 -1 -14 -13 vvcurveto
            -50 19 -41 38 -33 vhcurveto
            -31 35 42 -15 48 hhcurveto
            69 61 22 43 55 hvcurveto
            55 43 36 58 18 71 rrcurveto
            return
          </CharString>
          <CharString index="2">
            -92 679 rlineto
            -40 hlineto
            -344 -572 -32 -53 -25 -32 -19 -11 rlinecurve
            -15 -9 -25 -3 -34 1 -7 -31 rcurveline
            224 hlineto
            7 31 rlineto
            -39 -20 3 7 -3 hvcurveto
            -1 3 -1 3 return
          </CharString>
          <CharString index="3">
            35 3 18 -18 -38 vvcurveto
            -21 -5 -32 -9 -43 vhcurveto
            -43 -105 -31 -72 -18 -39 rrcurveto
            89 hlineto
            63 159 31 78 25 55 21 31 rlinecurve
            33 50 38 25 42 -1 rrcurveto
            33 -1 17 -19 -38 vvcurveto
            -29 -11 -44 -23 -60 vhcurveto
            -22 -60 -22 -57 -22 -55 rrcurveto
            12 callsubr
            return
          </CharString>
          <CharString index="4">
            rmoveto
            10 143 callgsubr
            156 -88 95 -153 -89 -80 -32 -64 -71 vhcurveto
            157 callsubr
            -109 rrcurveto
            -5 -29 -3 -27 -27 vvcurveto
            -81 22 -67 43 -52 vhcurveto
            -52 43 58 -26 72 hhcurveto
            90 79 30 61 67 hvcurveto
            70 63 48 88 25 113 rrcurveto
            -111 2 rmoveto
            -21 -96 -31 -77 -42 -57 rrcurveto
            -62 -47 -55 -31 -63 hhcurveto
            -97 -49 58 117 42 6 51 13 59 hvcurveto
            220 47 88 110 130 hhcurveto
            93 46 -61 -123 -43 -6 -50 -12 -57 hvcurveto
            return
          </CharString>
          <CharString index="5">
            -102 callgsubr
            11 14 20 6 25 hhcurveto
            60 30 -41 -83 hvcurveto
            return
          </CharString>
          <CharString index="6">
            rmoveto
            -7 -9 -8 -3 -6 hhcurveto
            -5 -97 callsubr
            return
          </CharString>
          <CharString index="7">
            410 315 rmoveto
            122 callgsubr
            26 vhcurveto
            29 -23 -33 15 -98 callsubr
            return
          </CharString>
          <CharString index="8">
            rmoveto
            3 17 -22 14 -46 11 rrcurveto
            9 -38 -38 5 -37 hhcurveto
            -113 -78 -50 -80 -17 hvcurveto
            -1 -7 -1 -8 -7 vvcurveto
            -34 16 -25 33 -15 vhcurveto
            -55 -22 -33 -34 -13 -47 rrcurveto
            -4 -15 -2 -14 -13 vvcurveto
            -73 54 -37 109 -2 vhcurveto
            66 2 52 14 37 25 55 38 29 35 2 32 -62 -37 -73 -19 -84 -3 rrcurveto
            -87 -3 -44 22 46 vvcurveto
            5 1 6 1 6 vhcurveto
            3 13 11 15 19 15 20 15 17 8 14 -1 28 -15 27 -7 25 1 14 1 13 3 13 7 15 7 9 10 3 12 rrcurveto
            1 3 0 3 3 vvcurveto
            18 -15 10 -31 2 vhcurveto
            -40 3 -27 -12 -29 -9 rrcurveto
            -30 3 -15 14 27 vvcurveto
            5 1 4 1 4 vhcurveto
            14 47 55 22 96 -3 39 -1 40 -11 41 -20 7 -4 11 7 15 17 15 17 8 14 2 11 rrcurveto
            endchar
          </CharString>
          <CharString index="9">
            -43 -102 callsubr
            return
          </CharString>
          <CharString index="10">
            -60 callsubr
            4 -1 9 3 15 18 84 rcurveline
            -70 hlineto
            -17 -82 rlineto
            -2 -11 -1 -9 -8 vvcurveto
            return
          </CharString>
          <CharString index="11">
            100 rmoveto
            -21 -25 -28 -25 -100 callgsubr
            return
          </CharString>
          <CharString index="12">
            285 rmoveto
            10 41 5 39 39 vvcurveto
            77 -19 65 -38 52 vhcurveto
            -41 57 -59 35 -76 14 rrcurveto
            5 -25 -25 2 -23 hhcurveto
            -156 -111 -103 -195 -48 hvcurveto
            -9 -37 -5 -35 -35 vvcurveto
            -82 23 -71 46 -61 vhcurveto
            43 -56 52 -34 61 -13 rrcurveto
            -4 19 19 -2 19 hhcurveto
            77 70 28 57 63 hvcurveto
            63 57 43 73 22 101 callsubr
            -21 -81 -28 -66 -37 -50 rrcurveto
            -59 -44 -50 -30 -57 hhcurveto
            -12 -12 1 3 -13 hvcurveto
            -90 20 -45 68 116 vvcurveto
            46 7 53 15 61 vhcurveto
            19 79 28 65 37 49 rrcurveto
            59 44 51 29 59 hhcurveto
            11 12 -1 -2 12 hvcurveto
            89 -17 45 -71 -123 vvcurveto
            -45 -7 -50 -13 -54 vhcurveto
            return
          </CharString>
          <CharString index="13">
            657 339 rmoveto
            9 143 callgsubr
            35 -4 33 -9 29 vhcurveto
            73 callsubr
            20 4 26 rrcurveto
            1 7 1 6 7 vvcurveto
            37 -19 26 -37 17 vhcurveto
            2 -4 -4 1 -4 hhcurveto
            -19 -15 -19 -17 -9 4 -7 9 -5 67 callsubr
            -17 -3 -25 -32 -19 -59 -13 rrcurveto
            85 -37 -72 43 -108 hhcurveto
            -89 -81 -32 -64 -71 hvcurveto
            157 callsubr
            -109 rrcurveto
            -5 -29 -3 -27 -27 vvcurveto
            -81 22 -67 43 -52 vhcurveto
            -52 43 58 -26 72 hhcurveto
            90 79 30 61 67 hvcurveto
            70 63 48 88 26 113 rrcurveto
            -112 2 rmoveto
            -20 -96 -31 -77 -43 -57 rrcurveto
            -62 -47 -54 -31 -63 hhcurveto
            -98 -49 58 117 42 6 51 13 59 hvcurveto
            220 47 88 110 130 hhcurveto
            93 46 -61 -123 -43 -6 -50 -12 -57 hvcurveto
            return
          </CharString>
          <CharString index="14">
            rmoveto
            37 18 19 26 34 vvcurveto
            19 -7 15 -15 13 vhcurveto
            16 -17 -21 7 -28 hhcurveto
            -70 -41 -30 -58 -10 hvcurveto
            -5 -23 5 -20 13 -18 9 -12 14 -10 17 -9 -31 -2 -26 -10 -20 -19 -19 -15 -10 -19 -2 -20 -4 -27 8 -23 19 -18 rrcurveto
            -22 22 30 -6 32 hhcurveto
            65 68 28 70 3 hvcurveto
            1 23 -12 21 -19 21 -16 16 -16 11 -17 8 16 2 15 6 13 7 rrcurveto
            18 79 rmoveto
            -37 -23 -29 -50 -22 vhcurveto
            -36 19 -27 24 6 40 rrcurveto
            32 5 28 27 47 hhcurveto
            33 17 -26 -28 hvcurveto
            -32 -225 rmoveto
            -31 -13 -27 -22 -41 hhcurveto
            -46 -35 33 46 6 hvcurveto
            7 42 26 27 48 12 16 -12 16 -10 17 -11 rrcurveto
            21 -15 10 -17 -18 vvcurveto
            -8 -2 -8 -3 -8 vhcurveto
            endchar
          </CharString>
          <CharString index="15">
            -76 -57 -42 -38 -28 hhcurveto
            -12 -6 15 31 58 17 75 35 92 hvcurveto
            13 33 12 23 11 12 rrcurveto
            16 15 22 8 29 hhcurveto
            18 27 -6 -12 36 hvcurveto
            return
          </CharString>
          <CharString index="16">
            rmoveto
            100 callsubr
            -94 hlineto
            -53 callgsubr
            return
          </CharString>
          <CharString index="17">
            -153 -164 rlineto
            38 hlineto
            133 101 80 -101 rlineto
            34 hlineto
            return
          </CharString>
          <CharString index="18">
            473 420 rmoveto
            -6 -21 -33 -3 -45 hhcurveto
            -8 19 -16 14 -25 11 rrcurveto
            9 -20 -22 4 -24 hhcurveto
            -39 -43 -17 -34 -48 hvcurveto
            -55 -39 -28 -57 -73 vvcurveto
            -39 12 -29 23 -20 vhcurveto
            -19 21 29 -9 37 hhcurveto
            7 8 0 1 7 hvcurveto
            2 -2 -38 -35 rlineto
            -17 -16 -9 -15 -15 vvcurveto
            -11 7 -10 13 -11 vhcurveto
            -127 -37 -64 -58 -78 vvcurveto
            -41 21 -30 41 -19 vhcurveto
            -15 31 39 -8 45 hhcurveto
            46 47 11 22 48 hvcurveto
            25 11 20 16 17 20 rrcurveto
            19 23 9 23 25 vvcurveto
            35 -21 34 -41 34 vhcurveto
            -58 48 rlineto
            -30 25 -15 21 18 vvcurveto
            5 9 14 17 25 vhcurveto
            31 5 33 17 34 30 rrcurveto
            return
          </CharString>
          <CharString index="19">
            25 21 35 28 8 15 2 4 -2 8 -5 13 -5 13 -8 6 -10 1 -20 1 -25 -10 -31 -22 -30 -22 -27 -28 -25 -34 rrcurveto
            -24 -34 -18 -40 return
          </CharString>
          <CharString index="20">
            3 36 2 29 22 vvcurveto
            46 -8 23 -17 -11 -25 -13 -26 -37 vhcurveto
            -79 -55 11 -17 46 28 rlineto
            9 15 8 4 3 hhcurveto
            17 7 -22 -43 -3 hvcurveto
            -17 -236 rlineto
            -1 -9 0 -17 -23 vvcurveto
            -15 4 -13 7 -11 vhcurveto
            -13 9 11 -7 13 hhcurveto
            21 34 27 53 47 hvcurveto
            33 37 28 36 21 33 2 -2 rcurveline
            -45 -157 -17 -60 -18 -49 -19 -38 rlinecurve
            -64 -31 -38 -32 -43 hhcurveto
            -35 -25 25 39 6 0 6 1 6 hvcurveto
            -9 3 -47 -33 rlineto
            -1 -5 0 -5 -5 vvcurveto
            return
          </CharString>
          <CharString index="21">
            hstem
            599 31 rmoveto
            -107 callgsubr
            return
          </CharString>
          <CharString index="22">
            rmoveto
            2 -1 -37 0 -75 1 -101 -169 rcurveline
            6 49 -1 35 -7 22 -15 46 -34 25 -53 3 -63 4 -57 -21 -51 -45 -41 -36 -32 -46 -23 -56 rrcurveto
            -19 -45 -9 -42 -37 vvcurveto
            -51 17 -40 34 -29 vhcurveto
            -25 29 32 -12 36 hhcurveto
            97 83 54 107 68 hvcurveto
            2 -51 4 -37 7 -22 rrcurveto
            -34 11 18 -17 26 hhcurveto
            28 174 callsubr
            hvcurveto
            18 29 8 27 -2 24 rrcurveto
            return
          </CharString>
          <CharString index="23">
            -2 63 -1 43 -14 21 -28 rlinecurve
            15 -20 8 -27 -34 vvcurveto
            -11 -1 -16 20 callgsubr
            return
          </CharString>
          <CharString index="24">
            rmoveto
            -35 14 -25 9 -16 4 rrcurveto
            9 -38 -47 5 -56 hhcurveto
            -87 -79 -32 -65 -71 hvcurveto
            -75 -67 -49 -88 -23 -108 rrcurveto
            -7 -31 -3 -29 -29 vvcurveto
            -79 22 -66 45 134 callsubr
            71 hhcurveto
            43 39 5 10 35 hvcurveto
            26 8 26 11 25 15 18 12 18 12 19 12 36 45 rcurveline
            -8 14 -47 -39 -41 -27 -36 -15 rlinecurve
            -45 -19 -50 -9 -55 1 rrcurveto
            -85 1 -47 74 120 vvcurveto
            40 5 43 10 47 vhcurveto
            45 211 89 111 131 9 31 2 33 -6 37 -14 15 -6 13 -10 11 -13 138 callsubr
            rrcurveto
            return
          </CharString>
          <CharString index="25">
            -29 -25 -23 -14 -22 hhcurveto
            -6 -5 1 3 -5 hvcurveto
            -33 17 -19 33 -3 49 rrcurveto
            -89 4 rmoveto
            return
          </CharString>
          <CharString index="26">
            hstem
            54 77 318 89 vstem
            -84 callgsubr
            return
          </CharString>
          <CharString index="27">
            -9 -5 -21 rcurveline
            79 hlineto
            -5 -37 -12 -75 -21 -113 -25 -141 -19 -88 -13 -37 rrcurveto
            -59 -21 -28 -29 -37 hhcurveto
            -18 -15 10 19 -13 hvcurveto
            -14 -4 -1 -5 -3 -13 -5 -21 rlinecurve
            -6 -21 -4 -13 -3 -5 rrcurveto
            -5 8 11 -3 15 hhcurveto
            33 35 17 35 39 hvcurveto
            41 37 33 57 23 75 return
          </CharString>
          <CharString index="28">
            -85 callgsubr
            endchar
          </CharString>
          <CharString index="29">
            390 rmoveto
            51 -35 27 -51 -46 -59 -31 -61 -73 vhcurveto
            61 -25 -44 31 -65 hhcurveto
            -28 -24 -5 -10 -21 hvcurveto
            -1 -1 -21 -13 -41 -26 6 -66 rcurveline
            17 -5 20 57 3 7 3 5 4 1 rlinecurve
            6 16 17 3 19 hhcurveto
            69 37 -46 -71 -29 -2 -20 -4 -11 hvcurveto
            -65 hlineto
            -139 -70 -52 -104 -66 32 -33 64 49 54 30 60 60 hvcurveto
            -60 15 38 -30 61 hhcurveto
            33 35 11 22 37 hvcurveto
            19 11 29 22 41 33 -6 22 rcurveline
            -20 -13 -39 -25 -21 -14 -3 -1 rlinecurve
            -15 -26 -23 -7 -21 hhcurveto
            -53 -30 37 55 19 4 32 9 45 hvcurveto
            62 3 56 13 49 24 27 13 22 17 18 21 rrcurveto
            21 25 10 25 26 vvcurveto
            -71 -12 rmoveto
            -42 -22 -33 -45 -24 vhcurveto
            -35 -19 -41 -10 -48 -3 2 41 13 39 24 37 rrcurveto
            42 27 33 21 38 hhcurveto
            36 18 -16 -33 hvcurveto
            -259 -157 rmoveto
            -2 -17 -2 -15 -3 -14 -8 -35 -14 -30 -21 -26 rrcurveto
            -33 -25 -28 -16 -31 hhcurveto
            -45 -23 21 42 82 55 41 110 hvcurveto
            return
          </CharString>
          <CharString index="30">
            14 -5 -11 7 -17 hhcurveto
            -9 -9 -3 -6 135 callgsubr
            -16 vvcurveto
            -9 2 -7 5 -6 vhcurveto
            110 -136 rlineto
            25 hlineto
            return
          </CharString>
          <CharString index="31">
            441 rmoveto
            16 -21 -30 8 -41 hhcurveto
            -21 -21 -5 -11 -23 hvcurveto
            -15 -7 -30 -19 -46 -30 -31 -20 -25 -36 -20 -51 rrcurveto
            -19 -51 -10 -52 -54 vvcurveto
            -95 40 -48 80 50 50 21 42 51 vhcurveto
            48 40 -7 20 -15 -10 rlineto
            -42 -63 -46 -21 -28 hhcurveto
            -57 -29 38 77 51 7 48 15 45 hvcurveto
            19 58 26 37 35 16 rrcurveto
            7 16 19 4 21 hhcurveto
            21 17 -4 -8 13 hvcurveto
            17 -8 8 -10 -12 vvcurveto
            -58 22 vlineto
            7 61 8 42 8 21 rrcurveto
            return
          </CharString>
          <CharString index="32">
            17 -10 8 -20 -17 -13 -6 -12 -9 vhcurveto
            -145 -174 rlineto
            28 hlineto
            165 127 rlineto
            14 11 7 13 16 vvcurveto
            -225 -90 90 callsubr
            18 15 vvcurveto
            return
          </CharString>
          <CharString index="33">
            rmoveto
            3 15 2 16 16 vvcurveto
            45 -11 41 -22 35 vhcurveto
            -31 49 -28 29 -27 7 rrcurveto
            3 return
          </CharString>
          <CharString index="34">
            -20 -86 callsubr
            return
          </CharString>
          <CharString index="35">
            -29 -14 -36 -11 -41 -9 9 36 rcurveline
            21 82 29 50 37 17 rrcurveto
            8 17 15 4 13 hhcurveto
            33 16 -17 -34 hvcurveto
            return
          </CharString>
          <CharString index="36">
            hvcurveto
            31 -30 19 -35 7 -39 11 -58 -3 -53 -16 -47 -13 -39 -20 -33 return
          </CharString>
          <CharString index="37">
            -65 callsubr
            -207 27 rmoveto
            return
          </CharString>
          <CharString index="38">
            22 -4 161 136 rlineto
            14 12 7 15 17 vvcurveto
            return
          </CharString>
          <CharString index="39">
            -67 callsubr
            rrcurveto
            return
          </CharString>
          <CharString index="40">
            -80 callsubr
            41 169 32 139 23 111 return
          </CharString>
          <CharString index="41">
            11 -14 -12 6 -9 hhcurveto
            -20 -20 -13 -15 3 hvcurveto
            3 -16 11 -13 19 -10 180 -99 rcurveline
            39 2 rlineto
            endchar
          </CharString>
          <CharString index="42">
            16 -77 callgsubr
            16 vvcurveto
            return
          </CharString>
          <CharString index="43">
            44 39 22 47 55 vvcurveto
            5 -1 12 -3 17 vhcurveto
            27 -3 27 1 27 4 9 43 rcurveline
            -156 -86 rmoveto
            -41 -9 -36 -17 -31 vhcurveto
            -38 -21 -29 -19 -37 hhcurveto
            -61 -31 40 80 44 11 36 23 29 hvcurveto
            29 23 29 14 33 hhcurveto
            57 29 -36 -71 hvcurveto
            return
          </CharString>
          <CharString index="44">
            17 hlineto
            7 21 18 14 29 5 10 2 24 -6 38 -13 rrcurveto
            -14 41 33 -7 23 hhcurveto
            13 return
          </CharString>
          <CharString index="45">
            372 462 rmoveto
            4 -8 -6 2 -5 hhcurveto
            -21 -22 -12 -23 -22 hvcurveto
            -8 -9 -15 -21 -23 -32 -37 -53 -24 -39 -10 -23 -2 2 rcurveline
            8 47 10 46 11 45 rrcurveto
            4 16 2 13 11 vvcurveto
            21 -8 11 -16 -21 -42 -24 -48 -65 vhcurveto
            -27 -20 7 -19 27 17 rlineto
            17 27 17 9 6 hhcurveto
            11 6 -7 -14 -10 -2 -20 -5 -30 hvcurveto
            -2 -12 -20 -121 -24 -103 -27 -85 rlinecurve
            9 -7 15 5 22 5 28 5 rlinecurve
            25 116 17 77 27 62 39 48 rlinecurve
            42 34 26 21 19 hhcurveto
            16 12 -6 -12 8 hvcurveto
            14 hlineto
            3 30 5 36 7 42 rrcurveto
            return
          </CharString>
          <CharString index="46">
            433 -59 callgsubr
            return
          </CharString>
          <CharString index="47">
            -3 2 4 -3 hvcurveto
            -5 return
          </CharString>
          <CharString index="48">
            -48 callsubr
            77 -142 rlineto
            26 hlineto
            return
          </CharString>
          <CharString index="49">
            rmoveto
            33 -1 29 10 24 21 rrcurveto
            24 21 12 26 33 vvcurveto
            43 -32 37 -49 -67 -41 -32 -63 -13 vhcurveto
            -1 -7 -1 -7 -7 vvcurveto
            -44 31 -29 51 -1 vhcurveto
            85 109 rmoveto
            -44 -35 -35 -44 -28 -24 22 29 40 return
          </CharString>
          <CharString index="50">
            240 rmoveto
            -17 -67 -33 -53 -47 -37 -16 171 callgsubr
            -29 -9 -23 -5 -19 -1 -153 -3 rcurveline
            15 callsubr
            95 hlineto
            7 31 rlineto
            -282 29 callsubr
            551 172 callgsubr
            return
          </CharString>
          <CharString index="51">
            191 callgsubr
            -19 -12 -6 -13 -6 vhcurveto
            -93 -202 27 -6 123 158 rlineto
            9 11 4 11 12 vvcurveto
            -147 hmoveto
            23 -11 12 -22 -19 -12 -6 -13 -6 vhcurveto
            -94 -202 27 -4 124 156 rlineto
            9 11 4 11 12 vvcurveto
            endchar
          </CharString>
          <CharString index="52">
            29 -37 -43 15 -50 hhcurveto
            -141 -96 -97 -194 -51 hvcurveto
            -26 -99 -13 -93 -87 vvcurveto
            -83 16 -45 32 -9 vhcurveto
            -1 5 6 -1 6 hhcurveto
            27 17 10 20 7 hvcurveto
            1 4 1 4 5 vvcurveto
            9 -6 13 -12 19 vhcurveto
            -16 24 -11 21 -7 19 rrcurveto
            -12 34 -6 40 46 vvcurveto
            31 3 35 5 37 vhcurveto
            8 -47 21 -37 34 -28 31 -25 35 -12 40 -1 69 -1 61 20 53 40 53 41 35 55 17 69 rrcurveto
            -117 -49 rmoveto
            -95 -51 -57 -47 -64 hhcurveto
            -10 -10 1 3 -11 hvcurveto
            return
          </CharString>
          <CharString index="53">
            7 9 1 2 13 hvcurveto
            1 11 9 1 8 hhcurveto
            -3 23 -1 -2 50 hvcurveto
            6 29 -32 3 -19 8 -6 15 rlinecurve
            -146 278 59 5 52 17 43 31 rlinecurve
            46 33 29 42 11 52 rrcurveto
            -103 2 rmoveto
            -105 -19 -71 -53 -121 hhcurveto
            -87 hlineto
            65 303 rlineto
            107 hlineto
            87 43 -36 -72 -12 -1 -12 -3 -13 hvcurveto
            return
          </CharString>
          <CharString index="54">
            rrcurveto
            -63 callsubr
            return
          </CharString>
          <CharString index="55">
            -1 4 31 callsubr
            return
          </CharString>
          <CharString index="56">
            22 callgsubr
            -39 5 rrcurveto
            6 -39 199 callgsubr
            -68 -39 -28 -56 -11 hvcurveto
            19 hlineto
            5 17 15 11 27 5 11 2 27 -2 43 -6 rrcurveto
            -7 49 36 -3 21 hhcurveto
            15 12 1 2 10 hvcurveto
            return
          </CharString>
          <CharString index="57">
            43 -25 124 callsubr
            -24 -23 vvcurveto
            -18 11 -10 22 95 callgsubr
            9 -4 5 -9 -13 vvcurveto
            -10 -2 -9 -4 -8 vhcurveto
            -16 -32 -28 142 callgsubr
            26 131 callsubr
            endchar
          </CharString>
          <CharString index="58">
            rmoveto
            23 4 -14 22 -27 hhcurveto
            -32 -26 -27 -33 -23 13 -11 25 31 19 16 33 7 hvcurveto
            endchar
          </CharString>
          <CharString index="59">
            51 callgsubr
            -24 -19 -16 -23 85 callgsubr
            hvcurveto
            return
          </CharString>
          <CharString index="60">
            301 427 rmoveto
            -4 -36 -36 -2 -35 hhcurveto
            15 87 15 63 14 41 -11 15 rcurveline
            -23 -14 -26 -12 -27 -9 -24 -165 rcurveline
            -37 -19 -29 -12 -19 -5 -2 -13 rcurveline
            81 hlineto
            -54 -274 rlineto
            -9 -44 -4 -25 -5 vvcurveto
            181 callsubr
            13 17 5 10 21 vhcurveto
            31 15 46 39 45 36 -10 17 rcurveline
            -43 -30 rlineto
            -19 -28 -20 -10 -11 hhcurveto
            -9 -4 7 13 7 1 13 3 19 hvcurveto
            5 32 16 88 29 145 rrcurveto
            104 hlineto
            return
          </CharString>
          <CharString index="61">
            12 -39 -29 6 -20 hhcurveto
            -56 -33 -40 -57 -1 hvcurveto
            17 hlineto
            23 3 26 18 24 hhcurveto
            18 28 -7 -13 37 hvcurveto
            return
          </CharString>
          <CharString index="62">
            -9 -42 -5 -34 -25 vvcurveto
            -60 27 -32 53 -5 vhcurveto
            35 -3 30 16 25 37 rrcurveto
            7 118 callsubr
            vvcurveto
            36 -9 20 -18 3 vhcurveto
            -53 -19 -35 -31 -32 hhcurveto
            -7 -7 1 3 -5 hvcurveto
            -15 7 -5 15 6 22 10 35 26 62 42 88 38 78 20 50 2 22 rrcurveto
            endchar
          </CharString>
          <CharString index="63">
            409 468 rmoveto
            -23 -23 rlineto
            -9 -9 -11 -4 -13 hhcurveto
            -39 -43 7 13 -47 hvcurveto
            11 -38 -26 5 -13 hhcurveto
            -19 -20 -3 -7 -21 hvcurveto
            -31 -119 rlineto
            20 hlineto
            29 57 23 7 28 0 31 -7 rlinecurve
            -7 31 25 -3 19 hhcurveto
            35 29 6 13 23 hvcurveto
            2 -1 return
          </CharString>
          <CharString index="64">
            342 -21 283 -20 hstem
            327 386 rmoveto
            -15 -10 rlineto
            -11 -17 -12 -6 -6 hhcurveto
            -5 -2 4 8 4 1 7 3 12 hvcurveto
            35 147 rlineto
            4 18 2 14 11 vvcurveto
            14 -6 6 -13 -22 -27 -14 -28 -35 vhcurveto
            -23 -19 -25 -29 -29 -41 rrcurveto
            -2 hlineto
            21 89 rlineto
            2 9 1 8 6 vvcurveto
            13 -5 6 -9 -12 -25 -14 -28 -39 vhcurveto
            -16 -12 4 -12 16 11 rlineto
            11 17 11 5 2 hhcurveto
            6 4 -5 -9 -14 -3 -21 -6 -29 hvcurveto
            -14 -66 -12 -53 -12 -40 4 -7 rcurveline
            16 5 14 4 10 1 7 51 11 40 15 29 20 43 26 32 31 21 rrcurveto
            12 17 14 6 9 hhcurveto
            6 3 -5 -9 -10 -2 -13 -4 -18 hvcurveto
            -30 -122 rlineto
            -5 -20 -2 -15 -9 vvcurveto
            -15 5 -8 12 7 9 4 8 13 vhcurveto
            16 8 20 15 27 19 rrcurveto
            endchar
          </CharString>
          <CharString index="65">
            -90 callsubr
            endchar
          </CharString>
          <CharString index="66">
            -46 -18 -35 -23 -52 hhcurveto
            -47 -39 26 43 -16 hvcurveto
            -14 -4 rlineto
            -61 7 45 -41 63 hhcurveto
            63 49 41 63 8 hvcurveto
            endchar
          </CharString>
          <CharString index="67">
            -20 -81 callsubr
            return
          </CharString>
          <CharString index="68">
            0 -32 callgsubr
            return
          </CharString>
          <CharString index="69">
            -10 callgsubr
            -26 -21 vvcurveto
            -18 11 -10 21 95 callgsubr
            10 49 callsubr
            -5 -9 vhcurveto
            -16 -32 -27 -22 -39 -23 callgsubr
            19 18 20 10 23 rrcurveto
            return
          </CharString>
          <CharString index="70">
            rmoveto
            -11 -26 -16 -14 -23 -3 -13 -2 -27 5 -41 12 rrcurveto
            return
          </CharString>
          <CharString index="71">
            0 callgsubr
            -12 -2 -18 -1 -25 1 -5 -17 rcurveline
            22 15 -1 -1 9 hvcurveto
            return
          </CharString>
          <CharString index="72">
            7 callsubr
            26 hvcurveto
            26 return
          </CharString>
          <CharString index="73">
            0 32 303 34 289 32 return
          </CharString>
          <CharString index="74">
            rmoveto
            38 hlineto
            450 700 -3 5 rlineto
            -39 hlineto
            -449 -700 rlineto
            return
          </CharString>
          <CharString index="75">
            430 455 rmoveto
            6 -17 -16 3 -17 hhcurveto
            -63 -86 -80 -160 -111 hvcurveto
            -2 2 103 470 -12 11 -25 -13 -26 -10 -25 -6 rlinecurve
            -23 -6 -26 -4 -30 -2 -3 -24 rcurveline
            43 1 30 3 16 7 -59 -314 rcurveline
            -33 -151 -26 -114 -20 -77 8 -10 rcurveline
            65 17 23 120 10 49 22 41 33 33 rlinecurve
            37 -111 29 -75 21 -39 rrcurveto
            -23 13 12 -12 11 hhcurveto
            11 26 14 29 41 hvcurveto
            44 31 -8 18 -41 -23 rlineto
            -7 -11 -10 -3 -8 hhcurveto
            -8 -8 8 15 -9 hvcurveto
            -30 54 -31 78 -32 102 14 13 rcurveline
            55 60 51 28 41 hhcurveto
            12 12 -2 -3 11 hvcurveto
            return
          </CharString>
          <CharString index="76">
            -21 callgsubr
            23 12 25 21 vhcurveto
            return
          </CharString>
          <CharString index="77">
            29 19 21 14 21 hhcurveto
            8 14 -4 -9 20 hvcurveto
            34 -15 rlineto
            return
          </CharString>
          <CharString index="78">
            rmoveto
            -17 -80 rlineto
            15 hlineto
            3 11 4 11 5 9 rrcurveto
            5 3 8 3 15 hhcurveto
            125 hlineto
            -31 -54 -30 -47 -27 -44 -42 -60 -29 -43 -18 -23 rrcurveto
            -2 -5 -2 -5 -7 vvcurveto
            -15 11 -6 14 14 12 8 15 8 vhcurveto
            21 43 16 38 14 29 30 64 35 67 42 71 3 15 rcurveline
            return
          </CharString>
          <CharString index="79">
            19 callsubr
            -67 -47 -42 -60 -6 0 -6 1 -6 hvcurveto
            3 -21 13 -18 23 -15 23 -15 24 -6 23 2 -1 17 rcurveline
            -18 19 callgsubr
            -10 10 -5 8 7 vvcurveto
            return
          </CharString>
          <CharString index="80">
            -4 callsubr
            -9 vhcurveto
            -32 -4 -21 -23 -21 vvcurveto
            42 callgsubr
            23 38 callsubr
            -40 -11 -4 -16 rcurveline
            23 24 8 17 27 60 callgsubr
            9 21 rrcurveto
            220 -152 rmoveto
            2 -1 -37 0 -75 1 -101 -169 rcurveline
            6 49 -1 35 -7 22 -15 46 -34 25 -53 3 -63 4 -57 -21 -51 -45 -41 -36 -32 -46 -23 -56 rrcurveto
            -19 -45 -9 -42 -37 vvcurveto
            -51 17 -40 34 -29 vhcurveto
            -25 29 32 -12 36 hhcurveto
            return
          </CharString>
          <CharString index="81">
            512 rmoveto
            3 13 1 13 12 vvcurveto
            43 -17 34 -35 24 vhcurveto
            26 -37 -54 13 -71 hhcurveto
            -308 29 callsubr
            283 hlineto
            7 31 rlineto
            -94 hlineto
            62 297 rlineto
            68 hlineto
            17 -21 10 -15 4 -9 109 -234 rcurveline
            return
          </CharString>
          <CharString index="82">
            9 -21 -20 5 -17 hhcurveto
            -43 -37 -32 -63 -30 hvcurveto
            28 hlineto
            return
          </CharString>
          <CharString index="83">
            19 -32 -35 10 -37 hhcurveto
            -55 -46 -19 -39 -39 hvcurveto
            -39 -39 -19 -46 -55 vvcurveto
            -67 25 -53 49 -38 vhcurveto
            -12 -17 -12 -16 -11 -16 2 -3 9 -7 15 -12 38 53 rcurveline
            -15 29 31 -7 35 hhcurveto
            56 47 19 37 38 hvcurveto
            39 37 19 48 57 vvcurveto
            -122 131 rmoveto
            -75 -109 -57 -81 -37 -54 rrcurveto
            -17 30 -9 38 45 vvcurveto
            46 11 39 22 33 vhcurveto
            33 22 28 17 35 hhcurveto
            30 26 -12 -25 21 hvcurveto
            41 -131 rmoveto
            -103 -45 -65 -73 -28 -24 9 18 -19 vhcurveto
            168 241 rlineto
            14 -29 7 -34 -37 vvcurveto
            return
          </CharString>
          <CharString index="84">
            rmoveto
            3 12 2 11 11 vvcurveto
            47 -33 30 -53 -36 -31 -12 -23 -26 vhcurveto
            -23 -20 -12 -20 1 -21 rrcurveto
            -16 9 -8 17 5 6 1 2 6 vhcurveto
            13 3 6 7 10 vvcurveto
            return
          </CharString>
          <CharString index="85">
            657 341 rmoveto
            9 143 callgsubr
            157 -88 94 -152 -89 -81 -32 -64 -71 vhcurveto
            -75 -67 -48 -88 -20 -110 rrcurveto
            -5 -29 -3 -27 -27 vvcurveto
            -81 22 -67 43 -52 vhcurveto
            -52 43 58 -26 72 hhcurveto
            90 79 30 61 67 hvcurveto
            70 63 48 88 26 113 rrcurveto
            -112 2 rmoveto
            -21 -96 -31 -77 -42 -57 rrcurveto
            -62 -47 -55 -31 -63 hhcurveto
            -97 -49 58 117 42 6 51 13 59 hvcurveto
            220 47 88 110 130 hhcurveto
            93 46 -61 -123 -43 -6 -50 -12 -57 hvcurveto
            return
          </CharString>
          <CharString index="86">
            -45 37 -33 44 56 56 35 71 56 vhcurveto
            41 51 32 65 25 78 136 427 rcurveline
            return
          </CharString>
          <CharString index="87">
            rmoveto
            49 43 29 56 33 hvcurveto
            28 49 14 52 55 vvcurveto
            73 -34 47 -57 -43 -35 -18 -37 -29 vhcurveto
            -24 -31 -18 -42 -11 -53 rrcurveto
            -3 -18 -2 -18 -17 vvcurveto
            -36 7 -30 15 -23 vhcurveto
            -26 17 22 -12 28 hhcurveto
            110 180 rmoveto
            -7 -29 -11 -31 -16 -30 -24 -48 -25 -25 -26 -3 rrcurveto
            -31 -2 -15 26 55 vvcurveto
            24 3 30 6 33 vhcurveto
            6 30 10 32 16 30 22 49 26 25 29 1 rrcurveto
            32 1 16 -26 -53 vvcurveto
            -27 -3 -29 -8 -33 vhcurveto
            endchar
          </CharString>
          <CharString index="88">
            97 83 54 107 68 hvcurveto
            2 -51 4 -37 7 -22 rrcurveto
            -34 10 18 -17 27 hhcurveto
            27 24 17 33 21 hvcurveto
            18 29 8 27 -2 24 rrcurveto
            -82 callsubr
            return
          </CharString>
          <CharString index="89">
            45 callsubr
            -19 -10 -11 hhcurveto
            -9 -4 7 13 return
          </CharString>
          <CharString index="90">
            274 -654 rlineto
            23 hlineto
            128 590 7 33 15 26 21 17 rlinecurve
            7 8 23 26 callsubr
            return
          </CharString>
          <CharString index="91">
            -69 30 -35 59 39 36 12 24 32 vhcurveto
            33 24 16 35 47 vvcurveto
            25 -7 20 -13 15 vhcurveto
            -17 20 -27 7 -36 -5 -43 -7 -30 -23 -19 -40 7 37 14 38 21 39 25 47 28 26 30 6 rrcurveto
            1 5 4 1 4 hhcurveto
            24 9 -19 -17 -4 hvcurveto
            -6 -12 -5 -7 -4 -3 rrcurveto
            -1 -2 0 -2 -2 vvcurveto
            -13 9 -5 19 2 vhcurveto
            20 2 11 11 2 21 rrcurveto
            -76 -196 rmoveto
            -15 -55 -39 -38 -41 1 rrcurveto
            return
          </CharString>
          <CharString index="92">
            18 callgsubr
            24 19 11 59 callsubr
            5 hvcurveto
            return
          </CharString>
          <CharString index="93">
            27 -15 -31 13 hvcurveto
            11 -24 2 -35 -6 -45 rrcurveto
            endchar
          </CharString>
          <CharString index="94">
            94 -10 callsubr
            return
          </CharString>
          <CharString index="95">
            rmoveto
            122 callgsubr
            27 vhcurveto
            29 -23 -33 14 -43 -102 callgsubr
            return
          </CharString>
          <CharString index="96">
            81 rlinecurve
            75 hlineto
            -33 callgsubr
            -268 145 callsubr
            81 hlineto
            160 -321 -224 -228 -33 -30 -26 -20 -20 -10 rlinecurve
            -11 -22 -29 -5 -36 hhcurveto
            -3 -34 rlineto
            238 hlineto
            7 31 rlineto
            -21 -11 0 1 -2 hvcurveto
            -11 1 -9 5 -9 9 rrcurveto
            -3 3 -1 3 3 vvcurveto
            12 11 16 23 21 vhcurveto
            133 136 66 67 -1 vvcurveto
            142 -276 rlineto
            -83 hlineto
            -53 callgsubr
            return
          </CharString>
          <CharString index="97">
            rmoveto
            -25 -17 rlineto
            -17 -25 -20 -9 -14 hhcurveto
            -9 -4 6 11 6 2 13 4 20 hvcurveto
            return
          </CharString>
          <CharString index="98">
            -192 -101 callsubr
            -30 15 -15 31 27 23 23 callsubr
            return
          </CharString>
          <CharString index="99">
            -45 12 -23 39 67 vvcurveto
            45 10 43 20 40 vhcurveto
            25 49 29 40 32 30 rrcurveto
            35 37 38 17 37 hhcurveto
            10 10 -1 -3 10 hvcurveto
            39 -10 20 -35 -59 vvcurveto
            -57 -15 -57 -31 -57 vhcurveto
            endchar
          </CharString>
          <CharString index="100">
            rmoveto
            -4 6 -1 6 1 6 1 7 16 15 29 24 30 25 17 20 3 16 rrcurveto
            1 5 0 5 5 vvcurveto
            31 -19 16 -37 -17 -16 -4 -9 -15 vhcurveto
            -17 -9 -12 -11 -7 -14 -1 -1 7 -6 15 -9 10 13 11 8 13 2 rrcurveto
            hintmask 11110100
            88 callgsubr
          </CharString>
          <CharString index="101">
            rmoveto
            -308 hlineto
            -11 -51 173 callsubr
            endchar
          </CharString>
          <CharString index="102">
            hhcurveto
            4 20 179 callsubr
            15 15 25 vvcurveto
            22 -13 11 -26 1 vhcurveto
            return
          </CharString>
          <CharString index="103">
            63 callgsubr
            -8 -1 -1 return
          </CharString>
          <CharString index="104">
            -18 22 callsubr
            20 return
          </CharString>
          <CharString index="105">
            4 callsubr
            -7 -31 return
          </CharString>
          <CharString index="106">
            191 callgsubr
            -17 -12 -6 -13 -7 vhcurveto
            -97 -182 21 -4 133 136 rlineto
            8 9 4 11 14 vvcurveto
            endchar
          </CharString>
          <CharString index="107">
            rmoveto
            -20 -25 -28 -26 -100 callgsubr
            hintmask 01110100
            -4 return
          </CharString>
          <CharString index="108">
            -18 11 -10 171 callsubr
            19 30 callgsubr
            3 hvcurveto
            return
          </CharString>
          <CharString index="109">
            269 rmoveto
            10 41 5 39 39 vvcurveto
            77 -19 65 -38 52 vhcurveto
            -41 57 -58 35 -77 14 rrcurveto
            5 -25 -25 2 -23 hhcurveto
            -156 -111 -103 -195 -48 hvcurveto
            -9 -37 -5 -35 -35 vvcurveto
            -82 23 -71 46 -61 vhcurveto
            43 -55 52 -35 61 -13 rrcurveto
            -4 19 20 -2 19 hhcurveto
            77 70 29 57 63 hvcurveto
            63 57 43 72 21 87 rrcurveto
            return
          </CharString>
          <CharString index="110">
            -2 callsubr
            rlineto
            return
          </CharString>
          <CharString index="111">
            -7 -31 rlineto
            94 hlineto
            -133 111 callgsubr
            return
          </CharString>
          <CharString index="112">
            rmoveto
            21 98 -51 -18 -17 -80 rlineto
            -106 hlineto
            64 77 57 69 52 60 rrcurveto
            9 12 6 10 8 vvcurveto
            10 -15 12 -12 -12 -11 -11 -20 -14 vhcurveto
            -145 -228 rlineto
            hintmask 01100000
            -4 -19 rlineto
            127 hlineto
            -13 -62 rlineto
            -48 hlineto
            hintmask 10100000
            -3 -16 rlineto
            142 hlineto
            2 16 rlineto
            -46 hlineto
            13 62 rlineto
            48 hlineto
            3 20 rlineto
            endchar
          </CharString>
          <CharString index="113">
            -27 15 -14 29 43 26 25 49 11 vhcurveto
            return
          </CharString>
          <CharString index="114">
            -18 rcurveline
            22 24 9 18 return
          </CharString>
          <CharString index="115">
            39 11 26 33 15 55 rrcurveto
            return
          </CharString>
          <CharString index="116">
            -9 37 29 -4 23 hhcurveto
            8 16 3 7 23 hvcurveto
            9 52 10 46 10 41 rrcurveto
            -21 hlineto
            -22 -58 rlineto
            -17 -6 -13 -8 -20 hhcurveto
            -11 -16 2 5 -19 hvcurveto
            return
          </CharString>
          <CharString index="117">
            -53 callgsubr
            94 hlineto
            return
          </CharString>
          <CharString index="118">
            -11 -17 -12 -6 -8 hhcurveto
            -9 -5 7 15 9 3 18 5 25 hvcurveto
            122 569 rlineto
            -142 -360 rmoveto
            -19 -91 -41 -75 -65 -61 rrcurveto
            -37 -40 -30 -19 -19 hhcurveto
            -18 -9 15 29 52 9 58 17 64 hvcurveto
            19 69 22 44 25 17 rrcurveto
            10 14 19 5 25 hhcurveto
            41 34 -7 -15 28 hvcurveto
            return
          </CharString>
          <CharString index="119">
            -41 -101 -20 -76 -51 vvcurveto
            -29 15 -15 31 28 28 18 21 -4 vhcurveto
            -3 17 -1 18 19 vvcurveto
            -62 callgsubr
            return
          </CharString>
          <CharString index="120">
            -5 11 13 -2 16 hhcurveto
            21 21 5 9 25 hvcurveto
            22 10 17 11 13 14 rrcurveto
            return
          </CharString>
          <CharString index="121">
            rlinecurve
            81 34 40 48 61 vvcurveto
            return
          </CharString>
          <CharString index="122">
            61 callgsubr
            rlineto
            return
          </CharString>
          <CharString index="123">
            -6 35 26 -3 17 hhcurveto
            11 10 1 3 8 hvcurveto
            return
          </CharString>
          <CharString index="124">
            rmoveto
            -20 -81 -29 -66 -37 -50 rrcurveto
            -59 -43 -51 -30 -57 hhcurveto
            -12 -12 1 3 -13 hvcurveto
            -90 20 -45 68 116 vvcurveto
            46 7 53 15 61 vhcurveto
            19 79 28 65 37 49 rrcurveto
            59 44 51 29 59 hhcurveto
            11 12 -1 -2 12 hvcurveto
            89 -17 45 -71 -123 vvcurveto
            -45 -7 -49 -13 -55 vhcurveto
            return
          </CharString>
          <CharString index="125">
            78 46 callgsubr
            90 callgsubr
            15 7 113 callgsubr
            21 return
          </CharString>
          <CharString index="126">
            1 -6 -6 0 -6 hhcurveto
            return
          </CharString>
          <CharString index="127">
            81 callgsubr
            123 hlineto
            49 31 -46 -80 -20 hvcurveto
            31 hlineto
            60 278 rlineto
            -31 hlineto
            -87 -21 -33 -31 -59 80 callsubr
            62 290 172 -84 callsubr
            41 203 rlineto
            return
          </CharString>
          <CharString index="128">
            20 -15 17 -20 -29 -27 -32 -31 -28 13 -14 26 31 21 28 40 vhcurveto
            return
          </CharString>
          <CharString index="129">
            11 -10 64 callsubr
            21 return
          </CharString>
          <CharString index="130">
            12 25 20 vhcurveto
            return
          </CharString>
          <CharString index="131">
            rmoveto
            -96 -113 -93 -129 -18 hvcurveto
            -107 -15 67 -55 84 hhcurveto
            96 118 84 136 19 hvcurveto
            80 11 -35 84 -118 hhcurveto
            84 -167 rmoveto
            -100 -14 -72 -76 -79 hhcurveto
            -70 -29 49 77 10 hvcurveto
            94 13 75 84 72 hhcurveto
            81 22 -66 -62 -9 hvcurveto
            return
          </CharString>
          <CharString index="132">
            -63 -39 -28 -56 -14 hvcurveto
            20 hlineto
            7 19 16 10 25 3 11 2 27 -3 44 -7 rrcurveto
            -8 50 36 -4 22 hhcurveto
            13 12 1 2 9 105 callsubr
            17 vvcurveto
            return
          </CharString>
          <CharString index="133">
            3 39 97 callgsubr
            return
          </CharString>
          <CharString index="134">
            37 callsubr
            23 20 12 7 hhcurveto
            3 4 -1 -52 callsubr
            -8 -12 vvcurveto
            -9 -2 -8 -5 -8 vhcurveto
            -19 -31 -28 -21 -37 -11 -3 -17 rcurveline
            23 24 9 17 26 60 callgsubr
            10 22 rrcurveto
            131 95 rmoveto
            return
          </CharString>
          <CharString index="135">
            15 45 7 39 32 vvcurveto
            -70 -2 rmoveto
            -60 -14 -63 -29 -66 vhcurveto
            -81 -36 -45 -41 -53 hhcurveto
            -33 -28 7 15 -22 hvcurveto
            18 103 9 47 18 45 27 43 rlinecurve
            29 46 34 34 39 23 rrcurveto
            9 15 18 4 20 hhcurveto
            22 11 -22 -43 hvcurveto
            endchar
          </CharString>
          <CharString index="136">
            hlineto
            3 callsubr
            return
          </CharString>
          <CharString index="137">
            31 315 35 278 31 return
          </CharString>
          <CharString index="138">
            hvcurveto
            9 -4 5 return
          </CharString>
          <CharString index="139">
            91 callgsubr
            -29 -28 -27 -28 -25 12 -12 25 hvcurveto
            283 224 -37 callsubr
            return
          </CharString>
          <CharString index="140">
            -173 rmoveto
            9 -3 5 -6 2 vhcurveto
            -10 -13 -15 -5 -18 hhcurveto
            -37 -18 19 37 39 28 45 55 52 hvcurveto
            -38 hlineto
            -73 -59 -36 -54 -50 vvcurveto
            -21 6 -18 13 -14 vhcurveto
            -17 15 22 -8 27 hhcurveto
            37 31 16 32 23 hvcurveto
            endchar
          </CharString>
          <CharString index="141">
            rmoveto
            120 76 66 102 128 vvcurveto
            54 -15 45 -34 47 vhcurveto
            -21 30 -21 23 -25 17 rrcurveto
            -4 hlineto
            -12 -11 rlineto
            -3 vlineto
            50 -50 25 -64 -76 vvcurveto
            -127 -48 -96 -96 -83 vhcurveto
            1 -3 10 -9 rlineto
            4 hlineto
            endchar
          </CharString>
          <CharString index="142">
            173 callgsubr
            -18 201 callgsubr
            -9 vhcurveto
            -136 -182 return
          </CharString>
          <CharString index="143">
            -35 -48 vvcurveto
            -10 2 -10 4 -10 vhcurveto
            -27 11 return
          </CharString>
          <CharString index="144">
            -17 11 -9 21 -1 vhcurveto
            -1 return
          </CharString>
          <CharString index="145">
            20 11 5 hhcurveto
            3 4 -1 -52 callsubr
            -8 -13 vvcurveto
            -9 -2 -8 -4 -7 vhcurveto
            -15 -30 -28 -21 return
          </CharString>
          <CharString index="146">
            16 callgsubr
            -9 11 -4 9 -1 9 return
          </CharString>
          <CharString index="147">
            181 callsubr
            11 16 6 13 return
          </CharString>
          <CharString index="148">
            rmoveto
            -7 -19 -19 -10 -29 -1 rrcurveto
            -11 -25 3 7 -41 hvcurveto
            return
          </CharString>
          <CharString index="149">
            112 callsubr
            vhcurveto
            hintmask 11011000
            115 callsubr
          </CharString>
          <CharString index="150">
            rmoveto
            -52 59 -22 57 74 vvcurveto
            120 46 114 97 72 vhcurveto
            1 3 -10 11 rlineto
            -3 hlineto
            -114 -66 -74 -116 -124 vvcurveto
            -87 38 -72 74 -57 vhcurveto
            4 hlineto
            14 9 1 3 rlineto
            endchar
          </CharString>
          <CharString index="151">
            65 callsubr
            hintmask 11010000
            83 callsubr
          </CharString>
          <CharString index="152">
            rmoveto
            -25 -17 rlineto
            -19 -29 return
          </CharString>
          <CharString index="153">
            99 454 112 return
          </CharString>
          <CharString index="154">
            54 40 33 67 25 hvcurveto
            endchar
          </CharString>
          <CharString index="155">
            -13 11 -6 14 19 vvcurveto
            17 12 21 17 -1 7 -2 -4 17 vhcurveto
            11 -2 11 2 11 5 rrcurveto
            return
          </CharString>
          <CharString index="156">
            -4 5 -9 -13 vvcurveto
            -9 -2 -9 return
          </CharString>
          <CharString index="157">
            2 9 1 9 7 vvcurveto
            return
          </CharString>
          <CharString index="158">
            3 -15 9 -12 15 -9 return
          </CharString>
          <CharString index="159">
            616 -10 callgsubr
            return
          </CharString>
          <CharString index="160">
            22 -15 23 39 callsubr
            -7 27 7 20 19 11 165 callsubr
            return
          </CharString>
          <CharString index="161">
            -64 108 callgsubr
            17 16 11 25 4 93 callgsubr
            return
          </CharString>
          <CharString index="162">
            144 callsubr
            64 -46 34 -63 -9 vhcurveto
            -31 -5 -24 -12 -18 -20 31 118 rcurveline
            return
          </CharString>
          <CharString index="163">
            -17 rcurveline
            21 1 22 8 24 16 24 16 16 17 7 18 rrcurveto
            return
          </CharString>
          <CharString index="164">
            149 callsubr
            278 31 return
          </CharString>
          <CharString index="165">
            27 callgsubr
            84 44 callgsubr
            return
          </CharString>
          <CharString index="166">
            5 hhcurveto
            3 3 -1 -1 return
          </CharString>
          <CharString index="167">
            rmoveto
            2 9 1 10 10 vvcurveto
            49 -21 24 -41 -43 -34 -32 -43 -22 15 -13 30 -4 vhcurveto
            3 29 12 1 -7 hhcurveto
            9 4 -5 -11 -3 hvcurveto
            -4 -17 -14 -21 -25 return
          </CharString>
          <CharString index="168">
            -92 callsubr
            endchar
          </CharString>
          <CharString index="169">
            5 8 2 20 -6 32 -13 rrcurveto
            -14 36 27 -7 19 hhcurveto
            10 9 2 3 8 hvcurveto
            return
          </CharString>
          <CharString index="170">
            -16 34 657 31 return
          </CharString>
          <CharString index="171">
            22 -1 vhcurveto
            -1 return
          </CharString>
          <CharString index="172">
            12 callgsubr
            50 callsubr
            return
          </CharString>
          <CharString index="173">
            95 -52 52 5 -20 hstemhm
            return
          </CharString>
          <CharString index="174">
            hvcurveto
            31 -17 15 -17 -2 return
          </CharString>
          <CharString index="175">
            -2 -8 -1 -7 -6 vvcurveto
            -34 16 -17 33 37 30 28 37 25 -16 13 -33 1 vhcurveto
            -11 -5 5 9 2 hvcurveto
            5 26 30 17 54 9 rrcurveto
            endchar
          </CharString>
          <CharString index="176">
            rmoveto
            13 -5 -11 7 -17 hhcurveto
            -9 -9 141 callsubr
            return
          </CharString>
          <CharString index="177">
            -4 -19 -13 -10 -23 -1 rrcurveto
            return
          </CharString>
          <CharString index="178">
            41 -26 21 -51 return
          </CharString>
          <CharString index="179">
            -32 1 -16 20 41 vvcurveto
            9 1 10 2 11 vhcurveto
            5 25 12 23 19 20 rrcurveto
            21 19 19 10 18 hhcurveto
            48 13 -44 -55 -13 hvcurveto
            endchar
          </CharString>
          <CharString index="180">
            36 9 26 9 17 9 28 15 16 return
          </CharString>
          <CharString index="181">
            0 30 callsubr
            return
          </CharString>
          <CharString index="182">
            -9 -32 -4 -25 -17 vvcurveto
            return
          </CharString>
          <CharString index="183">
            -10 22 18 -5 15 hhcurveto
            return
          </CharString>
          <CharString index="184">
            63 240 rlineto
            -32 hlineto
            -17 -67 -33 -53 -47 -37 -16 171 callgsubr
            rrcurveto
            -10 -29 -23 -5 -19 hhcurveto
            -188 -3 81 callgsubr
            return
          </CharString>
          <CharString index="185">
            rmoveto
            40 4 -24 20 -51 hhcurveto
            -7 -7 -1 -1 -8 hvcurveto
            -45 -5 -39 -27 -33 -47 -27 -39 -17 -44 -7 -50 rrcurveto
            -3 -16 -1 -15 -14 vvcurveto
            return
          </CharString>
          <CharString index="186">
            146 callgsubr
            -11 -17 vvcurveto
            -7 2 -6 3 -5 vhcurveto
            77 46 callgsubr
            return
          </CharString>
          <CharString index="187">
            hhcurveto
            -123 hlineto
            return
          </CharString>
          <CharString index="188">
            -1 -14 3 -17 6 -17 5 -13 2 -7 -1 -29 -5 -15 -13 -3 -21 rrcurveto
            -35 -5 18 -18 41 hhcurveto
            9 9 1 2 9 hvcurveto
            return
          </CharString>
          <CharString index="189">
            59 278 rlineto
            return
          </CharString>
          <CharString index="190">
            37 -18 19 -36 -43 -32 -32 -41 115 callsubr
          </CharString>
          <CharString index="191">
            hlineto
            100 callsubr
            -93 hlineto
            -7 -31 rlineto
            return
          </CharString>
          <CharString index="192">
            -31 rlineto
            93 hlineto
            return
          </CharString>
          <CharString index="193">
            -138 -274 41 216 76 return
          </CharString>
          <CharString index="194">
            rrcurveto
            9 4 10 -13 -13 vvcurveto
            1 -3 -13 -5 -25 vhcurveto
            -51 -241 rlineto
            -8 -38 -4 -22 -7 vvcurveto
            -30 11 -15 23 return
          </CharString>
          <CharString index="195">
            -20 135 callsubr
            return
          </CharString>
          <CharString index="196">
            -9 -21 3 7 -33 hvcurveto
            return
          </CharString>
          <CharString index="197">
            rmoveto
            9 19 4 return
          </CharString>
          <CharString index="198">
            324 540 rmoveto
            28 29 28 28 25 -12 12 -25 -28 -28 -28 -28 -25 12 -12 24 hvcurveto
            -17 161 rmoveto
            return
          </CharString>
          <CharString index="199">
            rmoveto
            5 27 3 25 23 vvcurveto
            61 -20 45 -39 29 vhcurveto
            -36 27 -50 11 -64 -4 -65 -4 -57 -23 -48 -42 return
          </CharString>
          <CharString index="200">
            24 3 12 -8 -20 vvcurveto
            -13 -11 -18 -22 -21 vhcurveto
            -22 -21 -12 -16 -3 -11 -3 -15 5 -9 14 -5 rrcurveto
            return
          </CharString>
          <CharString index="201">
            rmoveto
            -11 -25 -17 -15 -23 -3 -13 -2 -27 5 -41 12 rrcurveto
            return
          </CharString>
          <CharString index="202">
            hvcurveto
            65 32 47 37 28 42 19 29 17 37 15 45 rrcurveto
            return
          </CharString>
          <CharString index="203">
            -20 hstemhm
            40 78 return
          </CharString>
          <CharString index="204">
            23 1 15 11 27 hhcurveto
            9 21 -3 -7 35 hvcurveto
            16 callsubr
            return
          </CharString>
          <CharString index="205">
            vhcurveto
            -27 -17 -7 19 27 20 rlineto
            48 65 42 24 21 hhcurveto
            16 8 -11 -21 -11 -2 -13 -4 -16 hvcurveto
            return
          </CharString>
          <CharString index="206">
            rlineto
            -94 -67 callgsubr
            134 628 rlineto
            94 hlineto
            5 31 rlineto
            return
          </CharString>
          <CharString index="207">
            10 callsubr
            -134 -628 rlineto
            return
          </CharString>
          <CharString index="208">
            87 rrcurveto
            -112 24 rmoveto
            return
          </CharString>
          <CharString index="209">
            27 callgsubr
            84 83 return
          </CharString>
          <CharString index="210">
            11 callgsubr
            hstem
            return
          </CharString>
          <CharString index="211">
            92 callgsubr
            18 rcurveline
            return
          </CharString>
          <CharString index="212">
            hvcurveto
            19 4 15 188 callsubr
            1 17 rrcurveto
            -171 -177 rmoveto
            24 5 12 11 return
          </CharString>
          <CharString index="213">
            rmoveto
            -124 124 -41 -124 -124 -39 124 -124 41 124 124 hlineto
            endchar
          </CharString>
          <CharString index="214">
            rmoveto
            -555 -686 rlineto
            55 hlineto
            553 686 rlineto
            return
          </CharString>
          <CharString index="215" raw="1">
            1e7b6b70 7564800b  
          </CharString>
          <CharString index="216">
            rmoveto
            17 -5 -10 8 -14 hhcurveto
            return
          </CharString>
          <CharString index="217">
            -4 -45 -7 -42 -10 -41 rrcurveto
            return
          </CharString>
          <CharString index="218">
            93 -3 41 -19 -21 return
          </CharString>
          <CharString index="219">
            65 callsubr
            37 -18 19 -36 -43 -32 -32 -41 return
          </CharString>
          <CharString index="220">
            451 342 rmoveto
            80 -19 40 -37 -41 -45 -21 -43 -49 vhcurveto
            -44 -37 -33 -40 -22 -42 return
          </CharString>
          <CharString index="221">
            -21 259 -21 397 68 135 callsubr
            56 169 -127 94 67 45 return
          </CharString>
          <CharString index="222">
            -28 18 -15 36 -1 vhcurveto
            11 5 -6 -13 -3 hvcurveto
            -7 -31 -32 -20 -57 -9 rrcurveto
            endchar
          </CharString>
          <CharString index="223">
            31 -13 -21 331 28 303 31 return
          </CharString>
          <CharString index="224">
            -18 87 310 86 return
          </CharString>
          <CharString index="225">
            9 3 14 18 return
          </CharString>
          <CharString index="226">
            rmoveto
            -303 -200 215 -198 24 20 -132 177 207 179 rlineto
            return
          </CharString>
          <CharString index="227">
            rmoveto
            -73 3 -57 -45 -69 vvcurveto
            -5 0 -6 1 -6 vhcurveto
            3 -23 12 -19 22 -15 rrcurveto
            return
          </CharString>
          <CharString index="228">
            2 3 11 hvcurveto
            return
          </CharString>
          <CharString index="229">
            vvcurveto
            -17 6 -15 11 -12 vhcurveto
            -16 13 19 -8 25 hhcurveto
            45 56 30 33 28 hvcurveto
            return
          </CharString>
          <CharString index="230">
            423 210 52 hstem
            1051 262 rmoveto
            -1060 -52 1060 hlineto
            endchar
          </CharString>
          <CharString index="231">
            181 callgsubr
            59 callgsubr
            return
          </CharString>
          <CharString index="232">
            hvcurveto
            4 17 15 21 26 24 23 23 22 15 return
          </CharString>
          <CharString index="233">
            rrcurveto
            38 144 callsubr
            return
          </CharString>
          <CharString index="234">
            -7 -11 -13 -9 -13 -5 -11 return
          </CharString>
          <CharString index="235">
            -20 hstemhm
            12 169 return
          </CharString>
          <CharString index="236">
            67 222 126 return
          </CharString>
          <CharString index="237">
            rmoveto
            33 -16 16 -32 -33 -16 -16 -33 -32 16 -16 33 32 16 16 32 vhcurveto
            return
          </CharString>
          <CharString index="238">
            hvcurveto
            26 19 18 20 10 23 rrcurveto
            return
          </CharString>
          <CharString index="239">
            -11 66 -30 53 308 46 36 return
          </CharString>
          <CharString index="240">
            -10 rrcurveto
            -10 -28 -24 -5 -19 hhcurveto
            return
          </CharString>
          <CharString index="241">
            -51 vhcurveto
            -51 45 58 -25 return
          </CharString>
          <CharString index="242">
            hstemhm
            44 105 callgsubr
            return
          </CharString>
          <CharString index="243">
            -28 -21 32 41 275 41 -12 39 209 38 30 39 31 -20 hstemhm
            return
          </CharString>
          <CharString index="244">
            459 707 rmoveto
            -25 -13 -26 -10 -26 -6 -23 -6 -26 -4 -29 -2 return
          </CharString>
          <CharString index="245">
            13 -16 5 -14 -3 -13 -15 -70 rcurveline
            30 hlineto
            10 47 16 49 23 52 return
          </CharString>
          <CharString index="246">
            -21 9 -11 19 14 23 12 24 33 vhcurveto
            78 58 -9 19 -43 -30 rlineto
            return
          </CharString>
          <CharString index="247">
            -6 3 -5 hvcurveto
            77 -142 rlineto
            26 hlineto
            return
          </CharString>
          <CharString index="248">
            -3 -5 135 callgsubr
            -17 vvcurveto
            return
          </CharString>
          <CharString index="249">
            hstemhm
            -43 62 27 69 186 64 -45 70 return
          </CharString>
          <CharString index="250">
            -21 205 -20 hstem
            return
          </CharString>
          <CharString index="251">
            28 19 38 47 vvcurveto
            return
          </CharString>
          <CharString index="252">
            hlineto
            -5 -31 rlineto
            return
          </CharString>
          <CharString index="253">
            824 rmoveto
            -5 -26 -11 -14 -17 -3 -11 -2 -22 5 -35 12 rrcurveto
            return
          </CharString>
          <CharString index="254">
            -21 204 157 hstemhm
            100 45 -45 243 hintmask 11010000
            363 return
          </CharString>
          <CharString index="255">
            -10 -5 -5 -9 -8 5 -4 10 hvcurveto
            return
          </CharString>
          <CharString index="256">
            27 callgsubr
            84 31 315 35 return
          </CharString>
          <CharString index="257">
            15 -15 30 27 24 23 callsubr
            return
          </CharString>
          <CharString index="258">
            rmoveto
            24 5 -18 21 -24 hhcurveto
            return
          </CharString>
          <CharString index="259">
            hstemhm
            -8 56 50 69 -69 82 return
          </CharString>
          <CharString index="260">
            20 rlinecurve
            -2 11 1 10 4 return
          </CharString>
          <CharString index="261">
            69 -69 171 16 -20 hstemhm
            return
          </CharString>
          <CharString index="262">
            -228 -14 50 381 48 return
          </CharString>
          <CharString index="263">
            0 218 1 -20 hstemhm
            return
          </CharString>
          <CharString index="264">
            -75 -67 -48 -89 -20 return
          </CharString>
          <CharString index="265">
            135 -42 42 17 -20 hstemhm
            90 241 hintmask 00110000
            337 return
          </CharString>
          <CharString index="266">
            -16 -23 -7 1 140 callsubr
            return
          </CharString>
          <CharString index="267">
            rmoveto
            -7 -19 -18 -10 -29 -1 rrcurveto
            -11 -26 3 7 -39 hvcurveto
            return
          </CharString>
          <CharString index="268">
            162 30 54 -31 31 18 -20 30 -20 hstemhm
            83 116 return
          </CharString>
          <CharString index="269">
            -21 101 117 return
          </CharString>
          <CharString index="270">
            -568 -424 rmoveto
            -231 hlineto
            299 323 rlineto
            return
          </CharString>
          <CharString index="271">
            -238 154 -134 -21 260 -21 397 68 return
          </CharString>
          <CharString index="272">
            rrcurveto
            3 5 5 2 4 hhcurveto
            4 20 -12 3 20 hvcurveto
            return
          </CharString>
          <CharString index="273">
            -21 361 -20 hstem
            90 44 166 46 vstem
            179 return
          </CharString>
          <CharString index="274">
            -11 46 186 23 177 47 return
          </CharString>
          <CharString index="275">
            -20 152 callsubr
            return
          </CharString>
          <CharString index="276">
            13 -10 11 -13 13 return
          </CharString>
          <CharString index="277">
            -20 hstemhm
            93 121 return
          </CharString>
          <CharString index="278">
            21 -1 vhcurveto
            -1 23 return
          </CharString>
          <CharString index="279">
            hstemhm
            434 23 return
          </CharString>
          <CharString index="280">
            rlineto
            308 hlineto
            return
          </CharString>
          <CharString index="281">
            24 17 33 20 return
          </CharString>
          <CharString index="282">
            58 callsubr
            444 -20 return
          </CharString>
          <CharString index="283">
            11 -1 6 -5 -9 vvcurveto
            -25 -26 -19 -51 -13 vhcurveto
            return
          </CharString>
          <CharString index="284">
            105 callgsubr
            67 149 -118 94 67 45 return
          </CharString>
          <CharString index="285">
            21 -15 11 -30 -1 vhcurveto
            return
          </CharString>
          <CharString index="286">
            -12 190 callsubr
            return
          </CharString>
          <CharString index="287">
            99 429 107 return
          </CharString>
          <CharString index="288">
            -26 10 -13 20 return
          </CharString>
          <CharString index="289">
            -138 -253 -21 257 46 376 57 return
          </CharString>
          <CharString index="290">
            hlineto
            -167 79 90 callsubr
            17 15 vvcurveto
            return
          </CharString>
          <CharString index="291">
            -4 -19 rlineto
            125 hlineto
            -13 -61 rlineto
            -47 hlineto
            return
          </CharString>
          <CharString index="292">
            150 callsubr
            endchar
          </CharString>
          <CharString index="293">
            29 11 16 33 3 55 rrcurveto
            return
          </CharString>
          <CharString index="294">
            -21 24 93 -93 188 hstemhm
            return
          </CharString>
          <CharString index="295">
            10 13 17 12 15 7 16 return
          </CharString>
          <CharString index="296">
            -20 hstemhm
            27 74 235 74 return
          </CharString>
          <CharString index="297">
            3 20 hvcurveto
            29 3 return
          </CharString>
          <CharString index="298">
            4 17 12 13 rrcurveto
            return
          </CharString>
          <CharString index="299">
            -21 256 -20 hstem
            return
          </CharString>
          <CharString index="300">
            89 callgsubr
            10 -20 hstemhm
            return
          </CharString>
          <CharString index="301">
            -268 61 579 52 229 58 hstem
            return
          </CharString>
          <CharString index="302">
            184 1 -21 24 -21 203 157 return
          </CharString>
          <CharString index="303">
            23 -13 11 -27 -33 -19 -15 -31 -7 vhcurveto
            return
          </CharString>
          <CharString index="304">
            15 hvcurveto
            16 14 8 14 15 vvcurveto
            19 -10 return
          </CharString>
          <CharString index="305">
            24 5 -18 22 -24 hhcurveto
            -28 -29 -28 -28 return
          </CharString>
          <CharString index="306">
            78 1 -20 hstemhm
            return
          </CharString>
          <CharString index="307">
            -21 411 66 return
          </CharString>
          <CharString index="308">
            184 4 -21 return
          </CharString>
        <CharString name=".notdef">
          -123 0 63 594 62 hstem
          63 62 250 63 vstem
          438 hmoveto
          719 -375 -719 vlineto
          62 657 rmoveto
          250 -594 -250 hlineto
          endchar
        </CharString>
        <CharString name="A">
          59 -39 callsubr
          hstem
          595 31 rmoveto
          -107 callgsubr
          endchar
        </CharString>
        <CharString name="AE">
          159 callgsubr
          1 -20 hstemhm
          hintmask 01111000
          612 86 callgsubr
          hintmask 10110100
          224 1 7 31 rlineto
          -33 -13 0 -1 7 hvcurveto
          -11 1 -6 3 -1 5 -3 13 5 14 13 16 39 42 rcurveline
          96 105 rlineto
          255 hlineto
          -42 -198 17 callgsubr
          588 hlineto
          77 callsubr
          119 hlineto
          49 31 -46 -80 -20 hvcurveto
          35 hlineto
          60 278 rlineto
          -35 hlineto
          -87 -21 -33 -31 -59 hhcurveto
          -119 hlineto
          62 290 172 -84 callsubr
          41 203 rlineto
          hintmask 10111000
          163 callsubr
          endchar
        </CharString>
        <CharString name="AEacute">
          159 callgsubr
          236 -20 hstemhm
          hintmask 01111100
          610 86 callgsubr
          hintmask 10111100
          224 1 7 31 rlineto
          -33 -13 0 -1 7 hvcurveto
          -11 1 -6 3 -1 5 -3 13 5 14 13 16 39 42 rcurveline
          96 105 rlineto
          255 hlineto
          -42 -198 17 callgsubr
          588 hlineto
          77 callsubr
          119 hlineto
          49 31 -46 -80 -20 hvcurveto
          35 hlineto
          60 278 rlineto
          -35 hlineto
          -87 -21 -33 -31 -59 hhcurveto
          -119 hlineto
          62 290 172 -84 callsubr
          41 203 rlineto
          163 callsubr
          373 315 rmoveto
          -97 callgsubr
        </CharString>
        <CharString name="Aacute">
          73 -39 callsubr
          261 -20 hstem
          607 31 rmoveto
          -107 callgsubr
          251 664 rmoveto
          -97 callgsubr
        </CharString>
        <CharString name="Abreve">
          73 -39 callsubr
          54 180 callgsubr
          397 23 vstem
          608 31 rmoveto
          -107 callgsubr
          187 612 -98 callgsubr
          endchar
        </CharString>
        <CharString name="Acircumflex">
          73 0 31 0 198 0 37 444 -20 215 -20 hstem
          619 31 rmoveto
          -107 callgsubr
          56 639 rmoveto
          -47 hlineto
          -42 callsubr
        </CharString>
        <CharString name="Acute">
          -290 772 -21 174 -20 hstem
          466 921 rmoveto
          -4 4 -94 -13 -38 -37 -19 -19 -1 -1 rlinecurve
          -89 -85 -2 -7 10 -12 7 2 114 77 119 76 rlineto
          endchar
        </CharString>
        <CharString name="Acutesmall">
          -112 486 143 callsubr
          407 635 -1 callsubr
        </CharString>
        <CharString name="Adieresis">
          73 -39 callsubr
          54 97 hstem
          651 793 rmoveto
          25 5 -19 23 -25 hhcurveto
          -25 -28 -23 -25 -5 hvcurveto
          -25 -5 18 -24 25 hhcurveto
          24 30 24 25 5 hvcurveto
          -194 hmoveto
          25 5 -19 23 -25 hhcurveto
          -25 -28 -23 -25 -5 hvcurveto
          -25 -5 18 -24 25 hhcurveto
          24 30 24 25 5 hvcurveto
          152 -762 rmoveto
          -107 callgsubr
          endchar
        </CharString>
        <CharString name="Agrave">
          73 -39 callsubr
          195 -20 hstem
          615 31 rmoveto
          -107 callgsubr
          -147 602 rmoveto
          -66 callsubr
        </CharString>
        <CharString name="Alpha">
          73 0 31 198 37 444 -73 callsubr
          endchar
        </CharString>
        <CharString name="Amacron">
          73 -39 callsubr
          55 51 hstem
          615 31 rmoveto
          -107 callgsubr
          184 530 -6 callsubr
        </CharString>
        <CharString name="Aogonek">
          73 -181 52 129 -32 callgsubr
          hstem
          447 59 vstem
          599 47 callgsubr
          5 vvcurveto
          19 12 28 24 39 vhcurveto
          56 91 rlineto
          249 hlineto
          27 -198 rlineto
          -87 hlineto
          -7 -31 rlineto
          260 hlineto
          7 31 rlineto
          -77 -127 70 callgsubr
          27 18 33 35 37 hvcurveto
          -34 hlineto
          -52 -54 -26 -43 -33 7 callgsubr
          -362 369 rmoveto
          178 312 43 -312 rlineto
          endchar
        </CharString>
        <CharString name="Aring">
          73 -39 callsubr
          51 30 129 31 hstem
          400 36 131 37 vstem
          599 31 rmoveto
          -107 callgsubr
          13 475 -58 callsubr
          40 38 40 vhcurveto
          29 1 22 -22 -29 vvcurveto
          endchar
        </CharString>
        <CharString name="Aringacute">
          73 -39 callsubr
          49 29 130 31 219 -20 hstem
          402 35 132 36 vstem
          599 31 rmoveto
          -107 callgsubr
          282 861 rmoveto
          14 -7 7 -15 -16 -15 -6 -13 -15 vhcurveto
          -180 -186 rlineto
          32 hlineto
          189 133 rlineto
          18 13 9 17 21 vvcurveto
          -267 -388 rmoveto
          65 -1 56 46 65 vvcurveto
          41 -32 39 -49 -67 -40 -32 -63 -13 vhcurveto
          -1 -7 -1 -7 -7 vvcurveto
          -44 31 -29 51 -1 vhcurveto
          85 108 rmoveto
          -43 -36 -36 -43 -29 -24 21 31 40 40 38 40 31 21 -20 -31 vhcurveto
          endchar
        </CharString>
        <CharString name="Atilde">
          73 -39 callsubr
          55 66 callsubr
          hintmask 11100100
          615 31 rmoveto
          -107 callgsubr
          160 579 -35 callgsubr
          hintmask 11110000
          -25 callsubr
          hintmask 11101000
          -30 callsubr
          hintmask 11110000
          76 callsubr
          hintmask 11100100
          47 callsubr
        </CharString>
        <CharString name="B">
          87 0 31 305 30 293 31 hstemhm
          537 120 -68 109 hintmask 11101000
          694 519 rmoveto
          3 13 1 12 11 vvcurveto
          83 -70 52 -113 vhcurveto
          -360 hlineto
          100 callsubr
          -94 hlineto
          -7 -31 rlineto
          358 hlineto
          165 95 58 116 26 hvcurveto
          hintmask 11110000
          3 13 2 13 13 vvcurveto
          46 -20 36 -40 26 vhcurveto
          -31 21 -36 11 -39 1 47 7 43 18 37 28 41 31 26 37 9 44 rrcurveto
          -110 1 rmoveto
          -11 -54 -26 -41 -41 -27 rrcurveto
          -21 -30 -31 -11 -33 hhcurveto
          -132 hlineto
          63 293 rlineto
          148 hlineto
          hintmask 11101000
          65 33 -31 -61 -14 -2 -16 -3 -17 hvcurveto
          -52 -344 rmoveto
          -11 -55 -26 -40 -42 -24 rrcurveto
          -17 -29 -35 -9 -39 hhcurveto
          -140 hlineto
          64 305 rlineto
          132 hlineto
          34 28 -8 -15 23 hvcurveto
          hintmask 11110000
          31 -21 15 -31 -42 vvcurveto
          -13 -2 -15 -3 -15 vhcurveto
          endchar
        </CharString>
        <CharString name="Beta">
          121 0 31 305 30 293 31 hstemhm
          537 120 -68 109 hintmask 11101000
          694 519 rmoveto
          3 13 1 12 11 vvcurveto
          83 -70 52 -113 vhcurveto
          -360 hlineto
          100 callsubr
          -94 hlineto
          -7 -31 rlineto
          358 hlineto
          165 95 58 116 26 hvcurveto
          hintmask 11110000
          3 13 2 13 13 vvcurveto
          46 -20 36 -40 26 vhcurveto
          -31 21 -36 11 -39 1 47 7 43 18 37 28 41 31 26 37 9 44 rrcurveto
          -110 1 rmoveto
          -11 -54 -26 -41 -41 -27 rrcurveto
          -21 -30 -31 -11 -33 hhcurveto
          -132 hlineto
          63 293 rlineto
          148 hlineto
          hintmask 11101000
          65 33 -31 -61 -14 -2 -16 -3 -17 hvcurveto
          -52 -344 rmoveto
          -11 -55 -26 -40 -42 -24 rrcurveto
          -17 -29 -35 -9 -39 hhcurveto
          -140 hlineto
          64 305 rlineto
          132 hlineto
          34 28 -8 -15 23 hvcurveto
          hintmask 11110000
          31 -21 15 -31 -42 vvcurveto
          -13 -2 -15 -3 -15 vhcurveto
          endchar
        </CharString>
        <CharString name="Breve">
          -290 759 64 94 -20 hstem
          208 34 vstem
          507 917 rmoveto
          -26 hlineto
          -63 -25 -45 -31 -65 hhcurveto
          -70 -35 31 63 1 hvcurveto
          -26 hlineto
          -3 -3 rlineto
          -3 -14 -2 -13 -13 vvcurveto
          -22 5 -20 9 -18 vhcurveto
          -37 19 37 -18 53 hhcurveto
          51 42 19 39 35 hvcurveto
          25 29 17 33 8 35 rrcurveto
          endchar
        </CharString>
        <CharString name="Brevesmall">
          -290 530 60 92 -20 hstem
          169 32 vstem
          446 682 rmoveto
          -24 hlineto
          -61 -25 -42 -31 -59 hhcurveto
          -66 -32 31 61 3 hvcurveto
          -24 hlineto
          -4 -4 rlineto
          -3 -14 -1 -13 -12 vvcurveto
          -73 38 -36 75 41 36 14 29 30 vhcurveto
          30 29 19 35 9 41 rrcurveto
          endchar
        </CharString>
        <CharString name="C">
          32 -14 36 656 29 hstem
          68 112 vstem
          679 666 -83 callsubr
          endchar
        </CharString>
        <CharString name="Cacute">
          73 -16 36 656 29 243 -20 hstem
          28 112 vstem
          639 664 -83 callsubr
          31 263 rmoveto
          -97 callgsubr
        </CharString>
        <CharString name="Caron">
          -290 772 -21 179 -20 hstem
          532 930 rmoveto
          -32 hlineto
          -160 -123 -109 123 rlineto
          -30 hlineto
          -4 -5 102 -174 rlineto
          62 hlineto
          173 174 rlineto
          endchar
        </CharString>
        <CharString name="Caronsmall">
          -290 547 -21 160 -20 hstem
          471 686 rmoveto
          -32 hlineto
          -150 -111 -103 111 rlineto
          -32 hlineto
          -3 -4 94 -156 rlineto
          67 hlineto
          160 156 rlineto
          endchar
        </CharString>
        <CharString name="Ccaron">
          73 -14 36 656 29 0 202 1 -20 hstemhm
          11 112 hintmask 11011000
          622 666 rmoveto
          -23 -52 -16 -49 -10 -47 rrcurveto
          -30 hlineto
          15 70 3 13 -5 14 -13 16 rlinecurve
          -11 13 -13 10 -15 6 -37 14 -33 6 -31 -2 -131 -9 -89 -111 -45 -211 rrcurveto
          -10 -47 -5 -43 -40 vvcurveto
          -120 47 -74 85 -1 vhcurveto
          55 -1 50 9 45 19 36 15 41 27 47 39 8 -14 rcurveline
          -36 -45 -19 -12 -18 -12 -18 -12 rlinecurve
          -25 -15 -26 -11 -26 -8 rrcurveto
          -10 -35 -39 -5 -43 hhcurveto
          -71 -58 25 51 -45 hvcurveto
          -45 51 -22 66 79 vvcurveto
          29 3 29 7 31 vhcurveto
          23 108 49 88 75 67 rrcurveto
          65 71 79 32 87 hhcurveto
          56 47 -5 -9 38 hvcurveto
          16 -4 25 -9 35 -14 rrcurveto
          hintmask 10101000
          35 243 rmoveto
          hintmask 11011000
          23 callgsubr
          hintmask 10101000
          -36 callgsubr
        </CharString>
        <CharString name="Ccedilla">
          72 -223 34 81 35 59 36 -14 -21 691 29 hstemhm
          20 112 186 70 hintmask 11101110
          631 666 -83 callsubr
          -243 -807 36 callgsubr
          hintmask 11011110
          -60 callgsubr
          22 hvcurveto
          28 14 14 22 30 vvcurveto
          endchar
        </CharString>
        <CharString name="Ccircumflex">
          73 -21 36 656 29 0 36 136 callgsubr
          28 112 hintmask 11011000
          639 659 -83 callsubr
          -123 241 rmoveto
          -47 hlineto
          hintmask 10111000
          -42 callsubr
        </CharString>
        <CharString name="Cdotaccent">
          72 -14 36 656 29 30 94 hstem
          28 112 vstem
          639 666 -83 callsubr
          -114 120 -49 callsubr
        </CharString>
        <CharString name="Cedilla">
          -240 -173 -21 185 -20 hstemhm
          206 45 vstemhm
          251 -114 rmoveto
          24 -14 22 -28 20 vhcurveto
          -11 6 -3 7 6 8 12 16 rcurveline
          -34 2 -30 -54 rlineto
          -5 vlineto
          38 -15 19 -21 -25 vvcurveto
          -20 -19 -16 -12 -4 -8 5 9 -11 vhcurveto
          9 -11 -8 4 -6 hhcurveto
          hintmask 11100000
          -15 -8 -8 -16 -21 18 -11 35 48 46 36 44 hvcurveto
          endchar
        </CharString>
        <CharString name="Cedillasmall">
          -290 -210 34 81 35 60 -20 hstem
          126 70 vstem
          196 -128 36 callgsubr
          -60 callgsubr
          22 hvcurveto
          28 14 14 22 30 vvcurveto
          endchar
        </CharString>
        <CharString name="Chi">
          143 103 callsubr
          584 78 callgsubr
          -42 -11 callsubr
          268 hlineto
          7 31 rlineto
          -71 hlineto
          -185 350 190 193 31 30 26 20 162 callgsubr
        </CharString>
        <CharString name="Circumflex">
          -290 772 -21 179 -20 hstem
          389 930 rmoveto
          -47 hlineto
          -177 -174 2 -5 rlineto
          30 hlineto
          154 115 104 -115 rlineto
          30 hlineto
          5 6 rlineto
          endchar
        </CharString>
        <CharString name="Circumflexsmall">
          -290 547 -21 160 -20 hstem
          344 686 rmoveto
          -63 hlineto
          -160 -156 1 -4 rlineto
          32 hlineto
          148 111 102 -111 rlineto
          32 hlineto
          2 4 rlineto
          endchar
        </CharString>
        <CharString name="Commaaccent">
          -623 -255 162 callsubr
          hstem
          -55 129 vstem
          -78 -276 -68 callgsubr
          6 -22 rcurveline
          endchar
        </CharString>
        <CharString name="Commaaccentsmall">
          -257 -186 -21 86 80 hstemhm
          -47 93 vstemhm
          46 -104 rmoveto
          17 -4 14 -7 11 vhcurveto
          14 -9 -12 7 -16 hhcurveto
          -24 -21 -16 -24 -23 17 -17 23 hvcurveto
          4 9 8 4 hhcurveto
          hintmask 11100000
          3 1 1 -4 -9 vvcurveto
          -29 -27 -30 -28 -8 vhcurveto
          -15 vlineto
          25 3 20 13 17 21 rrcurveto
          17 21 8 22 23 vvcurveto
          endchar
        </CharString>
        <CharString name="D">
          136 2 29 628 28 3 -20 hstemhm
          644 101 hintmask 11010000
          733 337 rmoveto
          8 37 4 34 33 vvcurveto
          153 -87 92 -155 1 vhcurveto
          -77 1 -63 0 -48 -1 rrcurveto
          hintmask 10110000
          -53 -1 -53 1 -54 3 rrcurveto
          hintmask 11010000
          -7 -31 rlineto
          94 hlineto
          -133 -628 79 callgsubr
          -106 2 rmoveto
          -17 -89 -31 -71 -44 -53 -45 -56 -58 -33 -70 -10 rrcurveto
          -1 -11 -14 -1 -18 hhcurveto
          -32 -39 2 4 -45 hvcurveto
          132 625 51 6 54 1 57 -4 rlinecurve
          98 -7 49 -60 -111 vvcurveto
          -38 -6 -47 -11 -57 vhcurveto
          endchar
        </CharString>
        <CharString name="Dcaron">
          102 -2 33 628 31 0 223 1 -20 hstemhm
          552 101 hintmask 11011000
          641 337 rmoveto
          -20 -93 -48 -81 -76 -68 -76 -67 -78 -33 -80 3 -73 2 -69 1 -65 1 -49 1 -47 -1 -44 -2 7 31 rcurveline
          94 hlineto
          15 callsubr
          -94 hlineto
          7 31 54 -3 53 -1 53 1 rlinecurve
          48 1 63 0 77 -1 rrcurveto
          155 -1 87 -92 -153 vvcurveto
          -33 -4 -34 -8 -37 vhcurveto
          -106 2 rmoveto
          11 57 6 47 38 vvcurveto
          111 -49 60 -98 7 vhcurveto
          -57 4 -54 -1 -51 -6 -132 -625 rcurveline
          -4 45 39 -2 32 hhcurveto
          18 14 1 1 11 hvcurveto
          70 10 58 33 45 56 44 53 31 71 17 89 rrcurveto
          hintmask 10101000
          10 574 rmoveto
          hintmask 11011000
          23 callgsubr
          hintmask 10101000
          -36 callgsubr
        </CharString>
        <CharString name="Delta">
          65 callgsubr
        </CharString>
        <CharString name="Dieresis">
          -290 783 110 hstem
          168 113 128 112 vstem
          454 783 rmoveto
          15 14 29 callgsubr
          30 vhcurveto
          -241 hmoveto
          15 14 5 11 13 hvcurveto
          17 14 9 17 20 vvcurveto
          29 -15 14 -30 -15 -14 -5 -11 -13 vhcurveto
          -17 -14 -9 -17 -20 vvcurveto
          -29 15 -14 30 vhcurveto
          endchar
        </CharString>
        <CharString name="Dieresissmall">
          -176 542 92 hstem
          270 100 168 100 vstem
          568 542 rmoveto
          15 16 7 13 197 callsubr
          10 -21 -16 -16 -7 -14 -15 vhcurveto
          -15 -13 -7 -15 -15 vvcurveto
          -19 10 -9 20 vhcurveto
          -268 hmoveto
          15 16 7 14 197 callsubr
          9 -20 -32 -38 -32 -32 -19 10 -9 20 vhcurveto
          endchar
        </CharString>
        <CharString name="Dmacron">
          157 185 callgsubr
          544 101 hintmask 11101000
          -29 -37 callgsubr
        </CharString>
        <CharString name="Dotaccent">
          -290 783 110 hstem
          289 112 vstem
          333 783 rmoveto
          15 15 29 callgsubr
          29 vhcurveto
          endchar
        </CharString>
        <CharString name="Dotaccentsmall">
          -290 553 106 hstem
          241 109 vstem
          284 553 rmoveto
          35 31 30 35 27 -14 14 -29 -15 -13 -5 -10 -13 hvcurveto
          -17 -14 -8 -16 -19 vvcurveto
          -24 19 -18 24 vhcurveto
          endchar
        </CharString>
        <CharString name="E">
          98 -34 callsubr
          hstem
          152 -106 callgsubr
          endchar
        </CharString>
        <CharString name="Eacute">
          16 -34 callsubr
          254 -20 hstem
          51 -106 callgsubr
          11 233 rmoveto
          -97 callgsubr
        </CharString>
        <CharString name="Ebreve">
          10 -34 callsubr
          52 180 callgsubr
          244 23 vstem
          51 -106 callgsubr
          -116 186 -98 callgsubr
          endchar
        </CharString>
        <CharString name="Ecaron">
          24 -34 callsubr
          156 callsubr
          hintmask 11010000
          628 690 rmoveto
          -40 -203 rlineto
          -30 hlineto
          2 19 1 16 11 vvcurveto
          34 -8 27 -15 20 vhcurveto
          -21 28 -43 14 -63 1 -172 2 rcurveline
          -61 -290 rlineto
          123 hlineto
          29 23 8 17 16 hvcurveto
          19 19 15 31 10 43 rrcurveto
          31 hlineto
          -59 -278 rlineto
          -31 hlineto
          7 43 -1 31 -11 19 rrcurveto
          22 -13 -18 11 -25 80 callsubr
          -64 -304 188 3 rlineto
          19 24 5 10 28 hvcurveto
          29 10 22 11 17 13 45 35 32 53 20 69 rrcurveto
          32 hlineto
          -64 -240 rlineto
          -593 hlineto
          -33 callgsubr
          94 hlineto
          134 628 rlineto
          -94 hlineto
          -33 callgsubr
          508 218 rmoveto
          hintmask 11101000
          23 callgsubr
          hintmask 11010000
          -36 callgsubr
        </CharString>
        <CharString name="Ecircumflex">
          16 -34 callsubr
          0 52 164 -20 hstem
          51 -106 callgsubr
          -145 216 rmoveto
          -47 hlineto
          -42 callsubr
        </CharString>
        <CharString name="Edieresis">
          16 -34 callsubr
          52 97 hstem
          59 -106 callgsubr
          -16 101 rmoveto
          25 5 -19 23 -25 hhcurveto
          -25 -28 -23 -25 -5 hvcurveto
          -25 -5 18 -24 25 hhcurveto
          24 30 24 25 5 hvcurveto
          -194 hmoveto
          25 5 -19 23 -25 hhcurveto
          -25 -28 -23 -25 -5 hvcurveto
          -25 -5 18 -24 25 hhcurveto
          24 30 24 25 5 hvcurveto
          endchar
        </CharString>
        <CharString name="Edotaccent">
          107 -34 callsubr
          52 94 hstem
          51 -106 callgsubr
          -176 101 -49 callsubr
        </CharString>
        <CharString name="Egrave">
          28 -34 callsubr
          -32 221 hstemhm
          hintmask 11100000
          51 -106 callgsubr
          -313 172 rmoveto
          hintmask 11010000
          -66 callsubr
        </CharString>
        <CharString name="Emacron">
          38 -34 callsubr
          51 51 hstem
          51 -106 callgsubr
          -83 102 -6 callsubr
        </CharString>
        <CharString name="Eng">
          147 -216 63 -63 78 138 53 callgsubr
          hstemhm
          hintmask 10110000
          575 -78 callgsubr
          267 -637 -15 -70 -15 -43 -16 -16 rlinecurve
          -16 -15 -17 -8 -17 hhcurveto
          hintmask 01110000
          -16 -33 15 -12 hhcurveto
          -20 -19 -20 -19 -8 3 -6 7 -5 hvcurveto
          -13 18 20 -7 23 hhcurveto
          34 32 14 29 31 hvcurveto
          15 15 15 30 14 47 6 19 6 21 5 25 124 589 rcurveline
          7 33 14 25 22 18 rrcurveto
          7 8 23 26 callsubr
          endchar
        </CharString>
        <CharString name="Eogonek">
          38 -181 52 129 32 303 34 289 32 hstem
          147 59 vstem
          297 -96 70 callgsubr
          26 16 31 33 36 hvcurveto
          266 hlineto
          64 240 rlineto
          -32 hlineto
          -20 -69 -32 -53 -45 -35 -17 -13 -22 -11 -29 133 callsubr
          -188 -3 81 callgsubr
          123 hlineto
          25 18 -11 -22 13 hvcurveto
          11 -19 1 -31 -7 -43 rrcurveto
          31 31 callgsubr
          -31 hlineto
          -10 -43 -15 -31 -19 -19 rrcurveto
          -17 -16 -23 -8 -29 80 callsubr
          61 290 172 -84 callsubr
          40 203 rlineto
          -577 hlineto
          100 callsubr
          -94 hlineto
          -53 callgsubr
          293 hlineto
          -49 -52 -25 -42 -32 vvcurveto
          -17 7 -14 13 -12 vhcurveto
          -8 9 11 -4 13 hhcurveto
          20 22 9 19 24 hvcurveto
          21 17 14 16 9 17 rrcurveto
          endchar
        </CharString>
        <CharString name="Epsilon">
          98 -34 callsubr
          hstem
          152 -106 callgsubr
          endchar
        </CharString>
        <CharString name="Eta">
          184 74 callsubr
          hstem
          557 -104 callgsubr
          endchar
        </CharString>
        <CharString name="Eth">
          263 185 callgsubr
          724 101 hintmask 11101000
          151 -37 callgsubr
        </CharString>
        <CharString name="Euro">
          121 0 54 188 53 54 54 188 54 hstem
          136 53 vstem
          628 403 rmoveto
          -556 hlineto
          -23 -54 rlineto
          557 hlineto
          -23 -54 rmoveto
          -511 hlineto
          -23 -53 rlineto
          511 hlineto
          107 -90 rmoveto
          -65 -58 -70 -33 -81 hhcurveto
          -75 -64 26 51 -52 hvcurveto
          -52 52 -26 64 75 vvcurveto
          75 26 64 52 52 vhcurveto
          52 52 64 26 75 hhcurveto
          80 70 -32 -64 59 hvcurveto
          23 54 rlineto
          64 -63 -78 32 -91 hhcurveto
          -92 -77 -31 -62 -61 hvcurveto
          -61 -61 -31 -77 -92 vvcurveto
          -91 31 -77 61 -62 vhcurveto
          -61 61 77 -31 92 hhcurveto
          83 70 24 49 56 hvcurveto
          endchar
        </CharString>
        <CharString name="F">
          68 0 31 304 34 289 32 hstem
          153 -11 callgsubr
        </CharString>
        <CharString name="G">
          62 -16 109 callgsubr
          hstem
          66 113 vstem
          677 -86 callgsubr
          endchar
        </CharString>
        <CharString name="Gamma">
          42 0 31 627 32 hstem
          155 690 rmoveto
          100 callsubr
          -94 -67 callgsubr
          134 628 149 -84 callsubr
          40 202 callgsubr
        </CharString>
        <CharString name="Gbreve">
          77 -16 109 callgsubr
          37 180 callgsubr
          8 113 192 23 vstem
          619 -86 callgsubr
          -38 212 -98 callgsubr
          endchar
        </CharString>
        <CharString name="Gcircumflex">
          77 -16 109 callgsubr
          0 41 136 callgsubr
          18 113 hintmask 11101100
          629 -86 callgsubr
          -106 246 rmoveto
          -47 hlineto
          hintmask 11011100
          -42 callsubr
        </CharString>
        <CharString name="Gcommaaccent">
          77 -265 162 callsubr
          52 109 callgsubr
          hstem
          18 113 110 129 vstem
          629 -86 callgsubr
          -411 -950 -68 callgsubr
          rrcurveto
          endchar
        </CharString>
        <CharString name="Gdotaccent">
          77 -16 109 callgsubr
          35 94 hstem
          18 113 vstem
          629 170 callgsubr
          -26 9 -15 4 -39 10 -47 5 -55 -1 -87 -1 -79 -32 -71 -65 -75 -67 -49 -87 -23 -108 rrcurveto
          -7 -30 -3 -30 -29 vvcurveto
          -79 22 -66 45 134 callsubr
          71 hhcurveto
          59 51 5 11 41 hvcurveto
          37 11 38 11 37 11 44 205 rcurveline
          35 hlineto
          -33 callgsubr
          -234 hlineto
          -6 -30 rlineto
          114 hlineto
          -26 -121 -4 -18 -4 -13 -5 -9 rlinecurve
          -6 -11 -22 -12 -38 -14 -41 -15 -38 -7 -35 1 -43 1 -32 18 -23 35 rrcurveto
          -22 33 -11 47 60 vvcurveto
          40 5 44 10 47 vhcurveto
          45 212 88 110 131 9 39 3 33 -6 29 -15 14 -7 169 callsubr
          -15 6 -14 -3 -13 -15 -70 rcurveline
          30 hlineto
          10 47 16 49 23 52 rrcurveto
          -148 125 -49 callsubr
        </CharString>
        <CharString name="Grave">
          -290 772 -21 174 -20 hstem
          439 770 rmoveto
          -29 47 -18 28 -5 9 -34 58 rcurveline
          -89 13 -6 -4 -9 -15 87 -76 81 -77 7 -2 15 12 rlineto
          endchar
        </CharString>
        <CharString name="Gravesmall">
          -112 486 -21 204 -20 hstem
          197 648 rmoveto
          14 -7 -13 7 -17 hhcurveto
          -26 -13 -12 -25 -13 4 -10 8 -8 hvcurveto
          139 -136 rlineto
          25 hlineto
          endchar
        </CharString>
        <CharString name="H">
          184 74 callsubr
          hstem
          557 -104 callgsubr
          endchar
        </CharString>
        <CharString name="H18533">
          -229 67 -21 284 -20 hstem
          194 330 rmoveto
          -39 -34 -14 -28 -28 hvcurveto
          -27 -27 -14 -34 -39 vvcurveto
          -39 14 -34 27 -28 vhcurveto
          -27 27 34 -14 40 hhcurveto
          39 34 14 27 27 hvcurveto
          27 28 14 34 39 vvcurveto
          39 -14 34 -28 27 vhcurveto
          28 -27 -33 14 -39 hhcurveto
          endchar
        </CharString>
        <CharString name="H18543">
          -300 92 186 hstem
          65 186 vstem
          65 278 rmoveto
          -186 186 186 vlineto
          endchar
        </CharString>
        <CharString name="H18551">
          -300 94 30 125 31 hstem
          68 30 125 31 vstem
          68 280 rmoveto
          -186 186 186 vlineto
          -31 -156 rmoveto
          -125 125 125 hlineto
          endchar
        </CharString>
        <CharString name="H22073">
          -180 -4 30 319 30 hstem
          29 30 319 30 vstem
          29 -4 rmoveto
          379 379 -379 hlineto
          349 -30 rmoveto
          -319 -319 319 vlineto
          endchar
        </CharString>
        <CharString name="Hbar">
          124 0 31 315 35 106 43 129 31 hstem
          489 381 rmoveto
          -307 hlineto
          22 106 rlineto
          307 hlineto
          -403 hmoveto
          -97 -456 rlineto
          -93 hlineto
          -7 -31 rlineto
          283 hlineto
          7 31 rlineto
          -94 hlineto
          67 315 rlineto
          307 hlineto
          -66 -315 rlineto
          -94 -67 callgsubr
          97 456 rlineto
          81 hlineto
          16 43 rlineto
          -88 hlineto
          28 129 rlineto
          94 hlineto
          5 31 rlineto
          -288 hlineto
          -5 85 callsubr
          -27 -129 rlineto
          -307 hlineto
          27 129 rlineto
          94 hlineto
          5 31 rlineto
          -283 hlineto
          10 callsubr
          -28 -129 rlineto
          -73 hlineto
          -16 -43 rlineto
          endchar
        </CharString>
        <CharString name="Hcircumflex">
          124 74 callsubr
          0 55 136 callgsubr
          hintmask 11101000
          465 -104 callgsubr
          -267 219 rmoveto
          -47 hlineto
          hintmask 11011000
          -42 callsubr
        </CharString>
        <CharString name="Hungarumlaut">
          49 763 -21 hstem
          188 809 160 callgsubr
          8 -14 -1 -12 -9 -164 -124 rcurveline
          17 -12 rlineto
          367 67 132 callgsubr
          -7 10 -13 6 vhcurveto
          -15 8 -14 -1 -12 -9 -165 -124 rcurveline
          18 -12 rlineto
          endchar
        </CharString>
        <CharString name="Hungarumlautsmall">
          -199 530 -21 hstem
          196 576 160 callgsubr
          7 -14 0 -11 -9 -165 -124 rcurveline
          17 -12 rlineto
          367 67 160 callgsubr
          7 -14 0 -12 -9 -164 -124 rcurveline
          17 -12 rlineto
          endchar
        </CharString>
        <CharString name="I">
          -219 103 callsubr
          154 -93 callgsubr
          endchar
        </CharString>
        <CharString name="IJ">
          146 -190 64 126 53 callgsubr
          hstem
          148 -93 callgsubr
          54 hmoveto
          -30 callgsubr
          endchar
        </CharString>
        <CharString name="Iacute">
          -269 11 callgsubr
          257 -20 hstem
          59 -93 callgsubr
          196 236 rmoveto
          -97 callgsubr
        </CharString>
        <CharString name="Ibreve">
          -266 11 callgsubr
          55 180 callgsubr
          115 23 vstem
          59 -93 callgsubr
          36 189 -98 callgsubr
          endchar
        </CharString>
        <CharString name="Icircumflex">
          -269 11 callgsubr
          0 55 136 callgsubr
          hintmask 11010000
          59 -93 callgsubr
          9 219 rmoveto
          -47 hlineto
          hintmask 10110000
          -42 callsubr
        </CharString>
        <CharString name="Idieresis">
          -269 11 callgsubr
          51 97 hstem
          65 -93 callgsubr
          18 100 rmoveto
          25 5 -19 23 -25 hhcurveto
          -25 -28 -23 -25 -5 hvcurveto
          -25 -5 18 -24 24 hhcurveto
          25 30 24 25 5 hvcurveto
          -194 hmoveto
          25 5 -19 23 -25 hhcurveto
          -25 -28 -23 -25 -5 hvcurveto
          -25 -5 18 -24 24 hhcurveto
          25 30 24 25 5 hvcurveto
          endchar
        </CharString>
        <CharString name="Idotaccent">
          -183 11 callgsubr
          47 94 hstem
          59 -93 callgsubr
          -68 96 -49 callsubr
        </CharString>
        <CharString name="Igrave">
          -283 11 callgsubr
          224 -20 hstem
          59 -93 callgsubr
          -202 207 rmoveto
          -66 callsubr
        </CharString>
        <CharString name="Imacron">
          -266 11 callgsubr
          54 51 hstem
          59 -93 callgsubr
          30 105 -6 callsubr
        </CharString>
        <CharString name="Iogonek">
          -280 -195 51 144 53 callgsubr
          hstem
          -32 58 vstem
          171 -132 rmoveto
          100 callgsubr
          12 23 26 16 36 31 47 hvcurveto
          123 -28 callgsubr
          15 callsubr
          94 hlineto
          -33 callgsubr
          -288 hlineto
          100 callsubr
          -94 hlineto
          -53 callgsubr
          132 hlineto
          -48 -41 -24 -43 -43 122 callsubr
          endchar
        </CharString>
        <CharString name="Iota">
          -219 103 callsubr
          154 -93 callgsubr
          endchar
        </CharString>
        <CharString name="Iotadieresis">
          -197 11 callgsubr
          49 93 hstem
          184 92 96 92 vstem
          464 786 rmoveto
          139 callgsubr
          -188 hmoveto
          139 callgsubr
          -122 -96 -91 callsubr
          288 -28 callgsubr
          15 callsubr
          94 hlineto
          -33 callgsubr
          endchar
        </CharString>
        <CharString name="Itilde">
          -280 11 callgsubr
          56 66 callsubr
          hintmask 11001000
          59 -93 callgsubr
          16 156 -35 callgsubr
          hintmask 11100000
          -25 callsubr
          hintmask 11010000
          -30 callsubr
          hintmask 11100000
          76 callsubr
          hintmask 11001000
          47 callsubr
        </CharString>
        <CharString name="J">
          -240 -190 64 785 31 hstem
          151 690 rmoveto
          -30 callgsubr
          endchar
        </CharString>
        <CharString name="Jcircumflex">
          -265 -195 64 785 31 0 61 136 callgsubr
          hintmask 11010000
          69 685 rmoveto
          -30 callgsubr
          -76 225 rmoveto
          -47 hlineto
          hintmask 10110000
          -42 callsubr
        </CharString>
        <CharString name="K">
          160 103 callsubr
          562 -65 callgsubr
          endchar
        </CharString>
        <CharString name="Kappa">
          160 103 callsubr
          562 -65 callgsubr
          endchar
        </CharString>
        <CharString name="Kcommaaccent">
          140 -265 162 callsubr
          68 53 callgsubr
          hstem
          177 129 vstem
          466 -65 callgsubr
          -563 -976 -68 callgsubr
          rrcurveto
          endchar
        </CharString>
        <CharString name="L">
          17 0 32 627 31 hstem
          590 -57 callsubr
          endchar
        </CharString>
        <CharString name="Lacute">
          -85 0 32 627 31 264 -20 hstem
          500 -57 callsubr
          -71 693 rmoveto
          -97 callgsubr
        </CharString>
        <CharString name="Lambda">
          151 0 31 679 -20 hstem
          631 47 callgsubr
          4 vvcurveto
          17 12 29 24 41 vhcurveto
          257 440 75 -547 rlineto
          -87 hlineto
          -7 -31 rlineto
          260 hlineto
          7 31 rlineto
          endchar
        </CharString>
        <CharString name="Lcaron">
          -12 0 32 553 117 -43 31 hstemhm
          494 129 hintmask 10110000
          500 -57 callsubr
          -61 244 44 callsubr
        </CharString>
        <CharString name="Lcommaaccent">
          5 -269 162 callsubr
          72 32 627 31 hstem
          233 129 vstem
          500 -57 callsubr
          -322 -530 -68 callgsubr
          rrcurveto
          endchar
        </CharString>
        <CharString name="Ldot">
          5 0 32 408 110 109 31 hstem
          511 112 vstem
          500 -57 callsubr
          23 200 rmoveto
          15 15 29 callgsubr
          29 vhcurveto
          endchar
        </CharString>
        <CharString name="Lslash">
          44 0 32 627 31 hstem
          561 240 rmoveto
          -17 -67 -33 -53 -47 -37 -17 171 callgsubr
          -28 -9 -23 -5 -19 -1 -153 -3 rcurveline
          74 349 157 95 -5 10 -6 10 -6 10 rlinecurve
          -131 -78 50 232 rlineto
          95 hlineto
          7 31 rlineto
          -282 hlineto
          -7 -31 rlineto
          94 hlineto
          -63 -296 -142 -85 -1 -1 3 -6 6 -11 rlinecurve
          7 -10 3 -4 3 vvcurveto
          114 68 -60 -286 17 callgsubr
          551 172 callgsubr
          endchar
        </CharString>
        <CharString name="M">
          300 103 callsubr
          745 690 rmoveto
          -313 -516 -72 516 rlineto
          -198 145 callsubr
          56 hlineto
          18 8 -7 -15 -2 hvcurveto
          -110 -519 -7 -35 -15 -26 -23 -17 rlinecurve
          -6 -8 -22 -3 -37 hhcurveto
          -7 -31 rlineto
          225 hlineto
          7 31 rlineto
          -39 -22 3 7 -5 hvcurveto
          -13 17 -3 25 7 35 106 500 rcurveline
          92 -608 11 1 373 611 -125 -591 99 callsubr
          endchar
        </CharString>
        <CharString name="Macron">
          -290 813 50 hstem
          508 863 rmoveto
          -316 hlineto
          -11 -50 rlineto
          317 hlineto
          endchar
        </CharString>
        <CharString name="Macronsmall">
          -290 574 44 hstem
          447 618 rmoveto
          -298 hlineto
          -9 -44 rlineto
          297 hlineto
          endchar
        </CharString>
        <CharString name="Mu">
          300 103 callsubr
          745 690 rmoveto
          -313 -516 -72 516 rlineto
          -198 145 callsubr
          56 hlineto
          18 8 -7 -15 -2 hvcurveto
          -110 -519 -7 -35 -15 -26 -23 -17 rlinecurve
          -6 -8 -22 -3 -37 hhcurveto
          -7 -31 rlineto
          225 hlineto
          7 31 rlineto
          -39 -22 3 7 -5 hvcurveto
          -13 17 -3 25 7 35 106 500 rcurveline
          92 -608 11 1 373 611 -125 -591 99 callsubr
          endchar
        </CharString>
        <CharString name="N">
          160 126 callgsubr
          hstemhm
          hintmask 10100000
          589 -78 callgsubr
          hintmask 01100000
          -17 callsubr
          endchar
        </CharString>
        <CharString name="Nacute">
          147 126 callgsubr
          255 -20 hstemhm
          hintmask 10110000
          497 -78 callgsubr
          hintmask 01110000
          -17 callsubr
          -84 234 rmoveto
          -97 callgsubr
        </CharString>
        <CharString name="Ncaron">
          147 126 callgsubr
          156 callsubr
          hintmask 01101000
          723 690 rmoveto
          -53 callgsubr
          -39 -23 -3 -7 -8 hvcurveto
          -21 -17 -15 -26 -7 -33 -128 -590 rcurveline
          -23 hlineto
          -274 654 -110 -519 -7 -35 3 -25 14 -17 rlinecurve
          hintmask 10101000
          -7 5 22 -3 39 hhcurveto
          -7 -31 rlineto
          -222 hlineto
          7 31 rlineto
          37 23 3 6 8 hvcurveto
          21 15 15 26 8 37 110 519 rcurveline
          15 3 -8 7 -19 hhcurveto
          -56 hlineto
          -33 callgsubr
          197 hlineto
          215 -515 84 398 rlineto
          2 11 1 10 9 vvcurveto
          20 -5 16 -10 11 vhcurveto
          6 -5 -22 3 -37 97 callgsubr
          hintmask 10010000
          162 218 rmoveto
          hintmask 10101000
          23 callgsubr
          hintmask 10010000
          -36 callgsubr
        </CharString>
        <CharString name="Ncommaaccent">
          147 -262 162 callsubr
          65 157 callgsubr
          hstemhm
          204 129 hintmask 11101100
          497 -78 callgsubr
          hintmask 11011100
          -17 callsubr
          -542 -973 -68 callgsubr
          rrcurveto
          endchar
        </CharString>
        <CharString name="Ntilde">
          90 126 callgsubr
          52 66 callsubr
          hintmask 10110000
          497 -78 callgsubr
          hintmask 01100100
          -17 callsubr
          -88 152 -35 callgsubr
          hintmask 10110000
          -25 callsubr
          hintmask 10101000
          -30 callsubr
          hintmask 10110000
          76 callsubr
          hintmask 10100100
          47 callsubr
        </CharString>
        <CharString name="Nu">
          161 126 callgsubr
          hstemhm
          hintmask 10100000
          590 -78 callgsubr
          hintmask 01100000
          -17 callsubr
          endchar
        </CharString>
        <CharString name="Numero">
          486 -1 46 -41 -21 167 24 268 25 -25 244 4 -20 21 -20 hstemhm
          111 43 483 43 62 64 189 65 hintmask 1011010111100000
          736 -1 rmoveto
          119 1 109 0 99 -1 rrcurveto
          46 vlineto
          -101 -1 -109 0 -117 1 rrcurveto
          19 619 rmoveto
          9 5 4 8 9 -5 5 -10 hvcurveto
          hintmask 1010100111100000
          -3 -32 -32 -1 -32 hhcurveto
          hintmask 1011010111100000
          -27 -40 1 3 -53 hvcurveto
          148 callsubr
          21 -2 20 -5 17 -8 24 -10 12 -13 1 -17 9 -464 rcurveline
          -255 311 -147 181 -41 52 -69 -1 rcurveline
          hintmask 1011001111100000
          -27 -27 1 2 -27 hvcurveto
          148 callsubr
          17 -2 14 -5 13 -8 rrcurveto
          15 -10 7 -13 -15 vvcurveto
          -7 -533 -1 -15 -12 -13 -24 -12 rlinecurve
          -11 -5 -12 -5 -14 -4 rrcurveto
          148 callsubr
          hintmask 0111010111100000
          3 37 33 2 27 hhcurveto
          hintmask 1011010111100000
          32 38 -2 -3 45 hvcurveto
          9 5 4 8 9 -5 5 -10 -13 -16 3 7 -18 hvcurveto
          -26 11 -13 14 18 vvcurveto
          -10 521 83 -104 82 -104 83 -103 rlinecurve
          hintmask 0111010111100000
          149 -187 85 -101 20 -17 25 22 rcurveline
          8 606 rlineto
          14 12 13 23 12 vhcurveto
          10 5 12 4 14 5 rrcurveto
          305 -355 rmoveto
          43 -16 37 -31 31 vhcurveto
          31 -31 -37 16 -44 hhcurveto
          -44 -38 -16 -31 -31 hvcurveto
          -31 -31 -15 -37 -43 vvcurveto
          -46 15 -38 30 -30 vhcurveto
          -30 30 38 -15 46 hhcurveto
          45 37 15 30 31 hvcurveto
          31 30 15 38 46 vvcurveto
          -65 -1 rmoveto
          -83 -35 -51 -59 -61 -34 57 77 75 39 59 56 56 38 -58 -76 vhcurveto
          endchar
        </CharString>
        <CharString name="O">
          89 63 callsubr
          hstem
          66 101 423 108 vstem
          683 339 -103 callsubr
          endchar
        </CharString>
        <CharString name="OE">
          440 -14 32 -19 33 -13 -21 337 34 289 32 -13 31 hstemhm
          51 104 hintmask 01011010
          648 690 rmoveto
          -19 -35 3 6 -51 hvcurveto
          hintmask 01010110
          -50 7 -33 3 -16 -1 -89 -3 -79 -34 -70 -63 -73 -67 -48 -87 -24 -107 rrcurveto
          -7 -31 -3 -30 -30 vvcurveto
          -79 22 -66 44 -51 vhcurveto
          hintmask 10011010
          45 -51 58 -24 71 1 rrcurveto
          13 34 2 4 54 hvcurveto
          hintmask 00111010
          4 55 37 2 21 hhcurveto
          398 2 63 240 rlineto
          -32 hlineto
          -17 -67 -33 -53 -47 -37 -16 -13 -22 -11 -29 -10 rrcurveto
          -10 -29 -23 -5 -19 hhcurveto
          -188 -3 20 callsubr
          -614 -643 rmoveto
          hintmask 10010110
          -19 -44 -41 -10 -39 hhcurveto
          -94 -47 56 113 43 7 54 13 63 hvcurveto
          22 104 30 78 38 53 44 61 58 32 71 2 48 1 37 -8 25 -19 rrcurveto
          endchar
        </CharString>
        <CharString name="Oacute">
          79 63 callsubr
          242 -20 hstem
          179 callgsubr
          vstem
          628 339 -103 callsubr
          132 586 rmoveto
          -97 callgsubr
        </CharString>
        <CharString name="Obreve">
          79 63 callsubr
          37 180 callgsubr
          3 101 209 23 191 108 vstem
          620 339 -103 callsubr
          72 536 -98 callgsubr
          endchar
        </CharString>
        <CharString name="Ocircumflex">
          79 63 callsubr
          0 33 136 callgsubr
          179 callgsubr
          hintmask 11011100
          628 339 -103 callsubr
          -35 562 rmoveto
          -47 hlineto
          hintmask 10111100
          -42 callsubr
        </CharString>
        <CharString name="Odieresis">
          79 -14 34 657 31 33 97 hstem
          39 101 423 108 vstem
          -22 callsubr
          39 447 rmoveto
          98 callgsubr
          -194 hmoveto
          98 callgsubr
          endchar
        </CharString>
        <CharString name="Ogonek">
          -290 -193 49 144 -20 hstem
          59 59 vstem
          274 -123 rmoveto
          -10 15 rlineto
          -8 hlineto
          -24 -30 -29 -12 -28 hhcurveto
          -34 -17 16 32 25 20 32 41 39 hvcurveto
          -36 hlineto
          -56 -37 -28 -38 -38 vvcurveto
          -45 34 -35 47 42 45 21 43 47 vhcurveto
          endchar
        </CharString>
        <CharString name="Ogoneksmall">
          -290 -189 51 138 -20 hstem
          38 60 vstem
          242 -126 rmoveto
          4 4 2 4 5 vvcurveto
          6 -3 3 -6 -3 -2 -1 -1 -3 vhcurveto
          -21 -39 -31 -11 -24 hhcurveto
          -26 -13 11 21 30 27 35 53 41 hvcurveto
          -32 hlineto
          -28 -17 -24 -19 -20 -23 rrcurveto
          -24 -27 -12 -25 -23 vvcurveto
          -11 3 -11 6 -9 vhcurveto
          -16 11 17 -8 25 hhcurveto
          23 25 6 13 27 hvcurveto
          27 13 23 14 17 17 rrcurveto
          endchar
        </CharString>
        <CharString name="Ograve">
          79 63 callsubr
          -31 234 hstemhm
          179 callgsubr
          hintmask 11011000
          628 339 -103 callsubr
          -249 551 rmoveto
          hintmask 10111000
          -66 callsubr
        </CharString>
        <CharString name="Ohorn">
          149 63 callsubr
          37 -20 hstem
          39 101 423 108 14 102 vstem
          -94 callsubr
          endchar
        </CharString>
        <CharString name="Ohungarumlaut">
          79 63 callsubr
          258 -20 hstem
          179 callgsubr
          vstem
          628 339 -103 callsubr
          135 588 -56 callsubr
        </CharString>
        <CharString name="Omacron">
          79 63 callsubr
          36 51 hstem
          179 callgsubr
          vstem
          628 339 -103 callsubr
          78 452 -6 callsubr
        </CharString>
        <CharString name="Omega">
          186 0 83 589 31 hstem
          112 46 callsubr
          vstem
          773 -107 callsubr
          endchar
        </CharString>
        <CharString name="Omicron">
          111 -17 40 649 39 hstem
          38 180 callsubr
          vstem
          658 -95 callsubr
          endchar
        </CharString>
        <CharString name="Oslash">
          88 -78 -21 83 34 657 31 58 -20 hstem
          179 callgsubr
          vstem
          467 764 rmoveto
          -281 -863 rlineto
          54 hlineto
          281 863 rlineto
          107 -425 -103 callsubr
          endchar
        </CharString>
        <CharString name="Oslashacute">
          210 -78 -21 83 34 657 31 240 -20 hstem
          179 callgsubr
          vstem
          467 764 rmoveto
          -281 -863 rlineto
          54 hlineto
          281 863 rlineto
          107 -425 -103 callsubr
          102 584 rmoveto
          -97 callgsubr
        </CharString>
        <CharString name="Otilde">
          79 -14 34 657 31 33 66 callsubr
          39 101 423 108 hintmask 11001110
          -22 callsubr
          32 498 rmoveto
          -23 -28 -19 -15 -14 -3 -13 -2 -11 1 -11 5 -53 23 rcurveline
          hintmask 11100110
          9 -21 -20 5 -17 hhcurveto
          -43 -37 -32 -63 -29 hvcurveto
          28 hlineto
          hintmask 11010110
          29 19 20 14 21 hhcurveto
          9 14 -4 -9 19 hvcurveto
          34 -15 rlineto
          hintmask 11100110
          -10 23 18 -5 15 hhcurveto
          hintmask 11001110
          54 39 33 67 25 hvcurveto
          endchar
        </CharString>
        <CharString name="P">
          40 0 31 268 28 332 31 hstem
          581 106 vstem
          683 -46 callgsubr
          endchar
        </CharString>
        <CharString name="Phi">
          130 0 31 71 29 439 28 61 31 hstem
          66 96 476 98 vstem
          734 361 rmoveto
          1 10 1 10 9 vvcurveto
          62 -23 51 -47 40 vhcurveto
          -46 40 -55 19 -64 -3 14 60 rcurveline
          93 hlineto
          -33 callgsubr
          -284 hlineto
          10 callsubr
          -15 -61 rlineto
          -85 -73 -22 -44 -60 hvcurveto
          -57 -42 -37 -55 -16 -67 rrcurveto
          -6 -25 -3 -23 -21 vvcurveto
          -64 24 -49 49 -35 vhcurveto
          41 -30 54 -16 65 -3 -15 -71 rcurveline
          -94 hlineto
          -7 -31 rlineto
          285 hlineto
          7 31 rlineto
          -94 hlineto
          15 71 100 7 75 20 50 32 rlinecurve
          63 41 38 66 12 93 rrcurveto
          -103 -1 rmoveto
          -30 -145 -76 -76 -123 -8 93 440 rcurveline
          95 -7 48 -48 -91 vvcurveto
          -20 -2 -22 -5 -23 vhcurveto
          -327 -229 rmoveto
          -95 -47 50 99 25 3 27 7 30 hvcurveto
          30 134 75 69 120 5 rrcurveto
          endchar
        </CharString>
        <CharString name="Pi">
          167 0 31 618 41 hstem
          155 690 rmoveto
          100 callsubr
          -94 hlineto
          -7 -31 rlineto
          284 hlineto
          7 31 rlineto
          -93 hlineto
          131 618 rlineto
          290 hlineto
          -132 -618 rlineto
          -94 hlineto
          -53 callgsubr
          286 hlineto
          7 31 rlineto
          -92 hlineto
          15 callsubr
          93 hlineto
          -33 callgsubr
          endchar
        </CharString>
        <CharString name="Psi">
          236 0 31 220 32 251 164 -39 31 hstemhm
          125 89 -51 90 hintmask 11101000
          837 534 rmoveto
          21 18 11 21 15 hvcurveto
          13 19 6 21 22 vvcurveto
          23 -7 18 -14 13 vhcurveto
          -16 15 -22 7 -27 -1 -34 -1 -30 -15 -26 -31 -22 -25 -14 -27 -5 -30 -17 -87 -18 -64 -20 -40 -35 -69 -62 -34 -87 3 rrcurveto
          hintmask 11011000
          80 376 rlineto
          94 hlineto
          -33 callgsubr
          -280 hlineto
          10 callsubr
          -82 -377 -81 -1 -47 19 -14 39 rlinecurve
          -3 7 -1 10 12 vvcurveto
          22 11 64 23 106 vhcurveto
          hintmask 11100100
          3 16 2 15 13 vvcurveto
          63 -41 31 -82 -11 -13 -1 -1 -13 vhcurveto
          -5 -26 rlineto
          50 5 25 -21 -45 vvcurveto
          -15 -3 -16 -6 -19 vhcurveto
          -15 -48 -8 -38 -3 -27 rrcurveto
          hintmask 11101000
          -2 -19 -1 -15 -12 vvcurveto
          -60 25 -43 49 -27 vhcurveto
          15 -8 25 -6 35 -3 32 -3 27 0 22 3 -47 -222 rcurveline
          -94 hlineto
          -7 -31 rlineto
          280 hlineto
          7 31 rlineto
          -94 hlineto
          47 220 61 -3 53 13 43 29 rlinecurve
          32 22 24 28 16 35 17 37 18 63 19 88 15 67 30 37 47 6 rrcurveto
          15 2 7 -5 -13 vvcurveto
          -4 -1 -4 -1 -4 vhcurveto
          -16 -7 -12 -10 -9 -14 -5 -7 -4 -11 -4 -13 rrcurveto
          -29 -5 21 -20 29 hhcurveto
          endchar
        </CharString>
        <CharString name="Q">
          89 -155 67 21 84 -34 34 -9 -21 687 31 hstemhm
          66 101 423 108 hintmask 10011110
          683 338 rmoveto
          10 41 5 39 37 vvcurveto
          156 -88 94 -153 -89 -80 -32 -63 -71 vhcurveto
          157 callsubr
          -110 rrcurveto
          -5 -28 -3 -27 -27 vvcurveto
          -73 17 -62 35 -50 vhcurveto
          35 -50 48 -30 60 -10 rrcurveto
          -1 hlineto
          -25 -2 -23 -10 -23 -17 -25 -19 -15 -22 -5 -27 17 9 16 9 17 9 rrcurveto
          hintmask 11001110
          11 19 18 5 15 hhcurveto
          20 20 -4 -8 21 hvcurveto
          45 -23 33 -19 22 -13 27 -15 33 -7 37 1 17 1 19 8 19 16 19 16 12 16 3 15 rrcurveto
          -3 -18 -17 -2 -17 hhcurveto
          -38 -42 11 21 -47 hvcurveto
          hintmask 10101110
          -33 17 -26 13 -18 9 89 3 77 41 66 77 55 65 38 78 21 91 rrcurveto
          -111 2 rmoveto
          -21 -96 -31 -76 -42 -57 rrcurveto
          -63 -47 -55 -31 -63 hhcurveto
          -97 -49 58 117 43 6 50 13 59 hvcurveto
          220 47 88 110 130 hhcurveto
          93 46 -61 -123 -43 -6 -50 -12 -57 hvcurveto
          endchar
        </CharString>
        <CharString name="R">
          50 0 116 callsubr
          hstemhm
          574 103 hintmask 10111000
          673 -26 callsubr
          hintmask 01111000
          153 callgsubr
          hintmask 10111000
          -54 callsubr
          endchar
        </CharString>
        <CharString name="Racute">
          102 0 116 callsubr
          262 -20 hstemhm
          482 103 hintmask 10111100
          581 -26 callsubr
          hintmask 01111100
          153 callgsubr
          hintmask 10111100
          -54 callsubr
          82 417 rmoveto
          -97 callgsubr
        </CharString>
        <CharString name="Rcaron">
          102 0 116 callsubr
          156 callsubr
          482 103 hintmask 10110110
          581 512 rmoveto
          -11 -52 -29 -42 -46 -33 -43 -31 -52 -17 -59 -5 146 -278 rcurveline
          6 -15 19 -8 32 -3 -6 -29 rcurveline
          2 -50 -23 1 3 hhcurveto
          -8 -9 -1 -1 -11 hvcurveto
          hintmask 01110110
          -2 -13 -9 -1 -7 hhcurveto
          -7 11 -9 17 -13 24 -109 234 rcurveline
          -4 9 -10 15 -17 21 rrcurveto
          -68 hlineto
          hintmask 10110110
          -62 -297 rlineto
          94 hlineto
          -7 -31 rlineto
          -283 hlineto
          7 31 rlineto
          94 hlineto
          15 callsubr
          -94 hlineto
          7 31 173 callsubr
          71 54 -13 -26 37 hvcurveto
          35 -24 17 -34 -43 vvcurveto
          -12 -1 -13 -3 -13 vhcurveto
          -103 2 rmoveto
          3 13 1 12 12 vvcurveto
          72 -43 36 -87 vhcurveto
          -107 hlineto
          -65 -303 rlineto
          87 hlineto
          121 71 53 105 19 hvcurveto
          hintmask 10101010
          124 394 rmoveto
          hintmask 10110110
          23 callgsubr
          hintmask 10101010
          -36 callgsubr
        </CharString>
        <CharString name="Rcommaaccent">
          102 -270 162 callsubr
          73 116 callsubr
          hstemhm
          201 129 152 103 hintmask 11101111
          581 -26 callsubr
          hintmask 11011111
          153 callgsubr
          hintmask 11101111
          -54 callsubr
          -300 -805 -68 callgsubr
          rrcurveto
          endchar
        </CharString>
        <CharString name="Rho">
          40 0 31 268 28 332 31 hstem
          581 106 vstem
          683 -46 callgsubr
          endchar
        </CharString>
        <CharString name="Ring">
          -290 743 22 147 22 hstem
          241 43 122 43 vstem
          422 789 rmoveto
          18 21 9 23 27 vvcurveto
          45 -37 29 -47 -29 -26 -9 -18 -23 vhcurveto
          -31 -24 -15 -30 -36 vvcurveto
          -45 36 -29 47 39 33 15 31 26 vhcurveto
          -16 68 rmoveto
          -21 -8 -21 -15 -20 vhcurveto
          -20 -15 -18 -10 -21 hhcurveto
          -30 -15 19 37 21 7 21 15 19 hvcurveto
          20 15 18 10 21 hhcurveto
          31 15 -18 -37 hvcurveto
          endchar
        </CharString>
        <CharString name="Ringsmall">
          -290 518 21 134 21 hstem
          199 40 112 40 vstem
          345 541 rmoveto
          31 21 15 28 37 vvcurveto
          41 -34 26 -43 -26 -24 -8 -16 -22 vhcurveto
          -29 -22 -14 -28 -33 vvcurveto
          -41 34 -28 43 23 23 8 15 23 vhcurveto
          6 83 rmoveto
          -25 -9 -21 -18 -19 vhcurveto
          -13 -13 -15 -7 -15 hhcurveto
          -28 -14 17 35 19 7 19 13 17 hvcurveto
          18 14 17 9 19 hhcurveto
          28 14 -16 -33 hvcurveto
          endchar
        </CharString>
        <CharString name="S">
          -113 -14 46 609 47 hstem
          104 70 262 33 vstem
          490 -73 callgsubr
          endchar
        </CharString>
        <CharString name="Sacute">
          -88 -14 46 609 47 259 -20 hstem
          435 -73 callgsubr
          61 271 rmoveto
          -97 callgsubr
        </CharString>
        <CharString name="Scaron">
          -113 -14 46 609 47 0 225 1 -20 hstemhm
          49 70 262 33 hintmask 11011100
          435 655 rmoveto
          -13 -41 -8 -43 -3 -47 rrcurveto
          -30 74 hlineto
          29 -23 -37 14 -49 hhcurveto
          -43 -36 -13 -27 -30 hvcurveto
          -29 -27 -15 -34 -42 vvcurveto
          -65 31 -38 62 -13 vhcurveto
          63 -13 rlineto
          93 -19 46 -46 -73 vvcurveto
          -71 -30 -59 -60 -48 vhcurveto
          -45 -55 -64 -22 -73 hhcurveto
          -55 -49 12 24 -43 hvcurveto
          11 51 7 50 5 47 rrcurveto
          29 -96 hlineto
          -28 37 46 -14 53 hhcurveto
          48 39 14 29 31 hvcurveto
          31 29 16 39 47 vvcurveto
          54 -26 33 -53 13 vhcurveto
          -92 22 rlineto
          -85 20 -33 46 88 vvcurveto
          62 28 53 56 45 vhcurveto
          41 52 58 21 63 hhcurveto
          47 43 -11 -22 39 hvcurveto
          hintmask 10101100
          60 258 rmoveto
          hintmask 11011100
          23 callgsubr
          hintmask 10101100
          -36 callgsubr
        </CharString>
        <CharString name="Scedilla">
          -88 -221 34 81 35 57 46 -22 -21 652 47 hstemhm
          105 70 3 70 189 33 hintmask 11101111
          491 655 rmoveto
          22 -39 -43 11 -47 hhcurveto
          -64 -58 -21 -41 -52 hvcurveto
          -55 -45 -28 -53 -62 110 callgsubr
          92 -22 rlineto
          53 -13 26 -33 -54 vvcurveto
          -47 -16 -39 -31 -29 vhcurveto
          -29 -31 -40 -14 -47 hhcurveto
          -54 -45 14 28 -37 hvcurveto
          96 -29 vlineto
          -5 -47 -7 -50 -11 -51 rrcurveto
          -24 43 49 -12 55 hhcurveto
          72 64 22 45 56 hvcurveto
          60 48 30 59 71 vvcurveto
          73 -46 46 -93 19 vhcurveto
          -63 13 rlineto
          -62 13 -31 38 65 vvcurveto
          42 15 34 29 27 vhcurveto
          27 29 37 13 43 hhcurveto
          49 37 -14 -29 23 hvcurveto
          -74 30 vlineto
          3 47 8 43 13 41 rrcurveto
          -243 -794 36 callgsubr
          hintmask 11011111
          -60 callgsubr
          21 hvcurveto
          29 14 14 22 30 vvcurveto
          endchar
        </CharString>
        <CharString name="Scircumflex">
          -126 -14 46 609 47 0 58 136 callgsubr
          49 70 262 33 hintmask 11011100
          435 -73 callgsubr
          -55 255 rmoveto
          -47 hlineto
          hintmask 10111100
          -42 callsubr
        </CharString>
        <CharString name="Scommaaccent">
          -88 -266 162 callsubr
          55 46 609 47 hstemhm
          49 70 -28 129 161 33 hintmask 11111010
          435 -73 callgsubr
          -367 -942 12 callgsubr
          hintmask 11110110
          50 callsubr
          83 callsubr
        </CharString>
        <CharString name="Sigma">
          100 0 78 581 31 hstem
          152 9 callgsubr
        </CharString>
        <CharString name="T">
          -14 callgsubr
        </CharString>
        <CharString name="Tau">
          -14 callgsubr
        </CharString>
        <CharString name="Tbar">
          33 0 31 395 37 24 203 -33 33 hstemhm
          hintmask 11100000
          64 690 rmoveto
          -45 -203 rlineto
          30 hlineto
          16 57 24 42 33 28 rrcurveto
          hintmask 11010000
          31 26 46 14 61 3 47 2 rcurveline
          -42 -196 rlineto
          -183 hlineto
          -8 -37 rlineto
          184 hlineto
          -84 -395 rlineto
          -94 -67 callgsubr
          84 395 rlineto
          174 hlineto
          8 37 rlineto
          -174 hlineto
          42 196 44 -2 65 -3 43 -14 19 -26 rlinecurve
          16 -21 8 -27 -35 vvcurveto
          hintmask 11100000
          -9 -1 -15 -2 -20 vhcurveto
          30 hlineto
          40 202 callgsubr
        </CharString>
        <CharString name="Tcaron">
          33 0 188 callgsubr
          156 callsubr
          hintmask 11001000
          656 690 rmoveto
          -40 -203 rlineto
          -30 hlineto
          2 20 1 15 9 vvcurveto
          35 -8 27 -16 21 vhcurveto
          hintmask 10101000
          -19 26 -43 14 -65 3 -44 2 rcurveline
          -134 -628 rlineto
          94 hlineto
          -7 -31 rlineto
          -288 hlineto
          7 31 rlineto
          94 hlineto
          61 callgsubr
          -47 -2 -61 -3 -46 -14 -31 -26 rlinecurve
          hintmask 11001000
          -33 -28 -24 -42 -16 -57 rrcurveto
          -30 hlineto
          45 203 rlineto
          hintmask 10010000
          515 218 rmoveto
          hintmask 11001000
          23 callgsubr
          hintmask 10010000
          -36 callgsubr
        </CharString>
        <CharString name="Tcommaaccent">
          33 -262 162 callsubr
          65 188 callgsubr
          hstemhm
          121 129 hintmask 11110100
          50 690 rmoveto
          -45 -203 rlineto
          30 hlineto
          16 57 24 42 33 28 rrcurveto
          hintmask 11101100
          31 26 46 14 61 3 47 2 rcurveline
          -133 -628 rlineto
          -94 -67 callgsubr
          134 628 44 -2 65 -3 43 -14 19 -26 rlinecurve
          16 -21 8 -27 -35 vvcurveto
          hintmask 11110100
          -9 -1 -15 -2 -20 vhcurveto
          30 hlineto
          40 203 rlineto
          -558 -973 -68 callgsubr
          rrcurveto
          endchar
        </CharString>
        <CharString name="Theta">
          108 -15 35 304 82 -82 148 199 31 hstemhm
          66 106 442 103 hintmask 10111100
          702 324 rmoveto
          10 39 5 36 35 vvcurveto
          79 -23 63 -47 48 vhcurveto
          -47 49 -63 26 -79 3 -89 4 -79 -26 -68 -57 -72 -60 -48 -84 -24 -108 rrcurveto
          -8 -35 -4 -33 -33 vvcurveto
          -83 23 -68 47 -52 vhcurveto
          47 -52 61 -27 74 -3 95 -3 83 32 69 65 64 60 46 82 27 103 rrcurveto
          -117 1 rmoveto
          -25 -81 -32 -67 -37 -53 -50 -71 -54 -35 -59 2 rrcurveto
          -104 3 -52 68 133 vvcurveto
          35 4 39 8 42 vhcurveto
          15 85 32 75 48 65 53 73 59 36 64 -3 rrcurveto
          106 -4 53 -60 -116 vvcurveto
          -49 -10 -55 -19 -62 vhcurveto
          -96 147 rmoveto
          hintmask 11011100
          -13 -66 rlineto
          -149 hlineto
          hintmask 10111100
          14 66 rlineto
          -31 hlineto
          -46 -216 rlineto
          31 hlineto
          15 68 rlineto
          148 hlineto
          -14 -68 rlineto
          27 hlineto
          49 216 rlineto
          endchar
        </CharString>
        <CharString name="Thorn">
          -4 0 31 111 28 332 31 126 31 hstem
          511 106 vstem
          151 690 -91 callsubr
          288 -28 callgsubr
          100 471 rlineto
          74 hlineto
          87 44 -38 -77 -15 -2 -17 -3 -17 hvcurveto
          -10 -57 -26 -43 -43 -29 rrcurveto
          -26 -37 -46 -13 -54 hhcurveto
          -16 hlineto
          -6 -28 rlineto
          15 hlineto
          93 72 13 26 51 hvcurveto
          61 31 38 53 15 73 rrcurveto
          3 15 1 13 13 vvcurveto
          48 -18 37 -36 27 vhcurveto
          28 -38 -55 14 -72 hhcurveto
          -86 hlineto
          27 126 rlineto
          94 hlineto
          -33 callgsubr
          endchar
        </CharString>
        <CharString name="Tilde">
          -290 783 62 -14 62 hstemhm
          hintmask 01000000
          523 893 rmoveto
          -22 hlineto
          hintmask 10000000
          -32 -19 -23 -16 -27 hhcurveto
          -12 -22 8 16 -31 hvcurveto
          hintmask 01000000
          16 -31 -25 8 -19 hhcurveto
          -26 -26 -12 -23 -26 hvcurveto
          -23 -21 -17 -23 -11 -27 rrcurveto
          hintmask 10000000
          3 -4 rlineto
          22 hlineto
          hintmask 01000000
          32 18 23 16 29 hhcurveto
          10 21 -8 -16 31 hvcurveto
          hintmask 10000000
          -16 31 26 -8 20 hhcurveto
          26 26 12 23 26 hvcurveto
          22 21 17 24 12 27 rrcurveto
          endchar
        </CharString>
        <CharString name="Tildesmall">
          -290 550 59 -37 -21 49 59 2 -20 hstemhm
          hintmask 10010000
          474 661 rmoveto
          -25 hlineto
          -35 -20 -22 -17 -25 hhcurveto
          -12 -22 8 17 -31 hvcurveto
          hintmask 01100000
          17 -31 -25 8 -19 hhcurveto
          -26 -26 -11 -23 -25 hvcurveto
          -22 -21 -17 -23 -11 -27 2 -3 rcurveline
          24 hlineto
          33 20 23 16 25 hhcurveto
          12 21 -8 -17 31 hvcurveto
          hintmask 10010000
          -17 31 24 -8 19 hhcurveto
          27 27 12 24 25 hvcurveto
          21 20 17 24 12 28 rrcurveto
          endchar
        </CharString>
        <CharString name="U">
          153 77 callgsubr
          hstem
          120 92 vstem
          614 690 rmoveto
          -101 callgsubr
          7 35 14 25 21 17 rrcurveto
          7 8 24 26 callsubr
          endchar
        </CharString>
        <CharString name="Uacute">
          102 77 callgsubr
          253 -20 hstem
          30 92 vstem
          524 690 rmoveto
          -101 callgsubr
          7 35 14 25 21 17 rrcurveto
          7 8 24 26 callsubr
          -113 232 rmoveto
          -97 callgsubr
        </CharString>
        <CharString name="Ubreve">
          102 77 callgsubr
          53 180 callgsubr
          30 92 203 23 vstem
          524 690 rmoveto
          -101 callgsubr
          7 35 14 25 21 17 rrcurveto
          7 8 24 26 callsubr
          -159 187 -98 callgsubr
          endchar
        </CharString>
        <CharString name="Ucircumflex">
          102 77 callgsubr
          0 48 136 callgsubr
          30 92 hintmask 11011000
          524 690 rmoveto
          -101 callgsubr
          7 35 14 25 21 17 rrcurveto
          7 8 24 26 callsubr
          -264 212 rmoveto
          -47 hlineto
          hintmask 10111000
          -42 callsubr
        </CharString>
        <CharString name="Udieresis">
          102 77 callgsubr
          50 97 hstem
          30 92 vstem
          524 690 rmoveto
          -101 callgsubr
          7 35 14 25 21 17 rrcurveto
          7 8 24 26 callsubr
          -168 99 rmoveto
          25 5 -19 23 -25 hhcurveto
          -25 -28 -23 -25 -5 hvcurveto
          -25 -5 18 -24 25 hhcurveto
          24 30 24 25 5 hvcurveto
          -194 hmoveto
          25 5 -19 23 -25 hhcurveto
          -25 -28 -23 -25 -5 hvcurveto
          -25 -5 18 -24 25 hhcurveto
          24 30 24 25 5 hvcurveto
          endchar
        </CharString>
        <CharString name="Ugrave">
          102 77 callgsubr
          -31 248 hstemhm
          30 92 hintmask 11010000
          524 690 rmoveto
          -101 callgsubr
          7 35 14 25 21 17 rrcurveto
          7 8 24 26 callsubr
          -480 200 rmoveto
          hintmask 10110000
          -66 callsubr
        </CharString>
        <CharString name="Uhorn">
          102 77 callgsubr
          159 -20 hstem
          30 92 608 102 vstem
          830 746 rmoveto
          1 7 1 96 callgsubr
          26 -37 17 vhcurveto
          2 -4 -4 1 -4 hhcurveto
          -19 -15 -19 -17 -9 4 -7 9 -5 hvcurveto
          32 -17 15 -17 -3 -17 rrcurveto
          -35 -7 -38 -17 -70 hhcurveto
          -12 -11 0 1 -9 hvcurveto
          -116 hlineto
          -101 callgsubr
          5 25 5 17 3 8 7 17 9 9 13 1 95 12 52 32 8 53 rrcurveto
          endchar
        </CharString>
        <CharString name="Uhungarumlaut">
          102 77 callgsubr
          272 -20 hstem
          30 92 vstem
          524 690 rmoveto
          -101 callgsubr
          7 35 14 25 21 17 rrcurveto
          7 8 24 26 callsubr
          -106 237 -56 callsubr
        </CharString>
        <CharString name="Umacron">
          102 77 callgsubr
          50 51 hstem
          30 92 vstem
          524 690 rmoveto
          -101 callgsubr
          7 35 14 25 21 17 rrcurveto
          7 8 24 26 callsubr
          -148 101 -6 callsubr
        </CharString>
        <CharString name="Uogonek">
          102 -181 52 110 33 645 31 hstem
          30 92 45 59 vstem
          317 -96 70 callgsubr
          20 11 25 23 29 hvcurveto
          93 1 69 22 45 42 45 43 35 76 23 110 63 297 rcurveline
          7 35 14 25 21 17 rrcurveto
          7 8 24 26 callsubr
          -228 hlineto
          -53 callgsubr
          37 22 -3 -6 6 hvcurveto
          15 -16 3 -26 -8 -36 -69 -328 rcurveline
          -18 -85 -31 -61 -44 -37 rrcurveto
          -31 -38 -50 -16 -61 hhcurveto
          -107 -53 45 90 20 3 23 5 25 hvcurveto
          98 442 rlineto
          94 hlineto
          -33 callgsubr
          -286 hlineto
          -6 85 callsubr
          -95 -444 rlineto
          -3 -15 -1 -15 -15 vvcurveto
          -50 16 -42 32 -34 vhcurveto
          35 -37 48 -21 63 -4 rrcurveto
          -38 -43 -19 -36 -29 7 callgsubr
          endchar
        </CharString>
        <CharString name="Upsilon">
          21 40 callgsubr
          hstemhm
          284 129 callsubr
          hintmask 11011000
          697 -76 callgsubr
          rrcurveto
          hintmask 10111000
          -6 -25 80 -4 53 -28 26 -53 rlinecurve
          -83 callgsubr
          76 callgsubr
          hintmask 11011000
          6 callsubr
          endchar
        </CharString>
        <CharString name="Upsilondieresis">
          21 40 callgsubr
          42 93 hstemhm
          258 93 -68 68 125 92 5 126 hintmask 11010111
          697 -76 callgsubr
          rrcurveto
          hintmask 10110111
          -6 -25 79 -4 53 -28 27 -53 rlinecurve
          19 -39 9 -44 -51 vvcurveto
          -48 -9 -68 -18 -87 vhcurveto
          -49 -232 17 callgsubr
          286 hlineto
          7 31 rlineto
          -94 hlineto
          49 232 19 91 24 76 27 61 rlinecurve
          49 108 50 61 53 15 rrcurveto
          2 7 6 1 5 hhcurveto
          16 8 -7 -13 -8 -3 -5 -5 -3 hvcurveto
          76 callgsubr
          hintmask 11011011
          6 callsubr
          -129 186 rmoveto
          137 callgsubr
          -218 hmoveto
          137 callgsubr
          endchar
        </CharString>
        <CharString name="Uring">
          102 77 callgsubr
          58 30 129 31 hstem
          30 92 230 36 131 37 vstem
          524 690 rmoveto
          -101 callgsubr
          7 35 14 25 21 17 rrcurveto
          7 8 24 26 callsubr
          -318 58 -58 callsubr
          39 38 41 vhcurveto
          29 1 22 -22 -29 vvcurveto
          endchar
        </CharString>
        <CharString name="Utilde">
          102 77 callgsubr
          52 66 callsubr
          30 92 hintmask 11001100
          524 690 rmoveto
          -101 callgsubr
          7 35 14 25 21 17 rrcurveto
          7 8 24 26 callsubr
          -178 152 -35 callgsubr
          hintmask 11100100
          -25 callsubr
          hintmask 11010100
          -30 callsubr
          hintmask 11100100
          76 callsubr
          hintmask 11001100
          47 callsubr
        </CharString>
        <CharString name="V">
          95 0 -21 679 31 hstem
          584 689 rmoveto
          -53 callgsubr
          39 20 -3 -7 3 hvcurveto
          1 -3 1 -3 -4 vvcurveto
          -19 -12 -29 -24 -39 vhcurveto
          -255 -422 -70 529 rlineto
          80 hlineto
          -33 callgsubr
          -253 hlineto
          -53 callgsubr
          75 hlineto
          92 -679 rlineto
          33 hlineto
          338 572 30 51 26 32 21 13 rlinecurve
          14 9 25 3 35 -1 6 31 rcurveline
          endchar
        </CharString>
        <CharString name="W">
          420 192 callgsubr
          hstem
          196 99 vstem
          896 -71 callgsubr
          endchar
        </CharString>
        <CharString name="Wacute">
          357 192 callgsubr
          254 -20 hstem
          104 99 vstem
          804 -71 callgsubr
          -251 233 rmoveto
          -97 callgsubr
        </CharString>
        <CharString name="Wcircumflex">
          420 192 callgsubr
          214 -20 hstem
          104 99 vstem
          804 -71 callgsubr
          -438 214 rmoveto
          -47 hlineto
          -42 callsubr
        </CharString>
        <CharString name="Wdieresis">
          362 192 callgsubr
          52 97 hstem
          104 99 vstem
          804 -71 callgsubr
          -336 101 rmoveto
          25 5 -19 23 -25 hhcurveto
          -25 -28 -23 -25 -5 hvcurveto
          -25 -5 18 -24 25 hhcurveto
          24 30 24 25 5 hvcurveto
          -194 hmoveto
          25 5 -19 23 -25 hhcurveto
          -25 -28 -23 -25 -5 hvcurveto
          -25 -5 18 -24 25 hhcurveto
          24 30 24 25 5 hvcurveto
          endchar
        </CharString>
        <CharString name="Wgrave">
          354 192 callgsubr
          217 -20 hstem
          104 99 vstem
          804 -71 callgsubr
          -637 200 rmoveto
          -66 callsubr
        </CharString>
        <CharString name="X">
          142 103 callsubr
          583 78 callgsubr
          -41 -11 callsubr
          267 hlineto
          7 31 rlineto
          -71 hlineto
          -185 350 190 193 31 30 26 20 162 callgsubr
        </CharString>
        <CharString name="Xi">
          92 0 88 218 86 214 84 hstem
          191 690 rmoveto
          123 callgsubr
          366 hlineto
          29 16 -6 -11 2 hvcurveto
          5 -16 -1 -20 -6 -25 rrcurveto
          27 hlineto
          32 162 rlineto
          -179 -225 rmoveto
          -14 -64 -3 -7 -4 -3 -7 1 rlinecurve
          -257 hlineto
          -5 -3 3 7 1 hvcurveto
          14 63 rlineto
          -27 hlineto
          -53 -242 rlineto
          27 hlineto
          16 74 rlineto
          6 3 4 3 5 hhcurveto
          257 hlineto
          7 3 -3 -6 -1 hvcurveto
          -16 -74 rlineto
          28 hlineto
          52 242 rlineto
          38 -278 rmoveto
          -8 -35 -11 -26 -13 -17 rrcurveto
          -14 -11 -17 -7 -25 hhcurveto
          -409 hlineto
          -22 -13 6 13 -5 hvcurveto
          -3 7 -1 8 11 vvcurveto
          16 3 18 5 20 vhcurveto
          -28 hlineto
          -40 -187 rlineto
          585 hlineto
          40 187 rlineto
          endchar
        </CharString>
        <CharString name="Y">
          64 103 callsubr
          541 -87 callgsubr
          endchar
        </CharString>
        <CharString name="Yacute">
          19 11 callgsubr
          261 -20 hstem
          463 -87 callgsubr
          -110 240 rmoveto
          -97 callgsubr
        </CharString>
        <CharString name="Ycircumflex">
          17 11 callgsubr
          0 56 136 callgsubr
          hintmask 11010000
          463 -87 callgsubr
          -268 220 rmoveto
          -47 hlineto
          hintmask 10110000
          -42 callsubr
        </CharString>
        <CharString name="Ydieresis">
          17 11 callgsubr
          51 97 hstem
          463 -87 callgsubr
          -165 100 rmoveto
          25 5 -19 23 -25 hhcurveto
          -25 -28 -23 -25 -5 hvcurveto
          -25 -5 18 -24 25 hhcurveto
          24 30 24 25 5 hvcurveto
          -194 hmoveto
          25 5 -19 23 -25 hhcurveto
          -25 -28 -23 -25 -5 hvcurveto
          -25 -5 18 -24 25 hhcurveto
          24 30 24 25 5 hvcurveto
          endchar
        </CharString>
        <CharString name="Ygrave">
          12 11 callgsubr
          192 -20 hstem
          463 -87 callgsubr
          -477 175 rmoveto
          -66 callsubr
        </CharString>
        <CharString name="Z">
          39 0 32 626 32 1 -20 hstemhm
          hintmask 10100000
          168 -47 callgsubr
          rlineto
          hintmask 11000000
          546 659 rlineto
          endchar
        </CharString>
        <CharString name="Zacute">
          37 0 32 626 32 259 -20 hstem
          115 -47 callgsubr
          546 659 rlineto
          -39 238 rmoveto
          -97 callgsubr
        </CharString>
        <CharString name="Zcaron">
          37 0 32 626 32 156 callsubr
          hintmask 10100000
          645 690 rmoveto
          -546 -659 218 3 rlineto
          19 24 5 10 28 hvcurveto
          28 10 22 11 17 13 43 33 31 53 19 71 rrcurveto
          37 hlineto
          -64 -240 rlineto
          -573 hlineto
          544 659 -175 -2 -71 -1 -49 -13 -27 -26 rlinecurve
          -23 -21 -17 -24 -11 -25 -5 -11 -6 -20 -8 -29 rrcurveto
          -31 hlineto
          46 204 rlineto
          514 217 rmoveto
          hintmask 11010000
          23 callgsubr
          hintmask 10100000
          -36 callgsubr
        </CharString>
        <CharString name="Zdotaccent">
          37 0 32 626 32 47 94 hstem
          115 -47 callgsubr
          546 659 rlineto
          -188 96 -49 callsubr
        </CharString>
        <CharString name="Zeta">
          39 0 32 626 32 1 -20 hstemhm
          hintmask 10100000
          168 -47 callgsubr
          rlineto
          hintmask 11000000
          546 659 rlineto
          endchar
        </CharString>
        <CharString name="_339">
          -176 525 187 callsubr
          hintmask 11000000
          492 575 rmoveto
          24 4 -16 22 -25 hhcurveto
          -28 -27 -27 -29 -25 12 -12 24 24 27 23 24 5 hvcurveto
          -64 73 rmoveto
          9 9 4 12 15 vvcurveto
          hintmask 10100000
          21 -10 11 -20 -18 -13 -7 -15 -9 vhcurveto
          -101 -187 21 -3 rlineto
          -21 71 rmoveto
          hintmask 11000000
          24 5 -17 22 -24 hhcurveto
          -25 -27 -21 -25 -5 hvcurveto
          -25 -5 18 -22 24 hhcurveto
          25 26 23 24 5 hvcurveto
          endchar
        </CharString>
        <CharString name="_432">
          -4 167 callsubr
          hstem
          1 71 461 71 vstem
          604 -78 callsubr
          endchar
        </CharString>
        <CharString name="_452">
          127 endchar
        </CharString>
        <CharString name="_805">
          -60 542 92 hstemhm
          148 94 0 174 hintmask 10100000
          509 589 151 callsubr
          -29 -27 -27 -29 -24 12 -12 25 24 27 22 25 5 hvcurveto
          -324 101 callgsubr
          hvcurveto
          hintmask 11000000
          -29 -28 -26 -29 -25 12 -12 25 hvcurveto
          endchar
        </CharString>
        <CharString name="_951">
          -623 522 60 -41 -21 41 56 9 -20 hstemhm
          hintmask 10010000
          143 626 -4 callgsubr
          hintmask 01100000
          -46 callsubr
          hintmask 10010000
          4 callgsubr
          endchar
        </CharString>
        <CharString name="a">
          -14 5 callgsubr
          104 callgsubr
          hintmask 10110000
          404 -96 callsubr
          hintmask 01101000
          -61 callgsubr
          hintmask 10110000
          61 callsubr
        </CharString>
        <CharString name="aacute">
          -17 5 callgsubr
          241 -20 hstemhm
          24 70 hintmask 10111000
          407 97 rmoveto
          -21 -25 -28 -25 -100 callgsubr
          67 callgsubr
          hintmask 01111000
          -64 callgsubr
          193 286 rmoveto
          -97 callgsubr
        </CharString>
        <CharString name="abreve">
          -14 5 callgsubr
          64 54 84 -20 hstemhm
          28 70 0 155 -57 23 hintmask 10111101
          411 -96 callsubr
          hintmask 01111010
          -61 callgsubr
          hintmask 10111101
          -92 callsubr
          131 264 -98 callgsubr
          endchar
        </CharString>
        <CharString name="acircumflex">
          -16 5 callgsubr
          231 -20 hstemhm
          28 70 0 155 hintmask 10111000
          333 32 callgsubr
          -7 -432 0 callsubr
          -18 -2 -17 -17 vvcurveto
          -64 callgsubr
          endchar
        </CharString>
        <CharString name="acute">
          -453 521 143 callsubr
          336 684 rmoveto
          -97 callgsubr
        </CharString>
        <CharString name="acutecomb">
          -433 486 143 callsubr
          178 635 -1 callsubr
        </CharString>
        <CharString name="adieresis">
          -15 5 callgsubr
          66 97 hstemhm
          27 70 0 155 hintmask 10111000
          441 579 rmoveto
          99 callgsubr
          -194 hmoveto
          99 callgsubr
          163 -480 0 callsubr
          -17 -2 -18 -17 vvcurveto
          -21 8 -11 17 21 47 30 61 72 vhcurveto
          -85 320 rmoveto
          -18 -97 -30 -77 -42 -57 rrcurveto
          hintmask 10111000
          61 callsubr
        </CharString>
        <CharString name="ae">
          2 167 callsubr
          hstem
          15 71 461 71 vstem
          618 -78 callsubr
          endchar
        </CharString>
        <CharString name="aeacute">
          2 167 callsubr
          235 -20 hstem
          15 71 461 71 vstem
          618 -78 callsubr
          353 461 rmoveto
          -97 callgsubr
        </CharString>
        <CharString name="afii00208">
          123 callsubr
        </CharString>
        <CharString name="afii61248">
          74 -11 28 -13 -21 271 27 131 37 218 36 hstemhm
          20 61 299 64 171 65 hintmask 01111111
          253 467 rmoveto
          -12 -25 -23 -6 -20 hhcurveto
          -34 -26 13 26 -19 hvcurveto
          -17 23 -8 30 35 vvcurveto
          61 26 30 53 29 32 -15 -13 5 vhcurveto
          1 -3 1 -10 1 -17 4 -5 rcurveline
          16 hlineto
          4 5 2 27 3 26 5 23 rlinecurve
          12 -21 -26 6 -31 hhcurveto
          -21 -15 -2 -4 -11 hvcurveto
          -42 -18 -29 -18 -17 -17 rrcurveto
          -20 -21 -10 -32 -41 vvcurveto
          -85 56 -53 85 32 29 7 15 27 vhcurveto
          14 22 rlineto
          -188 -473 -33 callsubr
          308 146 rmoveto
          -41 14 -34 27 -28 vhcurveto
          hintmask 10111111
          -28 27 34 -14 41 hhcurveto
          28 26 7 13 25 hvcurveto
          52 28 26 44 61 vvcurveto
          84 -60 55 -84 -45 -37 -14 -27 -30 vhcurveto
          -29 -27 -15 -35 -44 vvcurveto
          64 20 rmoveto
          67 26 33 52 33 25 -15 -30 16 vhcurveto
          13 -23 6 -30 -36 vvcurveto
          -69 -26 -34 -51 -33 -24 15 31 -17 vhcurveto
          -13 25 -7 30 36 vvcurveto
          endchar
        </CharString>
        <CharString name="agrave">
          -17 5 callgsubr
          204 -20 104 callgsubr
          hintmask 10111000
          404 97 rmoveto
          -21 -25 -28 -25 -100 callgsubr
          hintmask 01110100
          -4 -18 -2 -17 -17 vvcurveto
          -64 callgsubr
          -129 253 rmoveto
          -66 callsubr
        </CharString>
        <CharString name="alpha">
          26 -16 -2 callgsubr
          172 callsubr
          hintmask 10110000
          648 454 -94 callgsubr
          hintmask 01110000
          -82 callsubr
          hintmask 10110000
          -79 callsubr
        </CharString>
        <CharString name="amacron">
          -14 5 callgsubr
          65 51 104 callgsubr
          hintmask 10111000
          404 -96 callsubr
          hintmask 01110100
          -4 -18 -2 -17 -17 vvcurveto
          -64 callgsubr
          123 182 -6 callsubr
        </CharString>
        <CharString name="ampersand">
          132 -17 45 251 20 324 48 hstem
          46 80 46 70 305 68 94 34 vstem
          743 430 rmoveto
          39 -17 26 -33 13 vhcurveto
          -21 -15 rlineto
          29 -15 8 -10 -29 vvcurveto
          -37 -37 -25 -73 -13 vhcurveto
          -107 -18 -32 -5 -21 -5 -10 -3 rlinecurve
          -23 -7 -20 -12 -15 -17 -8 -96 rcurveline
          22 -2 7 29 7 18 5 8 rlinecurve
          17 11 19 8 27 hhcurveto
          51 35 -35 -51 -46 -24 -39 -47 -33 hvcurveto
          -31 -45 -49 -16 -53 hhcurveto
          -55 -47 13 25 -37 hvcurveto
          -43 29 -21 40 53 vvcurveto
          54 20 42 40 31 vhcurveto
          29 37 45 14 55 hhcurveto
          35 2 hlineto
          7 21 7 15 5 10 -37 -2 -30 7 -25 15 rrcurveto
          -29 18 -14 27 35 vvcurveto
          69 56 48 69 26 28 -10 -21 30 vhcurveto
          -60 22 vlineto
          19 85 5 22 rlineto
          3 1 2 1 3 vhcurveto
          16 -27 -31 8 -37 hhcurveto
          -21 -19 -3 -5 -17 hvcurveto
          -41 -13 -38 -23 -35 -33 rrcurveto
          -41 -39 -20 -38 -39 vvcurveto
          -44 25 -33 51 -23 vhcurveto
          -63 -21 -47 -24 -30 -26 rrcurveto
          -41 -35 -21 -47 -57 vvcurveto
          -64 25 -48 50 -32 vhcurveto
          -27 42 55 -14 67 hhcurveto
          47 44 8 16 41 hvcurveto
          50 19 43 27 37 33 rrcurveto
          45 42 23 43 45 vvcurveto
          40 -30 43 -39 vhcurveto
          2 vlineto
          75 10 35 5 29 11 21 19 rlinecurve
          25 21 12 28 35 vvcurveto
          endchar
        </CharString>
        <CharString name="anoteleia">
          -286 327 126 hstem
          110 127 vstem
          174 453 rmoveto
          -36 -28 -28 -35 -36 28 -27 36 35 28 28 35 35 -28 28 -35 hvcurveto
          endchar
        </CharString>
        <CharString name="aogonek">
          -181 52 115 68 363 48 hstem
          21 70 96 59 vstem
          337 -96 70 callgsubr
          23 14 29 29 34 hvcurveto
          26 11 41 29 55 46 -7 21 rcurveline
          -21 -25 -28 -25 -100 callgsubr
          67 callgsubr
          -13 3 -9 6 -5 vhcurveto
          -45 -48 -23 -40 -31 7 callgsubr
          -24 502 rmoveto
          -18 -98 -30 -77 -42 -56 rrcurveto
          61 callsubr
        </CharString>
        <CharString name="approxequal">
          197 154 48 -35 -21 75 47 50 47 19 48 10 -20 hstemhm
          hintmask 10110100
          734 442 rmoveto
          -51 -73 -61 -26 -49 hhcurveto
          -33 -46 11 22 -61 hvcurveto
          hintmask 10111000
          23 -60 -47 11 -33 hhcurveto
          -58 -62 -24 -47 -66 hvcurveto
          -53 vlineto
          43 27 30 18 16 7 rrcurveto
          16 33 33 8 31 hhcurveto
          33 46 -11 -22 60 hvcurveto
          -22 61 47 -11 33 hhcurveto
          53 61 23 46 69 hvcurveto
          hintmask 10110100
          -108 vmoveto
          -51 -76 -61 -26 -46 hhcurveto
          -33 -47 11 22 -60 hvcurveto
          22 -59 -46 11 -32 hhcurveto
          -59 -63 -23 -45 -67 hvcurveto
          hintmask 01111000
          -54 vlineto
          39 25 29 17 20 9 rrcurveto
          16 34 33 8 31 hhcurveto
          32 46 -11 -23 60 hvcurveto
          hintmask 10111000
          -22 60 46 -11 32 hhcurveto
          63 63 24 47 61 hvcurveto
          endchar
        </CharString>
        <CharString name="aring">
          -20 5 callgsubr
          69 30 129 31 hstemhm
          28 70 125 36 131 37 hintmask 10111111
          411 94 rmoveto
          -21 -25 -28 -25 -100 callgsubr
          67 callgsubr
          hintmask 01111111
          -75 callgsubr
          hintmask 10111111
          -92 callsubr
          -28 135 -58 callsubr
          39 38 41 vhcurveto
          29 1 22 -22 -29 vvcurveto
          endchar
        </CharString>
        <CharString name="aringacute">
          -14 5 callgsubr
          61 30 129 31 231 -20 hstemhm
          21 70 119 36 hintmask 10111111
          404 -96 callsubr
          67 callgsubr
          hintmask 01111111
          -75 callgsubr
          hintmask 10111111
          -92 callsubr
          -34 127 -58 callsubr
          39 38 41 vhcurveto
          29 1 22 -22 -29 vvcurveto
          195 291 rmoveto
          -97 callgsubr
        </CharString>
        <CharString name="asciicircum">
          -123 265 -21 382 -20 hstem
          274 626 rmoveto
          -48 hlineto
          -177 -382 rlineto
          63 hlineto
          138 311 138 -311 rlineto
          62 hlineto
          endchar
        </CharString>
        <CharString name="asciitilde">
          -35 184 -21 21 61 7 62 15 -20 hstemhm
          hintmask 01010000
          504 329 rmoveto
          -11 -22 -13 -19 -17 -15 rrcurveto
          -19 -20 -20 -9 -20 hhcurveto
          -17 -33 11 23 -51 hvcurveto
          hintmask 10100000
          23 -51 -38 12 -26 hhcurveto
          -31 -27 -12 -24 -25 hvcurveto
          -16 -15 -18 -26 -21 -35 34 -39 rcurveline
          17 29 14 20 10 11 rrcurveto
          19 19 20 10 23 hhcurveto
          17 28 -8 -17 40 hvcurveto
          -29 69 43 -14 19 hhcurveto
          53 46 35 71 37 hvcurveto
          endchar
        </CharString>
        <CharString name="asterisk">
          -221 333 -21 81 236 81 -20 hstem
          303 198 vstem
          501 599 rmoveto
          20 -11 10 -23 -8 -8 -2 -4 -9 vhcurveto
          -6 -3 -14 -11 -22 -21 -22 -20 -25 -18 -28 -16 2 7 10 24 19 41 rrcurveto
          16 35 8 23 11 vvcurveto
          23 -10 12 -20 -23 -23 -21 -25 -5 vhcurveto
          -1 -7 0 -10 1 -13 rrcurveto
          3 -18 1 -15 -12 vvcurveto
          -17 -2 -19 -3 -20 vhcurveto
          -21 17 -18 18 -14 20 -13 20 -9 11 -5 3 rrcurveto
          4 -7 -7 2 -8 hhcurveto
          -27 -23 -21 -25 -15 5 -10 10 -6 hvcurveto
          5 -3 13 -3 22 -5 25 -5 26 -10 29 -14 -33 -14 -31 -10 -27 -6 -25 -5 -15 -4 -6 -3 rrcurveto
          -21 -11 -11 -15 -19 vvcurveto
          -5 1 -4 2 -4 vhcurveto
          -12 3 10 -6 15 hhcurveto
          9 8 2 3 8 hvcurveto
          8 4 14 11 21 19 24 21 26 18 28 17 -8 -31 -11 -28 -14 -26 -13 -26 -7 -15 -1 -4 -5 -30 11 -15 25 -1 rrcurveto
          21 25 22 23 5 hvcurveto
          1 6 -1 10 -2 14 rrcurveto
          -3 17 -1 16 16 vvcurveto
          16 1 18 2 19 vhcurveto
          21 -17 17 -19 15 -21 rrcurveto
          -36 27 8 -2 16 hhcurveto
          16 13 6 13 9 hvcurveto
          7 8 4 9 10 vvcurveto
          13 -6 10 -11 7 vhcurveto
          -4 3 -13 4 -23 5 -25 5 -27 10 -27 15 35 14 31 10 27 5 24 5 15 3 6 3 rrcurveto
          21 10 11 16 21 vvcurveto
          endchar
        </CharString>
        <CharString name="at">
          189 -17 43 114 20 319 23 139 44 hstem
          100 44 85 74 428 39 vstem
          770 404 rmoveto
          82 -33 68 -65 54 vhcurveto
          51 -62 -73 26 -84 hhcurveto
          -100 -84 -35 -69 -68 hvcurveto
          -67 -69 -34 -85 -100 vvcurveto
          -100 36 -83 71 -65 vhcurveto
          -64 69 84 -32 100 hhcurveto
          63 60 17 34 56 hvcurveto
          56 35 42 45 29 57 rrcurveto
          -46 hlineto
          -97 -62 -85 -48 -108 hhcurveto
          -91 -77 29 57 -61 hvcurveto
          -61 57 -31 74 91 vvcurveto
          89 30 74 60 57 vhcurveto
          58 61 75 29 89 hhcurveto
          69 62 -22 -44 55 hvcurveto
          57 -47 29 -57 -67 vvcurveto
          -72 -23 -61 -46 -51 vhcurveto
          -40 -36 -31 -20 -26 hhcurveto
          -21 -11 12 23 7 1 8 3 10 hvcurveto
          74 274 rlineto
          -72 hlineto
          -19 -70 rlineto
          -2 hlineto
          52 -9 -29 26 -47 hhcurveto
          -58 -50 -25 -50 -43 hvcurveto
          -38 -45 -19 -48 -52 vvcurveto
          -38 12 -33 23 -27 vhcurveto
          -29 25 31 -15 38 hhcurveto
          25 22 7 15 19 hvcurveto
          13 10 17 18 20 27 rrcurveto
          2 hlineto
          1 -23 6 -19 11 -15 rrcurveto
          -17 13 18 -9 22 hhcurveto
          25 27 9 17 31 hvcurveto
          27 15 23 18 20 21 rrcurveto
          47 48 23 63 79 vvcurveto
          -263 hmoveto
          -47 -12 -49 -23 -51 vhcurveto
          -63 -29 -34 -31 -40 hhcurveto
          -23 -17 10 21 -11 hvcurveto
          -10 17 -5 21 26 vvcurveto
          44 14 46 27 48 vhcurveto
          55 31 35 28 41 hhcurveto
          18 14 -8 -17 11 hvcurveto
          9 -15 4 -16 -19 vvcurveto
          endchar
        </CharString>
        <CharString name="atilde">
          -16 5 callgsubr
          71 66 callsubr
          23 70 0 155 hintmask 10110010
          406 98 rmoveto
          -21 -25 -28 -25 -100 callgsubr
          hintmask 01110001
          -61 callgsubr
          hintmask 10100110
          -92 callsubr
          91 237 -35 callgsubr
          hintmask 10110010
          -25 callsubr
          hintmask 10101010
          -30 callsubr
          hintmask 10110010
          76 callsubr
          hintmask 10100110
          47 callsubr
        </CharString>
        <CharString name="b">
          -174 -11 46 376 57 243 -20 hstem
          350 70 vstem
          420 356 rmoveto
          48 -7 33 -13 17 vhcurveto
          9 -7 -12 5 -15 hhcurveto
          -73 -73 -50 -100 -74 hvcurveto
          81 382 -12 11 -25 -13 -26 -10 -25 -6 rlinecurve
          -23 -5 -26 -4 -30 -3 -3 -24 rcurveline
          43 1 30 4 16 6 -110 -588 rcurveline
          -5 -23 10 -20 24 -16 rrcurveto
          -14 21 24 -7 27 hhcurveto
          36 42 16 33 48 hvcurveto
          46 31 38 47 30 63 rrcurveto
          29 60 14 59 58 vvcurveto
          -70 -19 rmoveto
          -54 -13 -60 -27 -67 vhcurveto
          -81 -32 -44 -40 -56 hhcurveto
          -47 -23 21 41 27 4 30 8 31 hvcurveto
          19 73 27 55 35 37 rrcurveto
          35 32 51 26 28 hhcurveto
          25 13 -25 -49 hvcurveto
          endchar
        </CharString>
        <CharString name="backslash">
          -35 21 -21 711 -20 hstem
          137 711 rmoveto
          -58 hlineto
          360 -711 rlineto
          59 hlineto
          endchar
        </CharString>
        <CharString name="bar">
          -35 21 -21 711 -20 hstem
          267 54 vstem
          321 168 callgsubr
          endchar
        </CharString>
        <CharString name="beta">
          -59 -16 53 313 95 258 -20 hstemhm
          -14 99 367 79 -38 63 hintmask 11110100
          553 557 rmoveto
          2 11 1 10 10 vvcurveto
          39 -17 30 -34 21 vhcurveto
          17 -29 -35 8 -42 hhcurveto
          -54 -43 -8 -17 -33 hvcurveto
          -32 -17 -30 -27 -29 -39 -23 -31 -20 -63 -17 -93 -10 -59 -10 -58 -9 -58 -30 -137 -16 -73 -3 -9 -10 -34 -10 -34 -11 -33 rrcurveto
          -15 -53 -8 -34 -15 vvcurveto
          -21 13 -11 27 -1 vhcurveto
          27 -1 18 5 7 10 rrcurveto
          39 2 53 5 68 vhcurveto
          8 59 7 46 6 34 rrcurveto
          -71 39 50 -36 61 hhcurveto
          132 88 68 135 45 hvcurveto
          hintmask 11111000
          7 21 3 20 21 vvcurveto
          65 -32 57 -52 27 vhcurveto
          55 34 36 53 15 72 rrcurveto
          -67 hmoveto
          -12 -34 -20 -28 -28 -23 -21 -17 -21 -11 -22 -6 -4 1 -7 1 -11 3 rrcurveto
          1 -6 -10 1 -13 hhcurveto
          -25 -17 -17 -34 -8 hvcurveto
          -2 -10 2 -9 5 -9 rrcurveto
          -11 6 9 -5 13 hhcurveto
          47 41 11 22 37 hvcurveto
          22 -24 11 -34 -43 vvcurveto
          -54 -17 -50 -35 -45 vhcurveto
          -64 -49 -53 -32 -59 hhcurveto
          -53 -42 30 60 -31 hvcurveto
          18 99 22 91 26 83 54 171 73 91 93 11 30 3 24 -6 17 -15 rrcurveto
          hintmask 11110100
          15 -14 8 -19 -25 vvcurveto
          -13 -2 -13 -5 -14 vhcurveto
          endchar
        </CharString>
        <CharString name="braceleft">
          -300 -76 -21 808 -20 hstemhm
          38 67 -30 67 hintmask 11010000
          309 711 rmoveto
          -53 -39 -8 -15 -24 hvcurveto
          -29 -19 -19 -35 -9 -53 -28 -167 rcurveline
          -5 -31 -9 -24 -13 -15 -13 -17 -22 -13 -31 -8 rrcurveto
          40 -12 20 -22 -33 vvcurveto
          -11 -2 -14 -3 -18 vhcurveto
          -26 -151 rlineto
          hintmask 11100000
          -4 -21 -2 -19 -15 vvcurveto
          -34 11 -23 21 -13 vhcurveto
          -11 19 33 -6 48 hhcurveto
          -43 9 -22 27 43 vvcurveto
          11 1 12 3 14 vhcurveto
          27 158 rlineto
          hintmask 11010000
          4 21 2 18 13 vvcurveto
          39 -21 26 -41 11 vhcurveto
          2 vlineto
          33 7 23 14 15 20 12 17 9 26 7 37 30 167 rcurveline
          12 68 24 32 64 16 rrcurveto
          endchar
        </CharString>
        <CharString name="braceright">
          -300 -76 -21 808 -20 hstemhm
          181 67 -30 67 hintmask 11100000
          308 308 rmoveto
          -40 12 -20 22 33 vvcurveto
          11 2 14 3 18 vhcurveto
          26 151 rlineto
          hintmask 11010000
          4 21 2 19 15 vvcurveto
          34 -11 23 -21 13 vhcurveto
          11 -19 -33 6 -48 hhcurveto
          43 -9 22 -27 -43 vvcurveto
          -11 -1 -12 -3 -14 vhcurveto
          -27 -158 rlineto
          hintmask 11100000
          -4 -21 -2 -18 -13 vvcurveto
          -39 21 -26 41 -11 vhcurveto
          -2 vlineto
          -33 -7 -23 -14 -15 -20 -12 -17 -9 -26 -7 -37 -30 -167 rcurveline
          -6 -34 -10 -25 -14 -17 -15 -19 -23 -13 -32 -8 rrcurveto
          53 39 8 15 24 hvcurveto
          29 19 19 35 9 53 28 167 rcurveline
          11 63 21 29 61 16 rrcurveto
          endchar
        </CharString>
        <CharString name="bracketleft">
          -300 -76 -21 806 -20 22 -20 hstemhm
          hintmask 10100000
          316 711 rmoveto
          hintmask 11000000
          -1 -36 -28 -1 -19 hhcurveto
          hintmask 10100000
          -17 -28 1 1 -39 hvcurveto
          -7 -4 -5 -41 -7 -58 -10 -75 rlinecurve
          -21 -155 -21 -133 -20 -111 -26 -145 -14 -76 -1 -5 2 -5 rcurveline
          2 64 32 1 -1 hhcurveto
          10 13 0 -1 17 hvcurveto
          -1 23 16 -1 9 hhcurveto
          5 27 -77 7 rlineto
          -18 1 -9 7 11 vvcurveto
          5 1 12 3 18 vhcurveto
          21 146 16 109 11 73 21 143 19 109 15 76 4 19 7 10 10 1 85 7 rcurveline
          endchar
        </CharString>
        <CharString name="bracketright">
          -300 -76 -21 805 -20 23 -20 hstemhm
          hintmask 10100000
          304 711 rmoveto
          hintmask 11000000
          -2 -64 -32 -1 1 hhcurveto
          -10 -13 0 1 -17 hvcurveto
          hintmask 10100000
          1 -23 -16 1 -9 hhcurveto
          -5 -27 77 -7 rlineto
          18 -1 9 -7 -11 vvcurveto
          -5 -1 -12 -3 -18 vhcurveto
          -21 -146 -16 -109 -11 -73 -21 -143 -19 -109 -15 -76 -4 -19 -7 -10 -10 -1 -85 -7 rcurveline
          -27 vlineto
          1 36 28 1 19 hhcurveto
          17 28 -1 -1 39 hvcurveto
          7 4 5 41 7 58 10 75 rlinecurve
          21 155 21 133 20 111 26 145 14 76 1 5 rrcurveto
          endchar
        </CharString>
        <CharString name="breve">
          -263 529 180 callgsubr
          59 23 vstem
          327 663 -98 callgsubr
          endchar
        </CharString>
        <CharString name="brokenbar">
          -384 5 -21 702 -20 hstem
          90 59 vstem
          149 686 rmoveto
          -59 -294 59 hlineto
          -114 vmoveto
          -59 -294 59 hlineto
          endchar
        </CharString>
        <CharString name="bullet">
          -29 190 -21 337 -20 hstem
          466 337 rmoveto
          46 -17 40 -33 33 vhcurveto
          33 -33 -40 17 -46 hhcurveto
          -46 -40 -17 -33 -33 hvcurveto
          -33 -33 -17 -40 -46 vvcurveto
          -46 17 -40 33 -33 vhcurveto
          -33 33 40 -16 46 hhcurveto
          46 40 16 33 33 hvcurveto
          33 33 17 40 46 vvcurveto
          endchar
        </CharString>
        <CharString name="c">
          155 callsubr
          hstem
          23 74 vstem
          376 -76 callsubr
          endchar
        </CharString>
        <CharString name="cacute">
          155 callsubr
          236 -20 hstem
          23 74 vstem
          376 -76 callsubr
          69 239 rmoveto
          -97 callgsubr
        </CharString>
        <CharString name="caron">
          -153 549 -21 164 -20 21 -20 hstemhm
          hintmask 11000000
          416 692 rmoveto
          hintmask 10100000
          23 callgsubr
          hintmask 11000000
          -36 callgsubr
        </CharString>
        <CharString name="ccaron">
          155 callsubr
          228 -20 21 -20 hstemhm
          23 74 hintmask 11101000
          376 441 rmoveto
          -8 -21 -8 -42 -7 -61 rrcurveto
          -22 58 hlineto
          12 -8 10 -17 8 vhcurveto
          8 -13 -17 4 -21 hhcurveto
          -21 -19 -4 -7 -16 hvcurveto
          -35 -16 -26 -37 -19 -58 rrcurveto
          -15 -45 -7 -48 -51 vvcurveto
          -77 29 -38 57 28 46 21 42 63 vhcurveto
          15 10 7 -20 -48 -40 rlineto
          -42 -51 -50 -21 -50 hhcurveto
          -80 -40 48 95 54 10 52 19 51 hvcurveto
          20 51 25 36 31 20 46 30 30 19 15 7 rrcurveto
          11 23 21 5 21 hhcurveto
          41 30 -8 -16 21 hvcurveto
          110 252 rmoveto
          hintmask 11011000
          23 callgsubr
          hintmask 11101000
          -36 callgsubr
        </CharString>
        <CharString name="ccedilla">
          -228 -220 34 81 35 56 50 -25 -21 427 48 hstemhm
          30 74 59 70 hintmask 11101110
          383 -76 callsubr
          -150 -579 36 callgsubr
          hintmask 11011110
          -60 callgsubr
          22 hvcurveto
          28 14 14 22 30 vvcurveto
          endchar
        </CharString>
        <CharString name="ccircumflex">
          155 callsubr
          0 63 136 callgsubr
          23 74 hintmask 11011000
          376 -76 callsubr
          -87 251 rmoveto
          -47 hlineto
          hintmask 10111000
          -42 callsubr
        </CharString>
        <CharString name="cdotaccent">
          -243 -14 50 381 48 62 94 hstem
          23 74 vstem
          376 -76 callsubr
          -47 135 -49 callsubr
        </CharString>
        <CharString name="cedilla">
          -300 -210 34 81 35 60 -20 hstem
          126 70 vstem
          196 -128 36 callgsubr
          -60 callgsubr
          22 hvcurveto
          28 14 14 22 30 vvcurveto
          endchar
        </CharString>
        <CharString name="cedillaalt">
          -290 -155 35 0 61 hstemhm
          hintmask 10000000
          155 -155 rmoveto
          23 22 7 13 22 hvcurveto
          25 15 12 19 21 vvcurveto
          14 -5 12 -11 9 vhcurveto
          -13 11 -19 5 -24 -2 -15 -1 -17 -5 -19 -10 rrcurveto
          -6 -3 -3 -3 -5 vvcurveto
          -5 6 -2 12 3 vhcurveto
          hintmask 01000000
          2 9 8 1 8 hhcurveto
          27 11 -10 -20 -5 hvcurveto
          -21 -5 -17 -10 -30 -15 -29 9 -9 hhcurveto
          -13 -6 -5 -10 -6 4 -5 7 -3 hvcurveto
          hintmask 10000000
          -10 22 22 -5 21 hhcurveto
          endchar
        </CharString>
        <CharString name="cedillacomb">
          -394 -210 34 81 35 60 -20 hstem
          147 70 vstem
          217 -128 36 callgsubr
          -60 callgsubr
          22 hvcurveto
          28 14 14 22 30 vvcurveto
          endchar
        </CharString>
        <CharString name="cent">
          -123 -91 -21 118 -21 22 -21 455 38 94 -20 hstemhm
          78 71 hintmask 11011100
          349 573 rmoveto
          -32 hlineto
          -19 -106 -10 -3 -13 -6 -16 -7 rlinecurve
          -39 -17 -37 -27 -33 -35 -23 -25 -19 -38 -13 -52 rrcurveto
          -11 -44 -6 -43 -42 vvcurveto
          -39 9 -33 18 -26 vhcurveto
          -30 21 29 -15 37 hhcurveto
          hintmask 10111100
          1 9 7 0 6 hhcurveto
          -17 -98 rlineto
          32 hlineto
          18 104 11 3 11 4 10 5 rlinecurve
          107 52 3 27 rlineto
          -30 -60 -45 -15 -29 hhcurveto
          71 403 rlineto
          8 hlineto
          47 28 -29 -59 7 hvcurveto
          9 4 24 86 rlineto
          24 -10 -25 12 -39 hhcurveto
          -15 -14 -1 -2 -14 hvcurveto
          -109 -436 rmoveto
          -49 10 -25 39 68 vvcurveto
          36 4 37 8 39 vhcurveto
          10 46 13 35 17 24 25 35 31 21 36 8 rrcurveto
          endchar
        </CharString>
        <CharString name="centsuperior">
          -303 238 -21 386 -20 hstem
          40 58 69 23 vstem
          274 317 rmoveto
          -29 -13 -22 -6 -17 1 -16 1 rcurveline
          217 vlineto
          25 27 -15 -12 5 hvcurveto
          1 -2 2 -10 3 -19 4 -3 rcurveline
          10 hlineto
          4 3 1 24 3 24 5 23 rlinecurve
          12 -21 -26 6 -29 hhcurveto
          -4 -5 0 -1 -5 hvcurveto
          21 vlineto
          11 1 10 1 11 vhcurveto
          -5 3 rlineto
          -18 hlineto
          -3 -3 rlineto
          1 -9 0 -11 -13 vvcurveto
          -24 vlineto
          -7 -1 -18 -7 -30 -15 rrcurveto
          -48 -23 -24 -40 -56 vvcurveto
          -76 48 -50 79 -5 vhcurveto
          -13 0 -17 -1 -20 vhcurveto
          3 -3 rlineto
          19 hlineto
          4 3 rlineto
          -1 17 -1 16 13 vvcurveto
          5 vlineto
          28 1 26 6 23 12 13 21 rcurveline
          -113 -5 rmoveto
          -23 7 -17 16 -13 25 rrcurveto
          -11 23 -5 24 25 vvcurveto
          57 23 30 46 3 vhcurveto
          endchar
        </CharString>
        <CharString name="ch202">
          -373 endchar
        </CharString>
        <CharString name="chi">
          -94 -227 69 -59 -21 614 89 hstemhm
          271 28 hintmask 10110000
          454 454 rmoveto
          -39 -59 -59 -85 -79 -111 -3 57 -3 35 -3 14 -11 55 -11 38 -11 22 rrcurveto
          30 -16 -23 15 -29 hhcurveto
          -47 -42 -33 -47 -21 15 -17 15 4 hvcurveto
          5 1 7 5 7 9 rrcurveto
          7 6 11 3 16 hhcurveto
          29 26 -32 -65 21 hvcurveto
          8 -45 5 -36 3 -29 -145 -197 -100 -132 -57 -67 rrcurveto
          102 hlineto
          100 137 73 99 46 62 rrcurveto
          -2 -104 -1 -53 -2 vvcurveto
          9 -49 6 -29 4 -9 rrcurveto
          hintmask 01110000
          -42 16 26 -21 35 hhcurveto
          44 41 24 36 8 hvcurveto
          3 13 -3 12 -8 11 -10 12 -14 5 -17 -3 -9 -1 -9 -6 -8 -9 rrcurveto
          hintmask 10110000
          -9 -7 -8 -5 -9 hhcurveto
          -19 -17 37 75 -13 hvcurveto
          -9 49 -3 51 2 55 115 155 84 115 55 75 rrcurveto
          endchar
        </CharString>
        <CharString name="circumflex">
          -300 551 -21 164 -20 hstem
          230 32 callgsubr
          endchar
        </CharString>
        <CharString name="colon">
          -210 -16 127 227 127 hstemhm
          110 132 -59 130 hintmask 11010000
          234 338 rmoveto
          41 38 37 40 29 -20 21 -31 -41 -38 -36 -41 -29 20 -21 31 hvcurveto
          -72 -354 rmoveto
          hintmask 11100000
          -25 callgsubr
          endchar
        </CharString>
        <CharString name="colonmonetary">
          -18 -51 -21 22 -21 78 -21 720 -20 64 -20 hstemhm
          63 112 hintmask 10111100
          243 41 rmoveto
          -45 29 -23 59 88 vvcurveto
          40 5 43 10 47 vhcurveto
          43 201 82 110 121 18 rrcurveto
          37 2 rmoveto
          15 -1 16 -2 17 -4 -197 -649 rcurveline
          -19 -1 -15 1 -11 3 rrcurveto
          179 725 rmoveto
          -13 -43 -84 -3 -77 -34 -69 -65 rlinecurve
          -72 -67 -47 -86 -23 -105 rrcurveto
          -7 -31 -3 -29 -29 vvcurveto
          -128 64 -101 103 -32 vhcurveto
          -21 -69 rlineto
          41 hlineto
          18 60 rlineto
          -1 12 12 -1 12 hhcurveto
          9 hlineto
          hintmask 01111100
          -17 -57 rlineto
          40 hlineto
          18 59 45 5 41 12 37 19 rlinecurve
          25 15 26 16 25 16 36 45 rcurveline
          -8 14 -76 -63 -72 -35 -68 -8 rlinecurve
          190 636 rlineto
          1 hlineto
          14 -5 13 -10 12 -14 138 callsubr
          -43 17 -36 11 -29 5 15 51 rcurveline
          -36 hlineto
          -14 -46 rlineto
          1 -15 -17 1 -17 hhcurveto
          13 44 rlineto
          endchar
        </CharString>
        <CharString name="comma">
          -249 -130 -21 143 101 -72 -21 hstemhm
          hintmask 10100000
          115 -151 rmoveto
          36 15 34 23 31 30 rrcurveto
          39 37 19 34 33 vvcurveto
          hintmask 11000000
          39 -29 33 -40 -28 -28 -23 -29 -5 vhcurveto
          -27 -5 17 -22 23 hhcurveto
          hintmask 10100000
          7 21 8 7 hhcurveto
          14 5 -8 -15 -3 hvcurveto
          -9 -39 -40 -40 -71 -39 5 -10 rcurveline
          endchar
        </CharString>
        <CharString name="commabelowcomb">
          -481 -229 -21 90 103 hstemhm
          13 117 -41 41 hintmask 11100000
          17 -250 rmoveto
          120 callgsubr
          hintmask 11010000
          176 callsubr
          5 -18 rlineto
          endchar
        </CharString>
        <CharString name="commasuperior">
          -473 206 -21 165 -20 hstem
          111 350 rmoveto
          -13 -5 -15 -4 -16 -4 -7 -2 -6 -1 -3 -1 -9 -52 -17 -47 -27 -42 7 -7 rcurveline
          25 11 34 39 29 48 25 59 rlinecurve
          endchar
        </CharString>
        <CharString name="congruent">
          -123 152 55 74 55 87 57 5 57 13 -20 hstemhm
          hintmask 11101000
          452 555 rmoveto
          -50 -28 -33 -25 -37 hhcurveto
          -17 -33 10 21 -49 hvcurveto
          hintmask 11110000
          21 -49 -36 10 -23 hhcurveto
          -28 -26 -11 -23 -24 hvcurveto
          -15 -13 -17 -23 -21 -33 33 -35 rcurveline
          17 27 14 18 10 9 rrcurveto
          18 18 20 9 21 hhcurveto
          13 23 -6 -13 31 hvcurveto
          -29 74 47 -14 19 hhcurveto
          50 43 33 65 35 hvcurveto
          hintmask 11101000
          1 -185 rmoveto
          -470 -55 470 hlineto
          -74 vmoveto
          -470 -55 470 hlineto
          endchar
        </CharString>
        <CharString name="copyright">
          131 -17 42 107 31 348 26 111 44 hstem
          22 43 121 66 250 25 162 43 vstem
          732 337 rmoveto
          99 -35 83 -70 69 vhcurveto
          69 -69 -84 35 -99 hhcurveto
          -97 -83 -35 -70 -69 hvcurveto
          -69 -70 -35 -84 -97 vvcurveto
          -97 35 -83 69 -69 vhcurveto
          -69 69 84 -35 97 hhcurveto
          98 84 34 69 69 hvcurveto
          70 69 35 84 98 vvcurveto
          -43 hmoveto
          -86 -31 -74 -61 -61 vhcurveto
          -61 -61 -74 -30 -86 hhcurveto
          -85 -74 30 61 -61 hvcurveto
          -61 61 -30 74 85 vvcurveto
          85 30 74 61 61 vhcurveto
          61 61 73 31 85 hhcurveto
          86 74 -30 -61 61 hvcurveto
          62 -61 31 -73 -86 vvcurveto
          -172 -99 rmoveto
          -50 -24 -40 -25 -57 hhcurveto
          -45 -36 19 39 -27 hvcurveto
          -24 35 -12 40 46 vvcurveto
          47 12 40 24 31 vhcurveto
          34 26 36 17 46 hhcurveto
          69 36 -35 -69 1 hvcurveto
          25 104 hlineto
          17 -49 -46 9 -43 hhcurveto
          -61 -50 -19 -38 -37 hvcurveto
          -37 -37 -18 -49 -61 vvcurveto
          -59 17 -48 35 -38 vhcurveto
          -37 35 47 -19 58 hhcurveto
          68 68 37 60 23 hvcurveto
          endchar
        </CharString>
        <CharString name="currency">
          -123 112 45 -35 -21 392 47 11 -20 hstemhm
          34 58 318 56 hintmask 10011100
          466 326 rmoveto
          51 -15 44 -31 37 vhcurveto
          45 45 -8 7 -8 8 -8 7 rlinecurve
          -17 17 -9 8 1 1 -41 -51 rcurveline
          hintmask 10101100
          -38 28 -42 13 -45 -1 -48 -1 -42 -13 -35 -26 rrcurveto
          hintmask 01011100
          -41 51 1 -1 -9 -8 -17 -16 rlinecurve
          -15 -14 -8 -8 -1 -1 45 -45 rcurveline
          -31 -37 -15 -44 -51 vvcurveto
          -51 15 -44 31 -37 vhcurveto
          -45 -45 -1 -1 7 -9 17 -16 rlinecurve
          9 -7 8 -8 9 -7 41 51 rcurveline
          hintmask 10101100
          -27 37 41 -13 47 hhcurveto
          46 42 13 27 37 hvcurveto
          hintmask 01101100
          41 -51 3 2 8 8 14 13 rlinecurve
          17 15 8 9 -1 1 -45 45 rcurveline
          31 37 15 44 51 vvcurveto
          -56 -1 rmoveto
          -47 -16 -39 -32 -33 vhcurveto
          hintmask 10101100
          -33 -32 -37 -16 -42 hhcurveto
          -43 -37 16 32 -32 hvcurveto
          -31 33 -16 40 47 vvcurveto
          46 16 39 31 33 vhcurveto
          33 32 37 17 43 hhcurveto
          42 37 -17 -33 32 hvcurveto
          32 -33 16 -39 -46 vvcurveto
          endchar
        </CharString>
        <CharString name="d">
          -138 -15 5 callgsubr
          243 -20 hstemhm
          18 70 0 180 hintmask 10111000
          137 callsubr
          -3 -24 rcurveline
          38 -2 27 2 16 7 -32 -199 rcurveline
          33 callgsubr
          hintmask 01110100
          -10 -39 -5 -33 -27 vvcurveto
          139 callsubr
          hintmask 10111000
          11 callsubr
          endchar
        </CharString>
        <CharString name="dagger">
          -101 -133 -21 577 91 -56 249 hstemhm
          355 206 hintmask 11010000
          559 467 rmoveto
          1 5 1 4 4 vvcurveto
          23 -13 11 -27 -7 -6 -1 -2 -7 vhcurveto
          -55 -22 -44 -11 -31 -1 5 36 20 48 35 60 9 15 5 14 3 11 rrcurveto
          1 4 0 4 4 vvcurveto
          hintmask 10110000
          196 callsubr
          -2 -9 -1 -14 -17 vvcurveto
          5 -27 3 -25 -22 vvcurveto
          -22 -3 -23 -5 -25 vhcurveto
          -32 1 -38 11 -44 22 rrcurveto
          hintmask 11010000
          2 -7 -6 1 -7 hhcurveto
          -31 -20 -16 -31 -7 hvcurveto
          -1 -4 0 -4 -4 vvcurveto
          -21 14 -11 27 7 6 1 1 7 vhcurveto
          hintmask 10110000
          22 50 43 11 35 hhcurveto
          -9 -45 -21 -88 -33 -131 -39 -153 -26 -87 -13 -21 -9 -23 -5 -14 -1 -3 rrcurveto
          -1 -4 0 -4 -4 vvcurveto
          -23 13 -12 27 33 20 16 31 7 vhcurveto
          2 11 0 14 -2 15 -3 22 11 87 25 151 23 142 17 88 9 35 37 -2 38 -11 39 -20 rrcurveto
          hintmask 11010000
          -1 7 6 -1 6 hhcurveto
          32 19 15 29 7 hvcurveto
          endchar
        </CharString>
        <CharString name="daggerdbl">
          -101 -216 -21 192 94 372 94 192 -20 hstem
          343 458 rmoveto
          -3 -12 -11 -40 -19 -69 rrcurveto
          -68 -19 -10 -34 -1 hhcurveto
          -17 -109 -10 -75 -5 -39 -17 1 -19 4 -22 7 -4 1 -19 7 -33 13 rrcurveto
          3 -7 -7 1 -7 hhcurveto
          -31 -18 -15 -31 -7 hvcurveto
          -1 -5 0 -4 -4 vvcurveto
          -23 13 -12 25 7 7 1 3 7 vhcurveto
          68 22 43 11 19 1 -4 -30 -13 -33 -21 -36 -22 -39 -13 -29 -4 -17 rrcurveto
          -1 -4 0 -4 -4 vvcurveto
          -23 13 -11 27 33 19 15 31 7 vhcurveto
          4 17 1 21 -3 25 rrcurveto
          -3 37 -2 23 7 vvcurveto
          19 2 18 4 17 vhcurveto
          18 -1 20 -4 22 -7 18 -7 18 -8 18 -7 rrcurveto
          -3 7 7 -1 7 hhcurveto
          31 19 16 32 7 hvcurveto
          1 4 1 4 4 vvcurveto
          23 -13 11 -27 -7 -8 -1 -3 -7 vhcurveto
          -22 -65 -42 -11 -21 hhcurveto
          1 5 9 26 15 47 18 53 14 46 10 40 14 137 9 77 5 15 17 -1 19 -4 21 -7 4 -1 19 -7 34 -13 rrcurveto
          -3 7 7 -1 7 hhcurveto
          30 19 15 31 7 hvcurveto
          1 5 0 4 4 vvcurveto
          23 -13 12 -25 -7 -7 -1 -3 -7 vhcurveto
          -68 -22 -43 -11 -19 -1 4 30 12 33 21 36 23 39 13 29 4 17 rrcurveto
          1 4 0 4 4 vvcurveto
          196 callsubr
          -4 -17 -1 -21 2 -25 rrcurveto
          3 -37 2 -23 -7 vvcurveto
          -19 -2 -18 -3 -17 vhcurveto
          -18 1 -20 4 -22 7 -18 7 -18 8 -18 7 rrcurveto
          3 -7 -8 1 -7 hhcurveto
          -30 -19 -16 -32 -7 hvcurveto
          -1 -4 -1 -4 -4 vvcurveto
          -23 13 -11 27 7 8 1 3 7 vhcurveto
          22 65 42 11 21 hhcurveto
          endchar
        </CharString>
        <CharString name="dcaron">
          -138 -15 5 callgsubr
          178 63 2 -20 hstemhm
          18 70 439 150 hintmask 10101110
          137 callsubr
          rrcurveto
          hintmask 10110110
          -3 -24 38 -2 27 2 16 7 rlinecurve
          -32 -199 rlineto
          33 callgsubr
          -10 -39 -5 -33 -27 vvcurveto
          hintmask 01110110
          139 callsubr
          hintmask 10101110
          11 callsubr
          323 192 80 callgsubr
          hintmask 10110110
          -50 callsubr
        </CharString>
        <CharString name="dcroat">
          -123 -10 69 -47 -21 441 44 77 33 142 -20 hstemhm
          22 72 0 185 hintmask 10111100
          361 464 rmoveto
          8 -37 -26 4 -17 hhcurveto
          -21 -18 -4 -7 -17 hvcurveto
          -66 -29 -47 -42 -29 -55 rrcurveto
          -41 -78 -20 -83 -89 vvcurveto
          -21 3 -19 6 -19 vhcurveto
          -27 8 12 -13 16 hhcurveto
          13 18 6 11 21 hvcurveto
          73 40 64 66 54 93 3 -1 rcurveline
          hintmask 01111010
          -23 -97 -11 -57 -17 vvcurveto
          -29 8 -14 16 5 8 2 5 10 vhcurveto
          38 16 44 31 50 45 -9 18 rcurveline
          -15 -13 -18 -13 -23 -14 rrcurveto
          hintmask 10111100
          -6 -11 -8 -3 -6 hhcurveto
          -9 -5 8 15 9 1 8 1 9 hvcurveto
          5 37 11 58 17 77 57 273 rcurveline
          85 hlineto
          8 33 rlineto
          -86 hlineto
          11 61 9 44 7 27 -12 10 rcurveline
          -41 -22 -52 -15 -62 -8 -2 -19 rcurveline
          37 -1 21 -1 5 -1 rrcurveto
          11 -2 5 -8 -13 vvcurveto
          -8 -2 -17 -5 -27 vhcurveto
          -144 hlineto
          -8 -33 rlineto
          146 hlineto
          -25 -145 rmoveto
          -13 -63 -11 -42 -7 -22 -11 -32 -14 -30 -19 -28 -39 -59 -44 -41 -51 -25 rrcurveto
          -5 -9 -9 -2 -9 hhcurveto
          -15 -7 16 31 41 6 44 11 47 hvcurveto
          20 81 20 54 19 25 rrcurveto
          23 17 29 11 41 hhcurveto
          33 31 -8 -16 31 hvcurveto
          endchar
        </CharString>
        <CharString name="degree">
          -275 382 35 188 35 hstem
          40 56 156 56 vstem
          308 511 rmoveto
          38 -13 31 -26 24 vhcurveto
          24 -26 -32 12 -37 hhcurveto
          -37 -32 -12 -24 -26 hvcurveto
          -26 -24 -13 -31 -38 vvcurveto
          -39 13 -32 27 -24 vhcurveto
          -23 25 31 -11 38 hhcurveto
          76 58 50 79 hvcurveto
          -56 hmoveto
          -56 -33 -38 -45 -45 -33 38 56 56 33 38 45 45 33 -38 -56 vhcurveto
          endchar
        </CharString>
        <CharString name="delta">
          -67 -16 30 372 34 252 39 hstem
          42 83 42 37 231 88 vstem
          561 570 rmoveto
          -1 7 -18 17 -37 25 -31 21 -27 17 -25 13 rrcurveto
          27 -52 -48 14 -43 hhcurveto
          -32 -26 -8 -17 -19 hvcurveto
          -23 -21 -12 -23 -27 vvcurveto
          -23 10 -21 21 -19 vhcurveto
          5 -5 29 -22 51 -40 39 -31 29 -25 19 -21 rrcurveto
          8 -24 -25 4 -27 hhcurveto
          -53 -48 -14 -28 -43 hvcurveto
          -47 -31 -32 -43 -17 -54 rrcurveto
          -8 -26 -4 -25 -25 vvcurveto
          -55 18 -45 37 -36 vhcurveto
          35 -34 42 -18 51 -2 62 -3 56 15 51 33 58 37 41 56 24 75 rrcurveto
          4 12 2 15 18 vvcurveto
          56 -14 45 -27 33 vhcurveto
          -27 33 -27 29 -27 23 -17 15 -34 25 -49 36 -41 30 -24 18 -6 6 rrcurveto
          -17 17 -9 16 15 vvcurveto
          19 17 14 23 35 51 -25 -49 65 vhcurveto
          51 -43 38 -32 23 -21 29 9 26 32 -1 27 rrcurveto
          -147 -384 rmoveto
          -21 -52 -31 -42 -39 -33 rrcurveto
          -30 -36 -35 -15 -33 hhcurveto
          -11 -10 2 3 -9 hvcurveto
          -43 17 -21 36 55 vvcurveto
          25 4 28 8 33 vhcurveto
          13 54 29 43 43 32 rrcurveto
          29 39 42 15 45 hhcurveto
          20 18 -3 -7 17 hvcurveto
          21 -23 11 -31 -39 vvcurveto
          -30 -7 -32 -14 -35 vhcurveto
          endchar
        </CharString>
        <CharString name="dialytika">
          -306 528 97 hstem
          304 577 rmoveto
          25 5 -19 23 -25 hhcurveto
          -25 -28 -23 -25 -5 hvcurveto
          -25 -5 18 -24 25 hhcurveto
          24 30 24 25 5 hvcurveto
          -194 hmoveto
          25 5 -19 23 -25 hhcurveto
          -25 -28 -23 -25 -5 hvcurveto
          -25 -5 18 -24 25 hhcurveto
          24 30 24 25 5 hvcurveto
          endchar
        </CharString>
        <CharString name="dieresis">
          -246 528 97 hstem
          28 callgsubr
          endchar
        </CharString>
        <CharString name="dieresistonos">
          -230 540 93 -93 186 -184 -21 hstemhm
          12 95 181 93 hintmask 10011000
          91 callsubr
          hintmask 01011000
          17 -9 8 -17 -16 -14 -6 -13 -12 vhcurveto
          -136 -182 rlineto
          hintmask 00111000
          -69 callsubr
          -257 -158 141 callgsubr
          -29 -27 -28 -21 17 -17 21 hvcurveto
          endchar
        </CharString>
        <CharString name="divide">
          -35 0 97 120 55 120 97 hstem
          245 97 cntrmask 11100000
          342 440 130 callsubr
          196 -168 rmoveto
          -489 -55 489 hlineto
          -196 -169 130 callsubr
          endchar
        </CharString>
        <CharString name="dollar">
          -138 -89 -21 719 44 58 -20 hstem
          70 65 214 72 vstem
          436 620 rmoveto
          22 -33 -43 11 -53 hhcurveto
          9 58 rlineto
          -36 hlineto
          -8 -60 -58 -13 -47 -24 -36 -35 rlinecurve
          -41 -40 -20 -48 -56 vvcurveto
          -74 48 -46 97 -19 vhcurveto
          -42 -265 -55 10 -37 17 -20 24 rlinecurve
          88 -25 vlineto
          -7 -61 -7 -47 -7 -33 22 -18 50 -14 78 -9 -20 -98 rcurveline
          40 hlineto
          14 99 55 5 50 24 45 43 rlinecurve
          48 46 24 51 57 vvcurveto
          47 -16 36 -32 23 vhcurveto
          -25 19 -38 13 -51 7 40 249 rcurveline
          42 -3 31 -13 19 -25 rrcurveto
          -69 23 vlineto
          5 32 8 37 11 42 rrcurveto
          -211 -244 rmoveto
          -61 14 -31 33 52 vvcurveto
          39 12 33 25 29 vhcurveto
          25 29 31 15 38 -1 rrcurveto
          83 -424 rmoveto
          -40 -14 -36 -28 -31 vhcurveto
          -31 -28 -34 -16 -39 hhcurveto
          41 261 36 -8 26 -11 15 -15 rlinecurve
          17 -17 8 -24 -32 vvcurveto
          endchar
        </CharString>
        <CharString name="dollaroldstyle">
          -263 -63 -21 90 -21 520 -20 hstem
          61 57 156 65 vstem
          218 193 rmoveto
          40 -9 16 -14 -40 vvcurveto
          -61 -31 -35 -61 -9 vhcurveto
          15 241 rmoveto
          -3 1 -25 5 -18 5 -10 7 rlinecurve
          -15 11 -8 17 23 vvcurveto
          53 45 37 55 4 4 0 -1 5 vhcurveto
          119 13 rmoveto
          -26 14 -25 8 -24 3 9 43 rcurveline
          -36 hlineto
          -9 -42 -49 -4 -48 -25 -46 -46 rlinecurve
          -23 -23 -12 -29 -33 vvcurveto
          -53 31 -33 63 -12 vhcurveto
          28 -6 -37 -174 -31 3 -25 11 -21 19 rlinecurve
          82 -24 vlineto
          110 callsubr
          -18 34 35 -9 35 hhcurveto
          9 hlineto
          -14 -69 rlineto
          36 hlineto
          16 75 29 8 31 17 34 26 rlinecurve
          47 35 23 42 48 vvcurveto
          48 -34 31 -69 13 vhcurveto
          -4 1 33 155 22 -8 15 -11 7 -15 rlinecurve
          -53 22 vlineto
          3 28 7 36 9 45 rrcurveto
          endchar
        </CharString>
        <CharString name="dollarsuperior">
          -303 237 56 vstem
          134 272 rmoveto
          79 11 61 49 16 76 rrcurveto
          2 9 1 8 7 vvcurveto
          25 -11 19 -23 12 vhcurveto
          -16 9 -25 6 -35 4 33 152 rcurveline
          27 21 -9 -17 15 hvcurveto
          -2 -23 -2 -17 -2 -13 3 -4 rcurveline
          11 hlineto
          5 5 9 30 7 23 7 17 rlinecurve
          6 vlineto
          -20 15 -31 8 -43 1 4 17 3 12 1 5 -7 8 -9 0 -11 -8 -1 -8 -2 -12 -3 -15 -81 -11 -48 -41 -15 -70 -2 -9 -1 -8 1 -8 rrcurveto
          -45 33 -25 65 -6 vhcurveto
          -34 -164 rlineto
          -14 -15 4 7 -15 hvcurveto
          -17 8 -11 10 -4 11 6 51 rcurveline
          -3 5 rlineto
          -12 hlineto
          -5 -4 -10 -35 -9 -29 -8 -21 rlinecurve
          3 -6 30 -15 36 -7 43 -1 rlinecurve
          -6 -27 -4 -18 -3 -10 7 -9 9 0 11 9 rrcurveto
          37 294 rmoveto
          -36 5 -18 17 -1 27 rrcurveto
          47 39 45 47 7 vhcurveto
          -19 -205 rmoveto
          43 -5 22 -18 -29 vvcurveto
          -23 -11 -24 -22 -23 vhcurveto
          -21 -23 -22 -13 -23 -1 rrcurveto
          endchar
        </CharString>
        <CharString name="dong">
          -198 107 34 74 46 251 103 -22 22 95 -20 hstemhm
          83 49 0 124 hintmask 11101100
          55 107 rmoveto
          363 hlineto
          8 34 rlineto
          -364 hlineto
          249 393 rmoveto
          5 -25 -18 2 -11 hhcurveto
          -14 -13 -2 -5 -11 hvcurveto
          -44 -20 -32 -28 -19 -37 rrcurveto
          -27 -52 -14 -56 -60 vvcurveto
          -44 10 -22 21 9 11 4 7 14 vhcurveto
          49 27 43 44 37 63 1 -1 rcurveline
          hintmask 11011010
          -15 -65 -7 -38 -12 vvcurveto
          -19 5 -10 11 3 6 2 3 7 vhcurveto
          25 11 30 20 33 31 -6 12 rcurveline
          -10 -9 -12 -9 -15 -9 rrcurveto
          -4 -7 -6 -2 -4 hhcurveto
          -6 -3 5 11 15 8 45 15 73 hvcurveto
          38 183 rlineto
          57 hlineto
          5 22 rlineto
          -57 hlineto
          7 41 6 30 5 18 -8 6 rcurveline
          -28 -14 -35 -10 -41 -5 -2 -14 rcurveline
          25 14 0 -1 4 hvcurveto
          7 -1 3 -6 -9 vvcurveto
          -5 -1 -12 -3 -18 vhcurveto
          -97 hlineto
          -5 -22 rlineto
          98 hlineto
          -17 -98 rmoveto
          -9 -41 -7 -29 -5 -15 -15 -43 -23 -36 -33 -31 rrcurveto
          -26 -28 -22 -13 -17 hhcurveto
          -9 -5 11 21 27 4 30 7 31 hvcurveto
          13 55 14 36 13 17 rrcurveto
          hintmask 11101100
          15 11 20 8 27 hhcurveto
          22 21 -6 -11 21 hvcurveto
          endchar
        </CharString>
        <CharString name="dotaccent">
          -263 533 94 hstem
          230 582 -49 callsubr
        </CharString>
        <CharString name="dotbelowcomb">
          -493 -218 106 hstem
          12 106 vstem
          118 -165 -72 callgsubr
          endchar
        </CharString>
        <CharString name="dotlessi">
          -353 7 -21 477 -20 hstem
          224 95 -18 callsubr
          7 2 13 5 19 6 callgsubr
        </CharString>
        <CharString name="e">
          38 callgsubr
          hstem
          20 73 203 72 vstem
          -99 callgsubr
          endchar
        </CharString>
        <CharString name="eacute">
          38 callgsubr
          242 -20 hstem
          20 73 203 72 vstem
          -99 callgsubr
          121 313 rmoveto
          -97 callgsubr
        </CharString>
        <CharString name="ebreve">
          38 callgsubr
          68 180 callgsubr
          20 73 83 23 97 72 vstem
          -99 callgsubr
          148 294 -98 callgsubr
          endchar
        </CharString>
        <CharString name="ecaron">
          38 callgsubr
          234 -20 21 154 callgsubr
          hintmask 11101100
          368 389 rmoveto
          -61 -40 -48 -81 -34 vhcurveto
          -15 -7 -22 -8 -29 -9 -80 -19 rcurveline
          -5 -27 -3 -27 -28 vvcurveto
          -61 26 -30 52 35 43 19 37 51 vhcurveto
          23 17 8 -19 rlineto
          -67 -81 -64 -33 -48 hhcurveto
          -79 -39 41 83 40 10 53 20 66 hvcurveto
          16 53 24 39 32 25 rrcurveto
          53 68 54 26 39 hhcurveto
          48 37 -27 -47 hvcurveto
          -72 -18 rmoveto
          34 -16 17 -33 -13 -15 -4 -8 -17 vhcurveto
          -37 -17 -29 -50 -21 -82 -9 -36 rcurveline
          41 9 36 11 29 14 rrcurveto
          44 20 40 47 45 vvcurveto
          163 326 rmoveto
          hintmask 11011100
          23 callgsubr
          hintmask 11101100
          -36 callgsubr
        </CharString>
        <CharString name="ecircumflex">
          -243 -11 46 392 41 0 62 136 callgsubr
          15 73 203 72 hintmask 10111100
          302 32 callgsubr
          -24 -136 rmoveto
          47 -37 27 -48 -39 -54 -26 -53 -68 vhcurveto
          -32 -25 -24 -39 -16 -53 rrcurveto
          -20 -66 -10 -53 -40 vvcurveto
          -83 39 -41 79 48 64 33 67 81 vhcurveto
          -8 19 -23 -17 rlineto
          -37 -51 -43 -19 -35 hhcurveto
          -52 -26 30 61 28 3 27 5 27 hvcurveto
          80 19 29 10 22 8 15 6 195 callgsubr
          -23 -9 -22 -18 -22 vhcurveto
          -16 -19 -19 -15 -22 -11 -29 -14 -36 -11 -41 -9 9 36 rcurveline
          21 82 29 50 37 17 rrcurveto
          hintmask 11011100
          8 17 15 4 13 hhcurveto
          33 16 -17 -34 hvcurveto
          endchar
        </CharString>
        <CharString name="edieresis">
          -243 -11 46 392 41 60 97 hstem
          15 73 203 72 vstem
          28 callgsubr
          165 -183 rmoveto
          47 -37 27 -48 -39 -54 -26 -53 -68 vhcurveto
          -32 -25 -24 -39 -16 -53 rrcurveto
          -20 -66 -10 -53 -40 vvcurveto
          -83 39 -41 79 48 64 33 67 81 vhcurveto
          -8 19 -23 -17 rlineto
          -37 -51 -43 -19 -35 hhcurveto
          -52 -26 30 61 28 3 27 5 27 hvcurveto
          80 19 29 10 22 8 15 6 195 callgsubr
          -23 -9 -22 -18 -22 vhcurveto
          -16 -19 -19 -15 -22 -11 -72 callsubr
          endchar
        </CharString>
        <CharString name="edotaccent">
          38 callgsubr
          66 94 hstem
          20 73 203 72 vstem
          -99 callgsubr
          39 207 -49 callsubr
        </CharString>
        <CharString name="egrave">
          38 callgsubr
          198 -20 hstem
          20 73 203 72 vstem
          -99 callgsubr
          -161 273 rmoveto
          -66 callsubr
        </CharString>
        <CharString name="eight">
          -59 -16 30 658 31 hstemhm
          17 78 31 83 206 89 -34 75 hintmask 11110100
          540 530 rmoveto
          3 10 2 11 11 vvcurveto
          37 -14 32 -29 27 vhcurveto
          30 -33 -43 15 -55 hhcurveto
          -67 -56 -16 -33 -45 hvcurveto
          -51 -37 -26 -50 -65 vvcurveto
          -37 10 -32 20 -27 vhcurveto
          17 -23 26 -21 34 -19 -55 -3 -48 -18 -43 -34 rrcurveto
          -47 -37 -23 -45 -53 vvcurveto
          -101 92 -68 97 vhcurveto
          hintmask 11111000
          147 151 35 161 44 -21 43 -41 42 hvcurveto
          -31 31 -32 23 -33 14 106 21 65 51 23 81 rrcurveto
          hintmask 11110100
          -70 36 rmoveto
          -38 -16 -36 -31 -34 vhcurveto
          -26 -28 -33 -23 -40 -18 -36 19 -29 22 -23 26 rrcurveto
          -18 21 -9 26 29 vvcurveto
          44 16 35 32 25 vhcurveto
          29 25 38 12 45 -1 33 -1 25 -11 19 -23 rrcurveto
          16 -19 8 -24 -28 vvcurveto
          -65 -448 rmoveto
          -65 -25 -70 -39 -92 hhcurveto
          -36 -30 14 29 -24 hvcurveto
          -22 26 -11 31 35 vvcurveto
          44 16 39 32 34 vhcurveto
          29 31 37 22 45 11 34 -22 34 -22 33 -21 rrcurveto
          hintmask 11111000
          40 -31 20 -34 -35 vvcurveto
          -15 -3 -16 -7 -16 vhcurveto
          endchar
        </CharString>
        <CharString name="eightinferior">
          -307 -88 183 callgsubr
          104 -93 callsubr
        </CharString>
        <CharString name="eightsuperior">
          -307 404 183 callgsubr
          596 -93 callsubr
        </CharString>
        <CharString name="ellipsis">
          259 -16 127 hstem
          110 132 173 132 163 132 vstem
          762 -16 rmoveto
          -25 callgsubr
          -295 hmoveto
          -25 callgsubr
          -305 hmoveto
          -25 callgsubr
          endchar
        </CharString>
        <CharString name="emacron">
          38 callgsubr
          63 51 hstem
          20 73 203 72 vstem
          -99 callgsubr
          134 206 -6 callsubr
        </CharString>
        <CharString name="emdash">
          123 callsubr
        </CharString>
        <CharString name="endash">
          -101 210 52 hstem
          629 262 rmoveto
          -537 -52 537 hlineto
          endchar
        </CharString>
</ttFont>
